<ttFont>
    <TTGlyph name=".notdef" xMin="104" yMin="250" xMax="214" yMax="360">
      <contour>
        <pt x="104" y="250" on="1"/>
        <pt x="123" y="360" on="1"/>
        <pt x="214" y="360" on="1"/>
        <pt x="195" y="250" on="1"/>
      </contour>
    </TTGlyph>
    <TTGlyph name="A" xMin="-37" yMin="0" xMax="510" yMax="700">
      <contour>
        <pt x="410" y="0" on="1"/>
        <pt x="385" y="189" on="1"/>
        <pt x="154" y="189" on="1"/>
        <pt x="63" y="0" on="1"/>
        <pt x="-37" y="0" on="1"/>
        <pt x="312" y="700" on="1"/>
        <pt x="408" y="700" on="1"/>
        <pt x="510" y="0" on="1"/>
      </contour>
      <contour>
        <pt x="336" y="567" on="1"/>
        <pt x="200" y="275" on="1"/>
        <pt x="369" y="275" on="1"/>
      </contour>
    </TTGlyph>
    <TTGlyph name="A.sc" xMin="-38" yMin="0" xMax="437" yMax="560">
      <contour>
        <pt x="341" y="0" on="1"/>
        <pt x="318" y="141" on="1"/>
        <pt x="131" y="141" on="1"/>
        <pt x="59" y="0" on="1"/>
        <pt x="-38" y="0" on="1"/>
        <pt x="254" y="560" on="1"/>
        <pt x="344" y="560" on="1"/>
        <pt x="437" y="0" on="1"/>
      </contour>
      <contour>
        <pt x="273" y="418" on="1"/>
        <pt x="178" y="229" on="1"/>
        <pt x="302" y="229" on="1"/>
      </contour>
    </TTGlyph>
    <TTGlyph name="AE" xMin="-52" yMin="0" xMax="817" yMax="700">
      <contour>
        <pt x="417" y="0" on="1"/>
        <pt x="310" y="0" on="1"/>
        <pt x="341" y="180" on="1"/>
        <pt x="155" y="180" on="1"/>
        <pt x="43" y="0" on="1"/>
        <pt x="-52" y="0" on="1"/>
        <pt x="379" y="700" on="1"/>
        <pt x="817" y="700" on="1"/>
        <pt x="801" y="613" on="1"/>
        <pt x="525" y="613" on="1"/>
        <pt x="489" y="409" on="1"/>
        <pt x="702" y="409" on="1"/>
        <pt x="687" y="323" on="1"/>
        <pt x="474" y="323" on="1"/>
        <pt x="432" y="86" on="1"/>
        <pt x="717" y="86" on="1"/>
        <pt x="702" y="0" on="1"/>
      </contour>
      <contour>
        <pt x="417" y="611" on="1"/>
        <pt x="214" y="272" on="1"/>
        <pt x="358" y="272" on="1"/>
      </contour>
    </TTGlyph>
    <TTGlyph name="AE.sc" xMin="-53" yMin="0" xMax="690" yMax="560">
      <contour>
        <pt x="358" y="0" on="1"/>
        <pt x="261" y="0" on="1"/>
        <pt x="286" y="138" on="1"/>
        <pt x="131" y="138" on="1"/>
        <pt x="42" y="0" on="1"/>
        <pt x="-53" y="0" on="1"/>
        <pt x="310" y="560" on="1"/>
        <pt x="690" y="560" on="1"/>
        <pt x="674" y="471" on="1"/>
        <pt x="442" y="471" on="1"/>
        <pt x="418" y="336" on="1"/>
        <pt x="597" y="336" on="1"/>
        <pt x="582" y="248" on="1"/>
        <pt x="403" y="248" on="1"/>
        <pt x="375" y="88" on="1"/>
        <pt x="614" y="88" on="1"/>
        <pt x="598" y="0" on="1"/>
      </contour>
      <contour>
        <pt x="344" y="469" on="1"/>
        <pt x="190" y="228" on="1"/>
        <pt x="301" y="228" on="1"/>
      </contour>
    </TTGlyph>
    <TTGlyph name="Aacute" xMin="-37" yMin="0" xMax="510" yMax="942">
      <component glyphName="A" x="0" y="0" flags="0x204"/>
      <component glyphName="acute" x="138" y="210" flags="0x4"/>
    </TTGlyph>
    <TTGlyph name="Acircumflex" xMin="-37" yMin="0" xMax="519" yMax="955">
      <component glyphName="A" x="0" y="0" flags="0x204"/>
      <component glyphName="circumflex" x="73" y="210" flags="0x4"/>
    </TTGlyph>
    <TTGlyph name="Adieresis" xMin="-37" yMin="0" xMax="510" yMax="910">
      <component glyphName="A" x="0" y="0" flags="0x204"/>
      <component glyphName="dieresis" x="84" y="210" flags="0x4"/>
    </TTGlyph>
    <TTGlyph name="Agrave" xMin="-37" yMin="0" xMax="510" yMax="942">
      <component glyphName="A" x="0" y="0" flags="0x204"/>
      <component glyphName="grave" x="137" y="210" flags="0x4"/>
    </TTGlyph>
    <TTGlyph name="Aring" xMin="-37" yMin="0" xMax="510" yMax="965">
      <component glyphName="A" x="0" y="0" flags="0x204"/>
      <component glyphName="ring" x="143" y="210" flags="0x4"/>
    </TTGlyph>
    <TTGlyph name="Atilde" xMin="-37" yMin="0" xMax="558" yMax="912">
      <component glyphName="A" x="0" y="0" flags="0x204"/>
      <component glyphName="tilde" x="37" y="210" flags="0x4"/>
    </TTGlyph>
    <TTGlyph name="B" xMin="28" yMin="0" xMax="515" yMax="700">
      <contour>
        <pt x="124" y="0" on="1"/>
        <pt x="28" y="0" on="1"/>
        <pt x="151" y="700" on="1"/>
        <pt x="303" y="700" on="1"/>
        <pt x="351" y="700" on="0"/>
        <pt x="430" y="690" on="0"/>
        <pt x="485" y="661" on="0"/>
        <pt x="515" y="608" on="0"/>
        <pt x="515" y="566" on="1"/>
        <pt x="515" y="529" on="0"/>
        <pt x="505" y="475" on="0"/>
        <pt x="484" y="432" on="0"/>
        <pt x="453" y="394" on="0"/>
        <pt x="432" y="373" on="1"/>
        <pt x="476" y="352" on="0"/>
        <pt x="513" y="285" on="0"/>
        <pt x="513" y="242" on="1"/>
        <pt x="513" y="165" on="0"/>
        <pt x="465" y="70" on="0"/>
        <pt x="390" y="18" on="0"/>
        <pt x="298" y="0" on="0"/>
        <pt x="253" y="0" on="1"/>
      </contour>
      <contour>
        <pt x="231" y="615" on="1"/>
        <pt x="195" y="409" on="1"/>
        <pt x="303" y="409" on="1"/>
        <pt x="324" y="409" on="0"/>
        <pt x="366" y="416" on="0"/>
        <pt x="398" y="443" on="0"/>
        <pt x="418" y="497" on="0"/>
        <pt x="418" y="545" on="1"/>
        <pt x="418" y="569" on="0"/>
        <pt x="403" y="597" on="0"/>
        <pt x="376" y="611" on="0"/>
        <pt x="340" y="615" on="0"/>
        <pt x="319" y="615" on="1"/>
      </contour>
      <contour>
        <pt x="180" y="323" on="1"/>
        <pt x="138" y="86" on="1"/>
        <pt x="234" y="86" on="1"/>
        <pt x="276" y="86" on="0"/>
        <pt x="342" y="95" on="0"/>
        <pt x="389" y="125" on="0"/>
        <pt x="413" y="181" on="0"/>
        <pt x="413" y="229" on="1"/>
        <pt x="413" y="257" on="0"/>
        <pt x="397" y="294" on="0"/>
        <pt x="368" y="315" on="0"/>
        <pt x="330" y="323" on="0"/>
        <pt x="309" y="323" on="1"/>
      </contour>
    </TTGlyph>
    <TTGlyph name="B.sc" xMin="21" yMin="0" xMax="448" yMax="560">
      <contour>
        <pt x="112" y="0" on="1"/>
        <pt x="21" y="0" on="1"/>
        <pt x="120" y="560" on="1"/>
        <pt x="260" y="560" on="1"/>
        <pt x="302" y="560" on="0"/>
        <pt x="370" y="552" on="0"/>
        <pt x="418" y="528" on="0"/>
        <pt x="445" y="484" on="0"/>
        <pt x="445" y="448" on="1"/>
        <pt x="445" y="418" on="0"/>
        <pt x="434" y="374" on="0"/>
        <pt x="416" y="339" on="0"/>
        <pt x="390" y="311" on="0"/>
        <pt x="375" y="299" on="1"/>
        <pt x="448" y="268" on="0"/>
        <pt x="448" y="192" on="1"/>
        <pt x="448" y="134" on="0"/>
        <pt x="407" y="60" on="0"/>
        <pt x="342" y="17" on="0"/>
        <pt x="262" y="0" on="0"/>
        <pt x="224" y="0" on="1"/>
      </contour>
      <contour>
        <pt x="198" y="480" on="1"/>
        <pt x="172" y="332" on="1"/>
        <pt x="267" y="332" on="1"/>
        <pt x="281" y="332" on="0"/>
        <pt x="312" y="339" on="0"/>
        <pt x="337" y="358" on="0"/>
        <pt x="354" y="394" on="0"/>
        <pt x="354" y="424" on="1"/>
        <pt x="354" y="459" on="0"/>
        <pt x="313" y="480" on="0"/>
        <pt x="281" y="480" on="1"/>
      </contour>
      <contour>
        <pt x="158" y="256" on="1"/>
        <pt x="128" y="81" on="1"/>
        <pt x="220" y="81" on="1"/>
        <pt x="251" y="81" on="0"/>
        <pt x="299" y="90" on="0"/>
        <pt x="333" y="114" on="0"/>
        <pt x="351" y="154" on="0"/>
        <pt x="351" y="186" on="1"/>
        <pt x="351" y="227" on="0"/>
        <pt x="302" y="256" on="0"/>
        <pt x="264" y="256" on="1"/>
      </contour>
    </TTGlyph>
    <TTGlyph name="C" xMin="46" yMin="-14" xMax="601" yMax="714">
      <contour>
        <pt x="304" y="-14" on="1"/>
        <pt x="245" y="-14" on="0"/>
        <pt x="150" y="27" on="0"/>
        <pt x="82" y="103" on="0"/>
        <pt x="46" y="211" on="0"/>
        <pt x="46" y="278" on="1"/>
        <pt x="46" y="375" on="0"/>
        <pt x="108" y="535" on="0"/>
        <pt x="213" y="650" on="0"/>
        <pt x="354" y="714" on="0"/>
        <pt x="432" y="714" on="1"/>
        <pt x="480" y="714" on="0"/>
        <pt x="571" y="690" on="0"/>
        <pt x="601" y="673" on="1"/>
        <pt x="575" y="585" on="1"/>
        <pt x="540" y="599" on="0"/>
        <pt x="466" y="628" on="0"/>
        <pt x="417" y="628" on="1"/>
        <pt x="355" y="628" on="0"/>
        <pt x="256" y="571" on="0"/>
        <pt x="187" y="476" on="0"/>
        <pt x="151" y="353" on="0"/>
        <pt x="151" y="286" on="1"/>
        <pt x="151" y="241" on="0"/>
        <pt x="171" y="162" on="0"/>
        <pt x="213" y="105" on="0"/>
        <pt x="277" y="72" on="0"/>
        <pt x="320" y="72" on="1"/>
        <pt x="368" y="72" on="0"/>
        <pt x="451" y="100" on="0"/>
        <pt x="492" y="114" on="1"/>
        <pt x="486" y="26" on="1"/>
        <pt x="449" y="9" on="0"/>
        <pt x="352" y="-14" on="0"/>
      </contour>
    </TTGlyph>
    <TTGlyph name="C.sc" xMin="34" yMin="-11" xMax="506" yMax="571">
      <contour>
        <pt x="257" y="-11" on="1"/>
        <pt x="206" y="-11" on="0"/>
        <pt x="124" y="23" on="0"/>
        <pt x="66" y="84" on="0"/>
        <pt x="34" y="172" on="0"/>
        <pt x="34" y="226" on="1"/>
        <pt x="34" y="302" on="0"/>
        <pt x="86" y="429" on="0"/>
        <pt x="174" y="521" on="0"/>
        <pt x="293" y="571" on="0"/>
        <pt x="359" y="571" on="1"/>
        <pt x="402" y="571" on="0"/>
        <pt x="480" y="553" on="0"/>
        <pt x="506" y="538" on="1"/>
        <pt x="481" y="451" on="1"/>
        <pt x="449" y="464" on="0"/>
        <pt x="386" y="483" on="0"/>
        <pt x="344" y="483" on="1"/>
        <pt x="294" y="483" on="0"/>
        <pt x="217" y="443" on="0"/>
        <pt x="164" y="375" on="0"/>
        <pt x="136" y="285" on="0"/>
        <pt x="136" y="235" on="1"/>
        <pt x="136" y="201" on="0"/>
        <pt x="153" y="143" on="0"/>
        <pt x="187" y="101" on="0"/>
        <pt x="238" y="77" on="0"/>
        <pt x="273" y="77" on="1"/>
        <pt x="315" y="77" on="0"/>
        <pt x="385" y="96" on="0"/>
        <pt x="420" y="109" on="1"/>
        <pt x="415" y="21" on="1"/>
        <pt x="383" y="7" on="0"/>
        <pt x="299" y="-11" on="0"/>
      </contour>
    </TTGlyph>
    <TTGlyph name="Ccaron" xMin="46" yMin="-14" xMax="601" yMax="950">
      <component glyphName="C" x="0" y="0" flags="0x204"/>
      <component glyphName="caron" x="110" y="210" flags="0x4"/>
    </TTGlyph>
    <TTGlyph name="Ccedilla" xMin="46" yMin="-192" xMax="601" yMax="714">
      <component glyphName="C" x="0" y="0" flags="0x204"/>
      <component glyphName="cedilla" x="43" y="0" flags="0x4"/>
    </TTGlyph>
    <TTGlyph name="D" xMin="28" yMin="0" xMax="644" yMax="700">
      <contour>
        <pt x="123" y="0" on="1"/>
        <pt x="28" y="0" on="1"/>
        <pt x="151" y="700" on="1"/>
        <pt x="385" y="700" on="1"/>
        <pt x="444" y="700" on="0"/>
        <pt x="540" y="662" on="0"/>
        <pt x="607" y="590" on="0"/>
        <pt x="644" y="486" on="0"/>
        <pt x="644" y="420" on="1"/>
        <pt x="644" y="324" on="0"/>
        <pt x="584" y="168" on="0"/>
        <pt x="480" y="59" on="0"/>
        <pt x="341" y="0" on="0"/>
        <pt x="262" y="0" on="1"/>
      </contour>
      <contour>
        <pt x="231" y="614" on="1"/>
        <pt x="138" y="86" on="1"/>
        <pt x="277" y="86" on="1"/>
        <pt x="340" y="86" on="0"/>
        <pt x="437" y="137" on="0"/>
        <pt x="504" y="226" on="0"/>
        <pt x="539" y="345" on="0"/>
        <pt x="539" y="413" on="1"/>
        <pt x="539" y="503" on="0"/>
        <pt x="455" y="614" on="0"/>
        <pt x="370" y="614" on="1"/>
      </contour>
    </TTGlyph>
    <TTGlyph name="D.sc" xMin="21" yMin="0" xMax="546" yMax="560">
      <contour>
        <pt x="113" y="0" on="1"/>
        <pt x="21" y="0" on="1"/>
        <pt x="120" y="560" on="1"/>
        <pt x="322" y="560" on="1"/>
        <pt x="373" y="560" on="0"/>
        <pt x="455" y="529" on="0"/>
        <pt x="514" y="470" on="0"/>
        <pt x="546" y="386" on="0"/>
        <pt x="546" y="333" on="1"/>
        <pt x="546" y="256" on="0"/>
        <pt x="495" y="133" on="0"/>
        <pt x="408" y="47" on="0"/>
        <pt x="290" y="0" on="0"/>
        <pt x="223" y="0" on="1"/>
      </contour>
      <contour>
        <pt x="197" y="472" on="1"/>
        <pt x="129" y="88" on="1"/>
        <pt x="239" y="88" on="1"/>
        <pt x="289" y="88" on="0"/>
        <pt x="365" y="124" on="0"/>
        <pt x="417" y="187" on="0"/>
        <pt x="444" y="273" on="0"/>
        <pt x="444" y="324" on="1"/>
        <pt x="444" y="392" on="0"/>
        <pt x="376" y="472" on="0"/>
        <pt x="306" y="472" on="1"/>
      </contour>
    </TTGlyph>
    <TTGlyph name="E" xMin="28" yMin="0" xMax="542" yMax="700">
      <contour>
        <pt x="125" y="0" on="1"/>
        <pt x="28" y="0" on="1"/>
        <pt x="151" y="700" on="1"/>
        <pt x="542" y="700" on="1"/>
        <pt x="527" y="614" on="1"/>
        <pt x="232" y="614" on="1"/>
        <pt x="196" y="409" on="1"/>
        <pt x="428" y="409" on="1"/>
        <pt x="413" y="323" on="1"/>
        <pt x="181" y="323" on="1"/>
        <pt x="139" y="86" on="1"/>
        <pt x="442" y="86" on="1"/>
        <pt x="427" y="0" on="1"/>
      </contour>
    </TTGlyph>
    <TTGlyph name="E.sc" xMin="21" yMin="0" xMax="462" yMax="560">
      <contour>
        <pt x="113" y="0" on="1"/>
        <pt x="21" y="0" on="1"/>
        <pt x="120" y="560" on="1"/>
        <pt x="462" y="560" on="1"/>
        <pt x="447" y="472" on="1"/>
        <pt x="199" y="472" on="1"/>
        <pt x="175" y="336" on="1"/>
        <pt x="369" y="336" on="1"/>
        <pt x="353" y="248" on="1"/>
        <pt x="159" y="248" on="1"/>
        <pt x="131" y="88" on="1"/>
        <pt x="387" y="88" on="1"/>
        <pt x="371" y="0" on="1"/>
      </contour>
    </TTGlyph>
    <TTGlyph name="Eacute" xMin="28" yMin="0" xMax="542" yMax="942">
      <component glyphName="E" x="0" y="0" flags="0x204"/>
      <component glyphName="acute" x="105" y="210" flags="0x4"/>
    </TTGlyph>
    <TTGlyph name="Ecircumflex" xMin="28" yMin="0" xMax="542" yMax="955">
      <component glyphName="E" x="0" y="0" flags="0x204"/>
      <component glyphName="circumflex" x="41" y="210" flags="0x4"/>
    </TTGlyph>
    <TTGlyph name="Edieresis" xMin="28" yMin="0" xMax="542" yMax="910">
      <component glyphName="E" x="0" y="0" flags="0x204"/>
      <component glyphName="dieresis" x="52" y="210" flags="0x4"/>
    </TTGlyph>
    <TTGlyph name="Egrave" xMin="28" yMin="0" xMax="542" yMax="942">
      <component glyphName="E" x="0" y="0" flags="0x204"/>
      <component glyphName="grave" x="105" y="210" flags="0x4"/>
    </TTGlyph>
    <TTGlyph name="Eth" xMin="3" yMin="0" xMax="646" yMax="700">
      <contour>
        <pt x="126" y="0" on="1"/>
        <pt x="34" y="0" on="1"/>
        <pt x="89" y="313" on="1"/>
        <pt x="3" y="313" on="1"/>
        <pt x="14" y="377" on="1"/>
        <pt x="100" y="377" on="1"/>
        <pt x="157" y="700" on="1"/>
        <pt x="389" y="700" on="1"/>
        <pt x="447" y="700" on="0"/>
        <pt x="542" y="662" on="0"/>
        <pt x="610" y="590" on="0"/>
        <pt x="646" y="487" on="0"/>
        <pt x="646" y="421" on="1"/>
        <pt x="646" y="324" on="0"/>
        <pt x="586" y="168" on="0"/>
        <pt x="483" y="59" on="0"/>
        <pt x="345" y="0" on="0"/>
        <pt x="266" y="0" on="1"/>
      </contour>
      <contour>
        <pt x="234" y="614" on="1"/>
        <pt x="192" y="377" on="1"/>
        <pt x="309" y="377" on="1"/>
        <pt x="297" y="313" on="1"/>
        <pt x="181" y="313" on="1"/>
        <pt x="141" y="87" on="1"/>
        <pt x="281" y="87" on="1"/>
        <pt x="344" y="87" on="0"/>
        <pt x="442" y="138" on="0"/>
        <pt x="509" y="226" on="0"/>
        <pt x="543" y="345" on="0"/>
        <pt x="543" y="414" on="1"/>
        <pt x="543" y="504" on="0"/>
        <pt x="459" y="614" on="0"/>
        <pt x="374" y="614" on="1"/>
      </contour>
    </TTGlyph>
    <TTGlyph name="Euro" xMin="20" yMin="17" xMax="650" yMax="683">
      <contour>
        <pt x="378" y="17" on="1"/>
        <pt x="287" y="17" on="0"/>
        <pt x="165" y="120" on="0"/>
        <pt x="148" y="215" on="1"/>
        <pt x="20" y="215" on="1"/>
        <pt x="55" y="284" on="1"/>
        <pt x="143" y="284" on="1"/>
        <pt x="145" y="305" on="0"/>
        <pt x="149" y="340" on="0"/>
        <pt x="154" y="369" on="1"/>
        <pt x="72" y="369" on="1"/>
        <pt x="108" y="438" on="1"/>
        <pt x="175" y="438" on="1"/>
        <pt x="198" y="496" on="0"/>
        <pt x="265" y="587" on="0"/>
        <pt x="349" y="650" on="0"/>
        <pt x="445" y="683" on="0"/>
        <pt x="496" y="683" on="1"/>
        <pt x="538" y="683" on="0"/>
        <pt x="618" y="666" on="0"/>
        <pt x="650" y="649" on="1"/>
        <pt x="621" y="551" on="1"/>
        <pt x="589" y="568" on="0"/>
        <pt x="522" y="589" on="0"/>
        <pt x="479" y="589" on="1"/>
        <pt x="412" y="589" on="0"/>
        <pt x="317" y="510" on="0"/>
        <pt x="285" y="438" on="1"/>
        <pt x="515" y="438" on="1"/>
        <pt x="478" y="369" on="1"/>
        <pt x="263" y="369" on="1"/>
        <pt x="261" y="360" on="0"/>
        <pt x="257" y="336" on="0"/>
        <pt x="254" y="311" on="0"/>
        <pt x="252" y="290" on="0"/>
        <pt x="252" y="284" on="1"/>
        <pt x="470" y="284" on="1"/>
        <pt x="435" y="215" on="1"/>
        <pt x="261" y="215" on="1"/>
        <pt x="277" y="161" on="0"/>
        <pt x="342" y="111" on="0"/>
        <pt x="395" y="111" on="1"/>
        <pt x="438" y="111" on="0"/>
        <pt x="512" y="132" on="0"/>
        <pt x="550" y="149" on="1"/>
        <pt x="544" y="51" on="1"/>
        <pt x="507" y="34" on="0"/>
        <pt x="421" y="17" on="0"/>
      </contour>
    </TTGlyph>
    <TTGlyph name="F" xMin="28" yMin="0" xMax="537" yMax="700">
      <contour>
        <pt x="231" y="614" on="1"/>
        <pt x="195" y="409" on="1"/>
        <pt x="419" y="409" on="1"/>
        <pt x="404" y="323" on="1"/>
        <pt x="180" y="323" on="1"/>
        <pt x="123" y="0" on="1"/>
        <pt x="28" y="0" on="1"/>
        <pt x="151" y="700" on="1"/>
        <pt x="537" y="700" on="1"/>
        <pt x="522" y="614" on="1"/>
      </contour>
    </TTGlyph>
    <TTGlyph name="F.sc" xMin="21" yMin="0" xMax="452" yMax="560">
      <contour>
        <pt x="197" y="472" on="1"/>
        <pt x="173" y="336" on="1"/>
        <pt x="358" y="336" on="1"/>
        <pt x="343" y="248" on="1"/>
        <pt x="157" y="248" on="1"/>
        <pt x="113" y="0" on="1"/>
        <pt x="21" y="0" on="1"/>
        <pt x="120" y="560" on="1"/>
        <pt x="452" y="560" on="1"/>
        <pt x="437" y="472" on="1"/>
      </contour>
    </TTGlyph>
    <TTGlyph name="G" xMin="47" yMin="-14" xMax="615" yMax="714">
      <contour>
        <pt x="299" y="-14" on="1"/>
        <pt x="242" y="-14" on="0"/>
        <pt x="149" y="27" on="0"/>
        <pt x="83" y="104" on="0"/>
        <pt x="47" y="212" on="0"/>
        <pt x="47" y="279" on="1"/>
        <pt x="47" y="375" on="0"/>
        <pt x="108" y="535" on="0"/>
        <pt x="213" y="650" on="0"/>
        <pt x="354" y="714" on="0"/>
        <pt x="434" y="714" on="1"/>
        <pt x="457" y="714" on="0"/>
        <pt x="508" y="708" on="0"/>
        <pt x="556" y="697" on="0"/>
        <pt x="599" y="683" on="0"/>
        <pt x="615" y="674" on="1"/>
        <pt x="591" y="591" on="1"/>
        <pt x="555" y="606" on="0"/>
        <pt x="465" y="628" on="0"/>
        <pt x="422" y="628" on="1"/>
        <pt x="355" y="628" on="0"/>
        <pt x="253" y="570" on="0"/>
        <pt x="185" y="474" on="0"/>
        <pt x="151" y="350" on="0"/>
        <pt x="151" y="285" on="1"/>
        <pt x="151" y="239" on="0"/>
        <pt x="173" y="161" on="0"/>
        <pt x="218" y="104" on="0"/>
        <pt x="288" y="72" on="0"/>
        <pt x="335" y="72" on="1"/>
        <pt x="355" y="72" on="0"/>
        <pt x="412" y="80" on="0"/>
        <pt x="438" y="91" on="1"/>
        <pt x="469" y="265" on="1"/>
        <pt x="379" y="265" on="1"/>
        <pt x="394" y="351" on="1"/>
        <pt x="579" y="351" on="1"/>
        <pt x="564" y="265" on="1"/>
        <pt x="524" y="39" on="1"/>
        <pt x="504" y="28" on="0"/>
        <pt x="449" y="9" on="0"/>
        <pt x="388" y="-6" on="0"/>
        <pt x="326" y="-14" on="0"/>
      </contour>
    </TTGlyph>
    <TTGlyph name="G.sc" xMin="35" yMin="-11" xMax="519" yMax="571">
      <contour>
        <pt x="254" y="-11" on="1"/>
        <pt x="205" y="-11" on="0"/>
        <pt x="124" y="23" on="0"/>
        <pt x="67" y="85" on="0"/>
        <pt x="35" y="173" on="0"/>
        <pt x="35" y="227" on="1"/>
        <pt x="35" y="303" on="0"/>
        <pt x="86" y="430" on="0"/>
        <pt x="175" y="521" on="0"/>
        <pt x="295" y="571" on="0"/>
        <pt x="363" y="571" on="1"/>
        <pt x="382" y="571" on="0"/>
        <pt x="426" y="566" on="0"/>
        <pt x="468" y="558" on="0"/>
        <pt x="505" y="546" on="0"/>
        <pt x="519" y="539" on="1"/>
        <pt x="494" y="452" on="1"/>
        <pt x="464" y="465" on="0"/>
        <pt x="386" y="483" on="0"/>
        <pt x="349" y="483" on="1"/>
        <pt x="296" y="483" on="0"/>
        <pt x="216" y="442" on="0"/>
        <pt x="163" y="374" on="0"/>
        <pt x="137" y="285" on="0"/>
        <pt x="137" y="237" on="1"/>
        <pt x="137" y="166" on="0"/>
        <pt x="209" y="77" on="0"/>
        <pt x="284" y="77" on="1"/>
        <pt x="301" y="77" on="0"/>
        <pt x="343" y="82" on="0"/>
        <pt x="364" y="88" on="1"/>
        <pt x="385" y="202" on="1"/>
        <pt x="319" y="202" on="1"/>
        <pt x="333" y="281" on="1"/>
        <pt x="491" y="281" on="1"/>
        <pt x="477" y="201" on="1"/>
        <pt x="447" y="31" on="1"/>
        <pt x="430" y="22" on="0"/>
        <pt x="383" y="7" on="0"/>
        <pt x="331" y="-4" on="0"/>
        <pt x="277" y="-11" on="0"/>
      </contour>
    </TTGlyph>
    <TTGlyph name="H" xMin="28" yMin="0" xMax="679" yMax="700">
      <contour>
        <pt x="460" y="0" on="1"/>
        <pt x="517" y="321" on="1"/>
        <pt x="180" y="321" on="1"/>
        <pt x="123" y="0" on="1"/>
        <pt x="28" y="0" on="1"/>
        <pt x="151" y="700" on="1"/>
        <pt x="246" y="700" on="1"/>
        <pt x="195" y="411" on="1"/>
        <pt x="533" y="411" on="1"/>
        <pt x="584" y="700" on="1"/>
        <pt x="679" y="700" on="1"/>
        <pt x="555" y="0" on="1"/>
      </contour>
    </TTGlyph>
    <TTGlyph name="H.sc" xMin="21" yMin="0" xMax="573" yMax="560">
      <contour>
        <pt x="382" y="0" on="1"/>
        <pt x="425" y="248" on="1"/>
        <pt x="157" y="248" on="1"/>
        <pt x="113" y="0" on="1"/>
        <pt x="21" y="0" on="1"/>
        <pt x="120" y="560" on="1"/>
        <pt x="212" y="560" on="1"/>
        <pt x="173" y="337" on="1"/>
        <pt x="441" y="337" on="1"/>
        <pt x="481" y="560" on="1"/>
        <pt x="573" y="560" on="1"/>
        <pt x="474" y="0" on="1"/>
      </contour>
    </TTGlyph>
    <TTGlyph name="I" xMin="28" yMin="0" xMax="246" yMax="700">
      <contour>
        <pt x="28" y="0" on="1"/>
        <pt x="151" y="700" on="1"/>
        <pt x="246" y="700" on="1"/>
        <pt x="123" y="0" on="1"/>
      </contour>
    </TTGlyph>
    <TTGlyph name="I.sc" xMin="21" yMin="0" xMax="212" yMax="560">
      <contour>
        <pt x="21" y="0" on="1"/>
        <pt x="120" y="560" on="1"/>
        <pt x="212" y="560" on="1"/>
        <pt x="113" y="0" on="1"/>
      </contour>
    </TTGlyph>
    <TTGlyph name="Iacute" xMin="28" yMin="0" xMax="327" yMax="942">
      <component glyphName="I" x="0" y="0" flags="0x204"/>
      <component glyphName="acute" x="-22" y="210" flags="0x4"/>
    </TTGlyph>
    <TTGlyph name="Icircumflex" xMin="28" yMin="0" xMax="359" yMax="955">
      <component glyphName="I" x="0" y="0" flags="0x204"/>
      <component glyphName="circumflex" x="-87" y="210" flags="0x4"/>
    </TTGlyph>
    <TTGlyph name="Idieresis" xMin="28" yMin="0" xMax="349" yMax="910">
      <component glyphName="I" x="0" y="0" flags="0x204"/>
      <component glyphName="dieresis" x="-76" y="210" flags="0x4"/>
    </TTGlyph>
    <TTGlyph name="Igrave" xMin="28" yMin="0" xMax="311" yMax="942">
      <component glyphName="I" x="0" y="0" flags="0x204"/>
      <component glyphName="grave" x="-22" y="210" flags="0x4"/>
    </TTGlyph>
    <TTGlyph name="J" xMin="-76" yMin="-172" xMax="247" yMax="700">
      <contour>
        <pt x="-76" y="-172" on="1"/>
        <pt x="-74" y="-116" on="1"/>
        <pt x="-65" y="-116" on="1"/>
        <pt x="-43" y="-116" on="0"/>
        <pt x="-12" y="-103" on="0"/>
        <pt x="9" y="-75" on="0"/>
        <pt x="23" y="-32" on="0"/>
        <pt x="28" y="-3" on="1"/>
        <pt x="152" y="700" on="1"/>
        <pt x="247" y="700" on="1"/>
        <pt x="118" y="-32" on="1"/>
        <pt x="106" y="-100" on="0"/>
        <pt x="20" y="-172" on="0"/>
        <pt x="-55" y="-172" on="1"/>
      </contour>
    </TTGlyph>
    <TTGlyph name="J.sc" xMin="-61" yMin="-138" xMax="212" yMax="560">
      <contour>
        <pt x="-61" y="-138" on="1"/>
        <pt x="-57" y="-72" on="1"/>
        <pt x="-41" y="-72" on="1"/>
        <pt x="-12" y="-72" on="0"/>
        <pt x="14" y="-37" on="0"/>
        <pt x="21" y="1" on="1"/>
        <pt x="120" y="560" on="1"/>
        <pt x="212" y="560" on="1"/>
        <pt x="109" y="-22" on="1"/>
        <pt x="99" y="-80" on="0"/>
        <pt x="23" y="-138" on="0"/>
        <pt x="-37" y="-138" on="1"/>
      </contour>
    </TTGlyph>
    <TTGlyph name="K" xMin="28" yMin="0" xMax="609" yMax="700">
      <contour>
        <pt x="383" y="0" on="1"/>
        <pt x="219" y="371" on="1"/>
        <pt x="506" y="700" on="1"/>
        <pt x="609" y="700" on="1"/>
        <pt x="322" y="371" on="1"/>
        <pt x="486" y="0" on="1"/>
      </contour>
      <contour>
        <pt x="28" y="0" on="1"/>
        <pt x="151" y="700" on="1"/>
        <pt x="246" y="700" on="1"/>
        <pt x="123" y="0" on="1"/>
      </contour>
    </TTGlyph>
    <TTGlyph name="K.sc" xMin="21" yMin="0" xMax="529" yMax="560">
      <contour>
        <pt x="328" y="0" on="1"/>
        <pt x="188" y="296" on="1"/>
        <pt x="426" y="560" on="1"/>
        <pt x="529" y="560" on="1"/>
        <pt x="291" y="296" on="1"/>
        <pt x="430" y="0" on="1"/>
      </contour>
      <contour>
        <pt x="21" y="0" on="1"/>
        <pt x="120" y="560" on="1"/>
        <pt x="212" y="560" on="1"/>
        <pt x="113" y="0" on="1"/>
      </contour>
    </TTGlyph>
    <TTGlyph name="L" xMin="28" yMin="0" xMax="418" yMax="700">
      <contour>
        <pt x="28" y="0" on="1"/>
        <pt x="151" y="700" on="1"/>
        <pt x="246" y="700" on="1"/>
        <pt x="138" y="86" on="1"/>
        <pt x="418" y="86" on="1"/>
        <pt x="402" y="0" on="1"/>
      </contour>
    </TTGlyph>
    <TTGlyph name="L.sc" xMin="21" yMin="0" xMax="359" yMax="560">
      <contour>
        <pt x="21" y="0" on="1"/>
        <pt x="120" y="560" on="1"/>
        <pt x="212" y="560" on="1"/>
        <pt x="129" y="88" on="1"/>
        <pt x="359" y="88" on="1"/>
        <pt x="343" y="0" on="1"/>
      </contour>
    </TTGlyph>
    <TTGlyph name="M" xMin="-3" yMin="0" xMax="694" yMax="700">
      <contour>
        <pt x="550" y="0" on="1"/>
        <pt x="589" y="512" on="1"/>
        <pt x="351" y="149" on="1"/>
        <pt x="238" y="512" on="1"/>
        <pt x="97" y="0" on="1"/>
        <pt x="-3" y="0" on="1"/>
        <pt x="200" y="700" on="1"/>
        <pt x="280" y="700" on="1"/>
        <pt x="383" y="336" on="1"/>
        <pt x="614" y="700" on="1"/>
        <pt x="694" y="700" on="1"/>
        <pt x="650" y="0" on="1"/>
      </contour>
    </TTGlyph>
    <TTGlyph name="M.sc" xMin="-5" yMin="0" xMax="590" yMax="560">
      <contour>
        <pt x="469" y="0" on="1"/>
        <pt x="491" y="392" on="1"/>
        <pt x="303" y="123" on="1"/>
        <pt x="208" y="392" on="1"/>
        <pt x="92" y="0" on="1"/>
        <pt x="-5" y="0" on="1"/>
        <pt x="168" y="560" on="1"/>
        <pt x="245" y="560" on="1"/>
        <pt x="334" y="297" on="1"/>
        <pt x="514" y="560" on="1"/>
        <pt x="590" y="560" on="1"/>
        <pt x="566" y="0" on="1"/>
      </contour>
    </TTGlyph>
    <TTGlyph name="N" xMin="28" yMin="0" xMax="644" yMax="700">
      <contour>
        <pt x="440" y="0" on="1"/>
        <pt x="221" y="553" on="1"/>
        <pt x="123" y="0" on="1"/>
        <pt x="28" y="0" on="1"/>
        <pt x="151" y="700" on="1"/>
        <pt x="251" y="700" on="1"/>
        <pt x="456" y="176" on="1"/>
        <pt x="548" y="700" on="1"/>
        <pt x="644" y="700" on="1"/>
        <pt x="520" y="0" on="1"/>
      </contour>
    </TTGlyph>
    <TTGlyph name="N.sc" xMin="21" yMin="0" xMax="546" yMax="560">
      <contour>
        <pt x="370" y="0" on="1"/>
        <pt x="185" y="405" on="1"/>
        <pt x="113" y="0" on="1"/>
        <pt x="21" y="0" on="1"/>
        <pt x="120" y="560" on="1"/>
        <pt x="212" y="560" on="1"/>
        <pt x="386" y="178" on="1"/>
        <pt x="453" y="560" on="1"/>
        <pt x="546" y="560" on="1"/>
        <pt x="447" y="0" on="1"/>
      </contour>
    </TTGlyph>
    <TTGlyph name="Ntilde" xMin="28" yMin="0" xMax="644" yMax="912">
      <component glyphName="N" x="0" y="0" flags="0x204"/>
      <component glyphName="tilde" x="73" y="210" flags="0x4"/>
    </TTGlyph>
    <TTGlyph name="O" xMin="46" yMin="-14" xMax="683" yMax="714">
      <contour>
        <pt x="300" y="-14" on="1"/>
        <pt x="242" y="-14" on="0"/>
        <pt x="148" y="27" on="0"/>
        <pt x="82" y="103" on="0"/>
        <pt x="46" y="211" on="0"/>
        <pt x="46" y="277" on="1"/>
        <pt x="46" y="374" on="0"/>
        <pt x="107" y="534" on="0"/>
        <pt x="211" y="650" on="0"/>
        <pt x="351" y="714" on="0"/>
        <pt x="429" y="714" on="1"/>
        <pt x="487" y="714" on="0"/>
        <pt x="581" y="673" on="0"/>
        <pt x="647" y="597" on="0"/>
        <pt x="683" y="489" on="0"/>
        <pt x="683" y="423" on="1"/>
        <pt x="683" y="326" on="0"/>
        <pt x="622" y="165" on="0"/>
        <pt x="517" y="50" on="0"/>
        <pt x="378" y="-14" on="0"/>
      </contour>
      <contour>
        <pt x="414" y="628" on="1"/>
        <pt x="352" y="628" on="0"/>
        <pt x="254" y="571" on="0"/>
        <pt x="186" y="475" on="0"/>
        <pt x="151" y="351" on="0"/>
        <pt x="151" y="285" on="1"/>
        <pt x="151" y="240" on="0"/>
        <pt x="171" y="162" on="0"/>
        <pt x="211" y="105" on="0"/>
        <pt x="274" y="72" on="0"/>
        <pt x="316" y="72" on="1"/>
        <pt x="378" y="72" on="0"/>
        <pt x="476" y="129" on="0"/>
        <pt x="543" y="225" on="0"/>
        <pt x="579" y="349" on="0"/>
        <pt x="579" y="415" on="1"/>
        <pt x="579" y="460" on="0"/>
        <pt x="559" y="538" on="0"/>
        <pt x="518" y="595" on="0"/>
        <pt x="456" y="628" on="0"/>
      </contour>
    </TTGlyph>
    <TTGlyph name="O.sc" xMin="34" yMin="-11" xMax="580" yMax="571">
      <contour>
        <pt x="256" y="-11" on="1"/>
        <pt x="205" y="-11" on="0"/>
        <pt x="123" y="23" on="0"/>
        <pt x="65" y="84" on="0"/>
        <pt x="34" y="172" on="0"/>
        <pt x="34" y="226" on="1"/>
        <pt x="34" y="302" on="0"/>
        <pt x="85" y="429" on="0"/>
        <pt x="174" y="521" on="0"/>
        <pt x="292" y="571" on="0"/>
        <pt x="358" y="571" on="1"/>
        <pt x="409" y="571" on="0"/>
        <pt x="491" y="537" on="0"/>
        <pt x="549" y="476" on="0"/>
        <pt x="580" y="388" on="0"/>
        <pt x="580" y="334" on="1"/>
        <pt x="580" y="257" on="0"/>
        <pt x="529" y="131" on="0"/>
        <pt x="440" y="39" on="0"/>
        <pt x="322" y="-11" on="0"/>
      </contour>
      <contour>
        <pt x="343" y="483" on="1"/>
        <pt x="293" y="483" on="0"/>
        <pt x="216" y="443" on="0"/>
        <pt x="164" y="374" on="0"/>
        <pt x="136" y="284" on="0"/>
        <pt x="136" y="235" on="1"/>
        <pt x="136" y="201" on="0"/>
        <pt x="152" y="143" on="0"/>
        <pt x="186" y="101" on="0"/>
        <pt x="236" y="77" on="0"/>
        <pt x="271" y="77" on="1"/>
        <pt x="320" y="77" on="0"/>
        <pt x="397" y="117" on="0"/>
        <pt x="450" y="186" on="0"/>
        <pt x="477" y="275" on="0"/>
        <pt x="477" y="325" on="1"/>
        <pt x="477" y="359" on="0"/>
        <pt x="461" y="417" on="0"/>
        <pt x="428" y="459" on="0"/>
        <pt x="377" y="483" on="0"/>
      </contour>
    </TTGlyph>
    <TTGlyph name="OE" xMin="47" yMin="-14" xMax="1003" yMax="714">
      <contour>
        <pt x="607" y="0" on="1"/>
        <pt x="512" y="0" on="1"/>
        <pt x="526" y="83" on="1"/>
        <pt x="460" y="29" on="0"/>
        <pt x="352" y="-14" on="0"/>
        <pt x="297" y="-14" on="1"/>
        <pt x="240" y="-14" on="0"/>
        <pt x="148" y="27" on="0"/>
        <pt x="82" y="103" on="0"/>
        <pt x="47" y="211" on="0"/>
        <pt x="47" y="277" on="1"/>
        <pt x="47" y="374" on="0"/>
        <pt x="107" y="534" on="0"/>
        <pt x="211" y="650" on="0"/>
        <pt x="349" y="714" on="0"/>
        <pt x="426" y="714" on="1"/>
        <pt x="481" y="714" on="0"/>
        <pt x="574" y="671" on="0"/>
        <pt x="620" y="617" on="1"/>
        <pt x="635" y="699" on="1"/>
        <pt x="1003" y="699" on="1"/>
        <pt x="988" y="614" on="1"/>
        <pt x="713" y="614" on="1"/>
        <pt x="677" y="409" on="1"/>
        <pt x="888" y="409" on="1"/>
        <pt x="873" y="323" on="1"/>
        <pt x="662" y="323" on="1"/>
        <pt x="620" y="86" on="1"/>
        <pt x="903" y="86" on="1"/>
        <pt x="888" y="0" on="1"/>
      </contour>
      <contour>
        <pt x="410" y="628" on="1"/>
        <pt x="347" y="628" on="0"/>
        <pt x="250" y="571" on="0"/>
        <pt x="184" y="475" on="0"/>
        <pt x="149" y="350" on="0"/>
        <pt x="149" y="283" on="1"/>
        <pt x="149" y="238" on="0"/>
        <pt x="168" y="160" on="0"/>
        <pt x="209" y="104" on="0"/>
        <pt x="270" y="72" on="0"/>
        <pt x="312" y="72" on="1"/>
        <pt x="375" y="72" on="0"/>
        <pt x="472" y="129" on="0"/>
        <pt x="538" y="225" on="0"/>
        <pt x="573" y="350" on="0"/>
        <pt x="573" y="417" on="1"/>
        <pt x="573" y="462" on="0"/>
        <pt x="553" y="540" on="0"/>
        <pt x="513" y="596" on="0"/>
        <pt x="452" y="628" on="0"/>
      </contour>
    </TTGlyph>
    <TTGlyph name="OE.sc" xMin="34" yMin="-11" xMax="851" yMax="571">
      <contour>
        <pt x="521" y="0" on="1"/>
        <pt x="427" y="0" on="1"/>
        <pt x="436" y="52" on="1"/>
        <pt x="391" y="20" on="0"/>
        <pt x="302" y="-11" on="0"/>
        <pt x="254" y="-11" on="1"/>
        <pt x="204" y="-11" on="0"/>
        <pt x="123" y="23" on="0"/>
        <pt x="65" y="84" on="0"/>
        <pt x="34" y="172" on="0"/>
        <pt x="34" y="226" on="1"/>
        <pt x="34" y="302" on="0"/>
        <pt x="85" y="429" on="0"/>
        <pt x="174" y="521" on="0"/>
        <pt x="291" y="571" on="0"/>
        <pt x="357" y="571" on="1"/>
        <pt x="451" y="571" on="0"/>
        <pt x="517" y="508" on="1"/>
        <pt x="526" y="560" on="1"/>
        <pt x="851" y="560" on="1"/>
        <pt x="836" y="472" on="1"/>
        <pt x="604" y="472" on="1"/>
        <pt x="580" y="336" on="1"/>
        <pt x="759" y="336" on="1"/>
        <pt x="743" y="248" on="1"/>
        <pt x="565" y="248" on="1"/>
        <pt x="537" y="88" on="1"/>
        <pt x="775" y="88" on="1"/>
        <pt x="760" y="0" on="1"/>
      </contour>
      <contour>
        <pt x="341" y="483" on="1"/>
        <pt x="291" y="483" on="0"/>
        <pt x="215" y="443" on="0"/>
        <pt x="162" y="375" on="0"/>
        <pt x="135" y="284" on="0"/>
        <pt x="135" y="234" on="1"/>
        <pt x="135" y="200" on="0"/>
        <pt x="151" y="142" on="0"/>
        <pt x="185" y="100" on="0"/>
        <pt x="235" y="77" on="0"/>
        <pt x="270" y="77" on="1"/>
        <pt x="319" y="77" on="0"/>
        <pt x="396" y="117" on="0"/>
        <pt x="449" y="185" on="0"/>
        <pt x="476" y="276" on="0"/>
        <pt x="476" y="326" on="1"/>
        <pt x="476" y="360" on="0"/>
        <pt x="459" y="418" on="0"/>
        <pt x="426" y="460" on="0"/>
        <pt x="375" y="483" on="0"/>
      </contour>
    </TTGlyph>
    <TTGlyph name="Oacute" xMin="46" yMin="-14" xMax="683" yMax="942">
      <component glyphName="O" x="0" y="0" flags="0x204"/>
      <component glyphName="acute" x="204" y="210" flags="0x4"/>
    </TTGlyph>
    <TTGlyph name="Ocircumflex" xMin="46" yMin="-14" xMax="683" yMax="955">
      <component glyphName="O" x="0" y="0" flags="0x204"/>
      <component glyphName="circumflex" x="139" y="210" flags="0x4"/>
    </TTGlyph>
    <TTGlyph name="Odieresis" xMin="46" yMin="-14" xMax="683" yMax="910">
      <component glyphName="O" x="0" y="0" flags="0x204"/>
      <component glyphName="dieresis" x="150" y="210" flags="0x4"/>
    </TTGlyph>
    <TTGlyph name="Ograve" xMin="46" yMin="-14" xMax="683" yMax="942">
      <component glyphName="O" x="0" y="0" flags="0x204"/>
      <component glyphName="grave" x="203" y="210" flags="0x4"/>
    </TTGlyph>
    <TTGlyph name="Oslash" xMin="12" yMin="-30" xMax="701" yMax="716">
      <contour>
        <pt x="301" y="-12" on="1"/>
        <pt x="261" y="-12" on="0"/>
        <pt x="189" y="8" on="0"/>
        <pt x="154" y="31" on="1"/>
        <pt x="108" y="-30" on="1"/>
        <pt x="12" y="-30" on="1"/>
        <pt x="99" y="75" on="1"/>
        <pt x="73" y="116" on="0"/>
        <pt x="47" y="222" on="0"/>
        <pt x="47" y="279" on="1"/>
        <pt x="47" y="375" on="0"/>
        <pt x="108" y="535" on="0"/>
        <pt x="212" y="650" on="0"/>
        <pt x="351" y="714" on="0"/>
        <pt x="429" y="714" on="1"/>
        <pt x="468" y="714" on="0"/>
        <pt x="538" y="695" on="0"/>
        <pt x="572" y="672" on="1"/>
        <pt x="606" y="716" on="1"/>
        <pt x="701" y="716" on="1"/>
        <pt x="628" y="627" on="1"/>
        <pt x="655" y="587" on="0"/>
        <pt x="684" y="480" on="0"/>
        <pt x="684" y="420" on="1"/>
        <pt x="684" y="324" on="0"/>
        <pt x="623" y="165" on="0"/>
        <pt x="519" y="51" on="0"/>
        <pt x="379" y="-12" on="0"/>
      </contour>
      <contour>
        <pt x="221" y="105" on="1"/>
        <pt x="247" y="88" on="0"/>
        <pt x="292" y="76" on="0"/>
        <pt x="317" y="76" on="1"/>
        <pt x="379" y="76" on="0"/>
        <pt x="476" y="133" on="0"/>
        <pt x="543" y="229" on="0"/>
        <pt x="578" y="355" on="0"/>
        <pt x="578" y="424" on="1"/>
        <pt x="578" y="453" on="0"/>
        <pt x="569" y="525" on="0"/>
        <pt x="558" y="548" on="1"/>
      </contour>
      <contour>
        <pt x="413" y="625" on="1"/>
        <pt x="351" y="625" on="0"/>
        <pt x="255" y="568" on="0"/>
        <pt x="189" y="474" on="0"/>
        <pt x="154" y="352" on="0"/>
        <pt x="154" y="287" on="1"/>
        <pt x="154" y="258" on="0"/>
        <pt x="162" y="189" on="0"/>
        <pt x="170" y="156" on="1"/>
        <pt x="506" y="597" on="1"/>
        <pt x="480" y="613" on="0"/>
        <pt x="438" y="625" on="0"/>
      </contour>
    </TTGlyph>
    <TTGlyph name="Otilde" xMin="46" yMin="-14" xMax="683" yMax="912">
      <component glyphName="O" x="0" y="0" flags="0x204"/>
      <component glyphName="tilde" x="102" y="210" flags="0x4"/>
    </TTGlyph>
    <TTGlyph name="P" xMin="28" yMin="0" xMax="549" yMax="700">
      <contour>
        <pt x="169" y="245" on="1"/>
        <pt x="126" y="0" on="1"/>
        <pt x="28" y="0" on="1"/>
        <pt x="151" y="700" on="1"/>
        <pt x="346" y="700" on="1"/>
        <pt x="390" y="700" on="0"/>
        <pt x="464" y="688" on="0"/>
        <pt x="518" y="653" on="0"/>
        <pt x="549" y="590" on="0"/>
        <pt x="549" y="538" on="1"/>
        <pt x="549" y="454" on="0"/>
        <pt x="498" y="341" on="0"/>
        <pt x="423" y="274" on="0"/>
        <pt x="335" y="245" on="0"/>
        <pt x="298" y="245" on="1"/>
      </contour>
      <contour>
        <pt x="235" y="615" on="1"/>
        <pt x="184" y="330" on="1"/>
        <pt x="297" y="330" on="1"/>
        <pt x="340" y="330" on="0"/>
        <pt x="398" y="360" on="0"/>
        <pt x="434" y="412" on="0"/>
        <pt x="449" y="480" on="0"/>
        <pt x="449" y="519" on="1"/>
        <pt x="449" y="571" on="0"/>
        <pt x="395" y="615" on="0"/>
        <pt x="330" y="615" on="1"/>
      </contour>
    </TTGlyph>
    <TTGlyph name="P.sc" xMin="21" yMin="0" xMax="473" yMax="560">
      <contour>
        <pt x="148" y="188" on="1"/>
        <pt x="115" y="0" on="1"/>
        <pt x="21" y="0" on="1"/>
        <pt x="120" y="560" on="1"/>
        <pt x="278" y="560" on="1"/>
        <pt x="323" y="560" on="0"/>
        <pt x="395" y="550" on="0"/>
        <pt x="446" y="522" on="0"/>
        <pt x="473" y="470" on="0"/>
        <pt x="473" y="428" on="1"/>
        <pt x="473" y="356" on="0"/>
        <pt x="427" y="263" on="0"/>
        <pt x="360" y="209" on="0"/>
        <pt x="282" y="188" on="0"/>
        <pt x="250" y="188" on="1"/>
      </contour>
      <contour>
        <pt x="200" y="481" on="1"/>
        <pt x="163" y="274" on="1"/>
        <pt x="252" y="274" on="1"/>
        <pt x="289" y="274" on="0"/>
        <pt x="337" y="293" on="0"/>
        <pt x="365" y="328" on="0"/>
        <pt x="377" y="378" on="0"/>
        <pt x="377" y="410" on="1"/>
        <pt x="377" y="447" on="0"/>
        <pt x="334" y="481" on="0"/>
        <pt x="281" y="481" on="1"/>
      </contour>
    </TTGlyph>
    <TTGlyph name="Q" xMin="46" yMin="-14" xMax="683" yMax="714">
      <contour>
        <pt x="553" y="3" on="1"/>
        <pt x="503" y="57" on="1"/>
        <pt x="453" y="20" on="0"/>
        <pt x="353" y="-14" on="0"/>
        <pt x="300" y="-14" on="1"/>
        <pt x="242" y="-14" on="0"/>
        <pt x="148" y="27" on="0"/>
        <pt x="82" y="103" on="0"/>
        <pt x="46" y="211" on="0"/>
        <pt x="46" y="277" on="1"/>
        <pt x="46" y="374" on="0"/>
        <pt x="107" y="534" on="0"/>
        <pt x="211" y="650" on="0"/>
        <pt x="351" y="714" on="0"/>
        <pt x="429" y="714" on="1"/>
        <pt x="487" y="714" on="0"/>
        <pt x="581" y="673" on="0"/>
        <pt x="647" y="597" on="0"/>
        <pt x="683" y="489" on="0"/>
        <pt x="683" y="423" on="1"/>
        <pt x="683" y="340" on="0"/>
        <pt x="629" y="192" on="0"/>
        <pt x="570" y="111" on="1"/>
        <pt x="616" y="62" on="1"/>
      </contour>
      <contour>
        <pt x="414" y="628" on="1"/>
        <pt x="351" y="628" on="0"/>
        <pt x="253" y="571" on="0"/>
        <pt x="186" y="475" on="0"/>
        <pt x="151" y="351" on="0"/>
        <pt x="151" y="284" on="1"/>
        <pt x="151" y="239" on="0"/>
        <pt x="170" y="161" on="0"/>
        <pt x="211" y="104" on="0"/>
        <pt x="273" y="72" on="0"/>
        <pt x="316" y="72" on="1"/>
        <pt x="345" y="72" on="0"/>
        <pt x="412" y="87" on="0"/>
        <pt x="444" y="112" on="1"/>
        <pt x="371" y="196" on="1"/>
        <pt x="434" y="257" on="1"/>
        <pt x="507" y="164" on="1"/>
        <pt x="524" y="190" on="0"/>
        <pt x="552" y="241" on="0"/>
        <pt x="573" y="299" on="0"/>
        <pt x="584" y="368" on="0"/>
        <pt x="584" y="413" on="1"/>
        <pt x="584" y="459" on="0"/>
        <pt x="563" y="537" on="0"/>
        <pt x="521" y="595" on="0"/>
        <pt x="457" y="628" on="0"/>
      </contour>
    </TTGlyph>
    <TTGlyph name="Q.sc" xMin="34" yMin="-11" xMax="580" yMax="571">
      <contour>
        <pt x="468" y="-4" on="1"/>
        <pt x="423" y="40" on="1"/>
        <pt x="385" y="14" on="0"/>
        <pt x="301" y="-11" on="0"/>
        <pt x="256" y="-11" on="1"/>
        <pt x="205" y="-11" on="0"/>
        <pt x="123" y="23" on="0"/>
        <pt x="65" y="84" on="0"/>
        <pt x="34" y="172" on="0"/>
        <pt x="34" y="226" on="1"/>
        <pt x="34" y="302" on="0"/>
        <pt x="85" y="429" on="0"/>
        <pt x="174" y="521" on="0"/>
        <pt x="292" y="571" on="0"/>
        <pt x="358" y="571" on="1"/>
        <pt x="409" y="571" on="0"/>
        <pt x="491" y="537" on="0"/>
        <pt x="549" y="476" on="0"/>
        <pt x="580" y="388" on="0"/>
        <pt x="580" y="334" on="1"/>
        <pt x="580" y="267" on="0"/>
        <pt x="534" y="153" on="0"/>
        <pt x="491" y="99" on="1"/>
        <pt x="532" y="58" on="1"/>
      </contour>
      <contour>
        <pt x="343" y="483" on="1"/>
        <pt x="293" y="483" on="0"/>
        <pt x="216" y="443" on="0"/>
        <pt x="164" y="375" on="0"/>
        <pt x="136" y="284" on="0"/>
        <pt x="136" y="234" on="1"/>
        <pt x="136" y="200" on="0"/>
        <pt x="153" y="142" on="0"/>
        <pt x="186" y="100" on="0"/>
        <pt x="237" y="77" on="0"/>
        <pt x="271" y="77" on="1"/>
        <pt x="294" y="77" on="0"/>
        <pt x="341" y="87" on="0"/>
        <pt x="362" y="100" on="1"/>
        <pt x="304" y="160" on="1"/>
        <pt x="368" y="224" on="1"/>
        <pt x="428" y="159" on="1"/>
        <pt x="438" y="174" on="0"/>
        <pt x="456" y="205" on="0"/>
        <pt x="470" y="243" on="0"/>
        <pt x="479" y="292" on="0"/>
        <pt x="479" y="325" on="1"/>
        <pt x="479" y="394" on="0"/>
        <pt x="412" y="483" on="0"/>
      </contour>
    </TTGlyph>
    <TTGlyph name="R" xMin="28" yMin="0" xMax="551" yMax="700">
      <contour>
        <pt x="390" y="0" on="1"/>
        <pt x="302" y="273" on="1"/>
        <pt x="174" y="273" on="1"/>
        <pt x="126" y="0" on="1"/>
        <pt x="28" y="0" on="1"/>
        <pt x="151" y="700" on="1"/>
        <pt x="364" y="700" on="1"/>
        <pt x="406" y="700" on="0"/>
        <pt x="474" y="684" on="0"/>
        <pt x="524" y="647" on="0"/>
        <pt x="551" y="587" on="0"/>
        <pt x="551" y="542" on="1"/>
        <pt x="551" y="457" on="0"/>
        <pt x="464" y="332" on="0"/>
        <pt x="398" y="298" on="1"/>
        <pt x="491" y="0" on="1"/>
      </contour>
      <contour>
        <pt x="236" y="623" on="1"/>
        <pt x="190" y="365" on="1"/>
        <pt x="310" y="365" on="1"/>
        <pt x="340" y="365" on="0"/>
        <pt x="391" y="382" on="0"/>
        <pt x="428" y="421" on="0"/>
        <pt x="450" y="481" on="0"/>
        <pt x="450" y="525" on="1"/>
        <pt x="450" y="571" on="0"/>
        <pt x="399" y="623" on="0"/>
        <pt x="342" y="623" on="1"/>
      </contour>
    </TTGlyph>
    <TTGlyph name="R.sc" xMin="21" yMin="0" xMax="474" yMax="560">
      <contour>
        <pt x="333" y="0" on="1"/>
        <pt x="256" y="212" on="1"/>
        <pt x="152" y="212" on="1"/>
        <pt x="115" y="0" on="1"/>
        <pt x="21" y="0" on="1"/>
        <pt x="120" y="560" on="1"/>
        <pt x="312" y="560" on="1"/>
        <pt x="347" y="560" on="0"/>
        <pt x="407" y="547" on="0"/>
        <pt x="450" y="517" on="0"/>
        <pt x="474" y="467" on="0"/>
        <pt x="474" y="431" on="1"/>
        <pt x="474" y="394" on="0"/>
        <pt x="455" y="334" on="0"/>
        <pt x="421" y="287" on="0"/>
        <pt x="375" y="250" on="0"/>
        <pt x="348" y="236" on="1"/>
        <pt x="430" y="0" on="1"/>
      </contour>
      <contour>
        <pt x="200" y="483" on="1"/>
        <pt x="168" y="300" on="1"/>
        <pt x="251" y="300" on="1"/>
        <pt x="288" y="300" on="0"/>
        <pt x="337" y="317" on="0"/>
        <pt x="364" y="347" on="0"/>
        <pt x="375" y="389" on="0"/>
        <pt x="375" y="414" on="1"/>
        <pt x="375" y="446" on="0"/>
        <pt x="334" y="483" on="0"/>
        <pt x="281" y="483" on="1"/>
      </contour>
    </TTGlyph>
    <TTGlyph name="S" xMin="6" yMin="-14" xMax="534" yMax="714">
      <contour>
        <pt x="205" y="-14" on="1"/>
        <pt x="142" y="-14" on="0"/>
        <pt x="35" y="11" on="0"/>
        <pt x="6" y="31" on="1"/>
        <pt x="38" y="142" on="1"/>
        <pt x="67" y="109" on="0"/>
        <pt x="164" y="72" on="0"/>
        <pt x="224" y="72" on="1"/>
        <pt x="295" y="72" on="0"/>
        <pt x="381" y="139" on="0"/>
        <pt x="381" y="195" on="1"/>
        <pt x="381" y="217" on="0"/>
        <pt x="361" y="249" on="0"/>
        <pt x="326" y="277" on="0"/>
        <pt x="276" y="302" on="0"/>
        <pt x="246" y="317" on="1"/>
        <pt x="209" y="335" on="0"/>
        <pt x="148" y="368" on="0"/>
        <pt x="103" y="406" on="0"/>
        <pt x="78" y="453" on="0"/>
        <pt x="78" y="485" on="1"/>
        <pt x="78" y="533" on="0"/>
        <pt x="114" y="617" on="0"/>
        <pt x="183" y="678" on="0"/>
        <pt x="281" y="714" on="0"/>
        <pt x="343" y="714" on="1"/>
        <pt x="370" y="714" on="0"/>
        <pt x="426" y="707" on="0"/>
        <pt x="477" y="694" on="0"/>
        <pt x="520" y="676" on="0"/>
        <pt x="534" y="666" on="1"/>
        <pt x="504" y="569" on="1"/>
        <pt x="456" y="601" on="0"/>
        <pt x="375" y="628" on="0"/>
        <pt x="334" y="628" on="1"/>
        <pt x="305" y="628" on="0"/>
        <pt x="250" y="611" on="0"/>
        <pt x="208" y="579" on="0"/>
        <pt x="183" y="536" on="0"/>
        <pt x="183" y="510" on="1"/>
        <pt x="183" y="490" on="0"/>
        <pt x="201" y="460" on="0"/>
        <pt x="233" y="437" on="0"/>
        <pt x="274" y="418" on="0"/>
        <pt x="297" y="408" on="1"/>
        <pt x="335" y="391" on="0"/>
        <pt x="405" y="358" on="0"/>
        <pt x="458" y="315" on="0"/>
        <pt x="489" y="257" on="0"/>
        <pt x="489" y="216" on="1"/>
        <pt x="489" y="165" on="0"/>
        <pt x="459" y="80" on="0"/>
        <pt x="391" y="19" on="0"/>
        <pt x="283" y="-14" on="0"/>
      </contour>
    </TTGlyph>
    <TTGlyph name="S.sc" xMin="5" yMin="-11" xMax="453" yMax="571">
      <contour>
        <pt x="177" y="-11" on="1"/>
        <pt x="116" y="-11" on="0"/>
        <pt x="26" y="13" on="0"/>
        <pt x="5" y="28" on="1"/>
        <pt x="35" y="135" on="1"/>
        <pt x="55" y="113" on="0"/>
        <pt x="135" y="77" on="0"/>
        <pt x="195" y="77" on="1"/>
        <pt x="246" y="77" on="0"/>
        <pt x="313" y="113" on="0"/>
        <pt x="313" y="158" on="1"/>
        <pt x="313" y="177" on="0"/>
        <pt x="295" y="205" on="0"/>
        <pt x="264" y="226" on="0"/>
        <pt x="223" y="243" on="0"/>
        <pt x="201" y="251" on="1"/>
        <pt x="175" y="260" on="0"/>
        <pt x="125" y="281" on="0"/>
        <pt x="86" y="311" on="0"/>
        <pt x="61" y="354" on="0"/>
        <pt x="61" y="384" on="1"/>
        <pt x="61" y="412" on="0"/>
        <pt x="86" y="478" on="0"/>
        <pt x="140" y="534" on="0"/>
        <pt x="227" y="571" on="0"/>
        <pt x="289" y="571" on="1"/>
        <pt x="344" y="571" on="0"/>
        <pt x="434" y="544" on="0"/>
        <pt x="453" y="530" on="1"/>
        <pt x="427" y="434" on="1"/>
        <pt x="389" y="457" on="0"/>
        <pt x="317" y="484" on="0"/>
        <pt x="278" y="484" on="1"/>
        <pt x="259" y="484" on="0"/>
        <pt x="218" y="477" on="0"/>
        <pt x="183" y="459" on="0"/>
        <pt x="160" y="430" on="0"/>
        <pt x="160" y="408" on="1"/>
        <pt x="160" y="393" on="0"/>
        <pt x="176" y="370" on="0"/>
        <pt x="202" y="352" on="0"/>
        <pt x="237" y="338" on="0"/>
        <pt x="257" y="331" on="1"/>
        <pt x="285" y="322" on="0"/>
        <pt x="342" y="299" on="0"/>
        <pt x="388" y="265" on="0"/>
        <pt x="418" y="214" on="0"/>
        <pt x="418" y="176" on="1"/>
        <pt x="418" y="143" on="0"/>
        <pt x="394" y="76" on="0"/>
        <pt x="339" y="22" on="0"/>
        <pt x="246" y="-11" on="0"/>
      </contour>
    </TTGlyph>
    <TTGlyph name="Scaron" xMin="6" yMin="-14" xMax="534" yMax="950">
      <component glyphName="S" x="0" y="0" flags="0x204"/>
      <component glyphName="caron" x="54" y="210" flags="0x4"/>
    </TTGlyph>
    <TTGlyph name="T" xMin="87" yMin="0" xMax="561" yMax="700">
      <contour>
        <pt x="364" y="614" on="1"/>
        <pt x="256" y="0" on="1"/>
        <pt x="161" y="0" on="1"/>
        <pt x="269" y="614" on="1"/>
        <pt x="87" y="614" on="1"/>
        <pt x="102" y="700" on="1"/>
        <pt x="561" y="700" on="1"/>
        <pt x="546" y="614" on="1"/>
      </contour>
    </TTGlyph>
    <TTGlyph name="T.sc" xMin="60" yMin="0" xMax="477" yMax="560">
      <contour>
        <pt x="307" y="472" on="1"/>
        <pt x="224" y="0" on="1"/>
        <pt x="131" y="0" on="1"/>
        <pt x="214" y="472" on="1"/>
        <pt x="60" y="472" on="1"/>
        <pt x="76" y="560" on="1"/>
        <pt x="477" y="560" on="1"/>
        <pt x="462" y="472" on="1"/>
      </contour>
    </TTGlyph>
    <TTGlyph name="Thorn" xMin="28" yMin="0" xMax="528" yMax="700">
      <contour>
        <pt x="148" y="125" on="1"/>
        <pt x="126" y="0" on="1"/>
        <pt x="28" y="0" on="1"/>
        <pt x="151" y="700" on="1"/>
        <pt x="249" y="700" on="1"/>
        <pt x="228" y="580" on="1"/>
        <pt x="324" y="580" on="1"/>
        <pt x="368" y="580" on="0"/>
        <pt x="443" y="568" on="0"/>
        <pt x="497" y="533" on="0"/>
        <pt x="528" y="470" on="0"/>
        <pt x="528" y="418" on="1"/>
        <pt x="528" y="334" on="0"/>
        <pt x="477" y="221" on="0"/>
        <pt x="402" y="154" on="0"/>
        <pt x="314" y="125" on="0"/>
        <pt x="277" y="125" on="1"/>
      </contour>
      <contour>
        <pt x="213" y="495" on="1"/>
        <pt x="163" y="210" on="1"/>
        <pt x="276" y="210" on="1"/>
        <pt x="319" y="210" on="0"/>
        <pt x="377" y="240" on="0"/>
        <pt x="413" y="292" on="0"/>
        <pt x="428" y="360" on="0"/>
        <pt x="428" y="399" on="1"/>
        <pt x="428" y="451" on="0"/>
        <pt x="374" y="495" on="0"/>
        <pt x="308" y="495" on="1"/>
      </contour>
    </TTGlyph>
    <TTGlyph name="U" xMin="65" yMin="-14" xMax="667" yMax="700">
      <contour>
        <pt x="280" y="-14" on="1"/>
        <pt x="169" y="-14" on="0"/>
        <pt x="65" y="101" on="0"/>
        <pt x="65" y="204" on="1"/>
        <pt x="65" y="247" on="0"/>
        <pt x="74" y="297" on="1"/>
        <pt x="145" y="700" on="1"/>
        <pt x="240" y="700" on="1"/>
        <pt x="177" y="343" on="1"/>
        <pt x="172" y="313" on="0"/>
        <pt x="165" y="256" on="0"/>
        <pt x="165" y="229" on="1"/>
        <pt x="165" y="196" on="0"/>
        <pt x="177" y="138" on="0"/>
        <pt x="207" y="96" on="0"/>
        <pt x="257" y="72" on="0"/>
        <pt x="295" y="72" on="1"/>
        <pt x="348" y="72" on="0"/>
        <pt x="421" y="118" on="0"/>
        <pt x="471" y="194" on="0"/>
        <pt x="500" y="292" on="0"/>
        <pt x="509" y="343" on="1"/>
        <pt x="572" y="700" on="1"/>
        <pt x="667" y="700" on="1"/>
        <pt x="596" y="297" on="1"/>
        <pt x="583" y="225" on="0"/>
        <pt x="531" y="110" on="0"/>
        <pt x="452" y="29" on="0"/>
        <pt x="346" y="-14" on="0"/>
      </contour>
    </TTGlyph>
    <TTGlyph name="U.sc" xMin="51" yMin="-11" xMax="563" yMax="560">
      <contour>
        <pt x="238" y="-11" on="1"/>
        <pt x="142" y="-11" on="0"/>
        <pt x="51" y="85" on="0"/>
        <pt x="51" y="169" on="1"/>
        <pt x="51" y="204" on="0"/>
        <pt x="58" y="239" on="1"/>
        <pt x="115" y="560" on="1"/>
        <pt x="206" y="560" on="1"/>
        <pt x="156" y="274" on="1"/>
        <pt x="152" y="253" on="0"/>
        <pt x="148" y="213" on="0"/>
        <pt x="148" y="194" on="1"/>
        <pt x="148" y="168" on="0"/>
        <pt x="158" y="126" on="0"/>
        <pt x="182" y="94" on="0"/>
        <pt x="223" y="77" on="0"/>
        <pt x="254" y="77" on="1"/>
        <pt x="295" y="77" on="0"/>
        <pt x="352" y="109" on="0"/>
        <pt x="390" y="163" on="0"/>
        <pt x="413" y="234" on="0"/>
        <pt x="420" y="274" on="1"/>
        <pt x="470" y="560" on="1"/>
        <pt x="563" y="560" on="1"/>
        <pt x="506" y="239" on="1"/>
        <pt x="496" y="182" on="0"/>
        <pt x="453" y="90" on="0"/>
        <pt x="386" y="24" on="0"/>
        <pt x="295" y="-11" on="0"/>
      </contour>
    </TTGlyph>
    <TTGlyph name="Uacute" xMin="65" yMin="-14" xMax="667" yMax="942">
      <component glyphName="U" x="0" y="0" flags="0x204"/>
      <component glyphName="acute" x="183" y="210" flags="0x4"/>
    </TTGlyph>
    <TTGlyph name="Ucircumflex" xMin="65" yMin="-14" xMax="667" yMax="955">
      <component glyphName="U" x="0" y="0" flags="0x204"/>
      <component glyphName="circumflex" x="118" y="210" flags="0x4"/>
    </TTGlyph>
    <TTGlyph name="Udieresis" xMin="65" yMin="-14" xMax="667" yMax="910">
      <component glyphName="U" x="0" y="0" flags="0x204"/>
      <component glyphName="dieresis" x="129" y="210" flags="0x4"/>
    </TTGlyph>
    <TTGlyph name="Ugrave" xMin="65" yMin="-14" xMax="667" yMax="942">
      <component glyphName="U" x="0" y="0" flags="0x204"/>
      <component glyphName="grave" x="181" y="210" flags="0x4"/>
    </TTGlyph>
    <TTGlyph name="V" xMin="75" yMin="0" xMax="653" yMax="700">
      <contour>
        <pt x="294" y="0" on="1"/>
        <pt x="188" y="0" on="1"/>
        <pt x="75" y="700" on="1"/>
        <pt x="175" y="700" on="1"/>
        <pt x="261" y="109" on="1"/>
        <pt x="553" y="700" on="1"/>
        <pt x="653" y="700" on="1"/>
      </contour>
    </TTGlyph>
    <TTGlyph name="V.sc" xMin="52" yMin="0" xMax="555" yMax="560">
      <contour>
        <pt x="261" y="0" on="1"/>
        <pt x="152" y="0" on="1"/>
        <pt x="52" y="560" on="1"/>
        <pt x="149" y="560" on="1"/>
        <pt x="227" y="118" on="1"/>
        <pt x="458" y="560" on="1"/>
        <pt x="555" y="560" on="1"/>
      </contour>
    </TTGlyph>
    <TTGlyph name="W" xMin="93" yMin="0" xMax="945" yMax="700">
      <contour>
        <pt x="637" y="0" on="1"/>
        <pt x="541" y="0" on="1"/>
        <pt x="496" y="574" on="1"/>
        <pt x="245" y="0" on="1"/>
        <pt x="146" y="0" on="1"/>
        <pt x="93" y="700" on="1"/>
        <pt x="193" y="700" on="1"/>
        <pt x="222" y="118" on="1"/>
        <pt x="477" y="686" on="1"/>
        <pt x="556" y="686" on="1"/>
        <pt x="608" y="119" on="1"/>
        <pt x="846" y="700" on="1"/>
        <pt x="945" y="700" on="1"/>
      </contour>
    </TTGlyph>
    <TTGlyph name="W.sc" xMin="69" yMin="0" xMax="802" yMax="560">
      <contour>
        <pt x="544" y="0" on="1"/>
        <pt x="458" y="0" on="1"/>
        <pt x="408" y="404" on="1"/>
        <pt x="213" y="0" on="1"/>
        <pt x="123" y="0" on="1"/>
        <pt x="69" y="560" on="1"/>
        <pt x="166" y="560" on="1"/>
        <pt x="202" y="135" on="1"/>
        <pt x="400" y="556" on="1"/>
        <pt x="468" y="556" on="1"/>
        <pt x="524" y="142" on="1"/>
        <pt x="705" y="560" on="1"/>
        <pt x="802" y="560" on="1"/>
      </contour>
    </TTGlyph>
    <TTGlyph name="X" xMin="-39" yMin="0" xMax="619" yMax="700">
      <contour>
        <pt x="397" y="0" on="1"/>
        <pt x="274" y="286" on="1"/>
        <pt x="65" y="0" on="1"/>
        <pt x="-39" y="0" on="1"/>
        <pt x="237" y="349" on="1"/>
        <pt x="88" y="700" on="1"/>
        <pt x="198" y="700" on="1"/>
        <pt x="306" y="427" on="1"/>
        <pt x="516" y="700" on="1"/>
        <pt x="619" y="700" on="1"/>
        <pt x="340" y="361" on="1"/>
        <pt x="500" y="0" on="1"/>
      </contour>
    </TTGlyph>
    <TTGlyph name="X.sc" xMin="-35" yMin="0" xMax="534" yMax="560">
      <contour>
        <pt x="338" y="0" on="1"/>
        <pt x="239" y="214" on="1"/>
        <pt x="70" y="0" on="1"/>
        <pt x="-35" y="0" on="1"/>
        <pt x="203" y="279" on="1"/>
        <pt x="70" y="560" on="1"/>
        <pt x="177" y="560" on="1"/>
        <pt x="270" y="355" on="1"/>
        <pt x="430" y="560" on="1"/>
        <pt x="534" y="560" on="1"/>
        <pt x="305" y="290" on="1"/>
        <pt x="444" y="0" on="1"/>
      </contour>
    </TTGlyph>
    <TTGlyph name="Y" xMin="78" yMin="0" xMax="604" yMax="700">
      <contour>
        <pt x="324" y="323" on="1"/>
        <pt x="267" y="0" on="1"/>
        <pt x="169" y="0" on="1"/>
        <pt x="226" y="323" on="1"/>
        <pt x="78" y="700" on="1"/>
        <pt x="178" y="700" on="1"/>
        <pt x="290" y="409" on="1"/>
        <pt x="504" y="700" on="1"/>
        <pt x="604" y="700" on="1"/>
      </contour>
    </TTGlyph>
    <TTGlyph name="Y.sc" xMin="53" yMin="0" xMax="519" yMax="560">
      <contour>
        <pt x="278" y="252" on="1"/>
        <pt x="234" y="0" on="1"/>
        <pt x="140" y="0" on="1"/>
        <pt x="185" y="252" on="1"/>
        <pt x="53" y="560" on="1"/>
        <pt x="151" y="560" on="1"/>
        <pt x="246" y="335" on="1"/>
        <pt x="421" y="560" on="1"/>
        <pt x="519" y="560" on="1"/>
      </contour>
    </TTGlyph>
    <TTGlyph name="Yacute" xMin="78" yMin="0" xMax="604" yMax="942">
      <component glyphName="Y" x="0" y="0" flags="0x204"/>
      <component glyphName="acute" x="126" y="210" flags="0x4"/>
    </TTGlyph>
    <TTGlyph name="Ydieresis" xMin="78" yMin="0" xMax="604" yMax="910">
      <component glyphName="Y" x="0" y="0" flags="0x204"/>
      <component glyphName="dieresis" x="73" y="210" flags="0x4"/>
    </TTGlyph>
    <TTGlyph name="Z" xMin="-41" yMin="0" xMax="562" yMax="700">
      <contour>
        <pt x="130" y="86" on="1"/>
        <pt x="413" y="86" on="1"/>
        <pt x="398" y="0" on="1"/>
        <pt x="-41" y="0" on="1"/>
        <pt x="390" y="614" on="1"/>
        <pt x="108" y="614" on="1"/>
        <pt x="123" y="700" on="1"/>
        <pt x="562" y="700" on="1"/>
      </contour>
    </TTGlyph>
    <TTGlyph name="Z.sc" xMin="-33" yMin="0" xMax="478" yMax="560">
      <contour>
        <pt x="135" y="88" on="1"/>
        <pt x="360" y="88" on="1"/>
        <pt x="345" y="0" on="1"/>
        <pt x="-33" y="0" on="1"/>
        <pt x="310" y="472" on="1"/>
        <pt x="85" y="472" on="1"/>
        <pt x="101" y="560" on="1"/>
        <pt x="478" y="560" on="1"/>
      </contour>
    </TTGlyph>
    <TTGlyph name="Zcaron" xMin="-41" yMin="0" xMax="562" yMax="950">
      <component glyphName="Z" x="0" y="0" flags="0x204"/>
      <component glyphName="caron" x="40" y="210" flags="0x4"/>
    </TTGlyph>
    <TTGlyph name="a" xMin="21" yMin="-10" xMax="492" yMax="500">
      <contour>
        <pt x="433" y="143" on="1"/>
        <pt x="431" y="131" on="0"/>
        <pt x="429" y="111" on="0"/>
        <pt x="429" y="104" on="1"/>
        <pt x="429" y="80" on="0"/>
        <pt x="450" y="62" on="0"/>
        <pt x="476" y="62" on="1"/>
        <pt x="451" y="-10" on="1"/>
        <pt x="430" y="-10" on="0"/>
        <pt x="393" y="-7" on="0"/>
        <pt x="363" y="7" on="0"/>
        <pt x="342" y="36" on="0"/>
        <pt x="337" y="62" on="1"/>
        <pt x="307" y="27" on="0"/>
        <pt x="224" y="-10" on="0"/>
        <pt x="184" y="-10" on="1"/>
        <pt x="147" y="-10" on="0"/>
        <pt x="87" y="21" on="0"/>
        <pt x="44" y="77" on="0"/>
        <pt x="21" y="152" on="0"/>
        <pt x="21" y="196" on="1"/>
        <pt x="21" y="253" on="0"/>
        <pt x="59" y="363" on="0"/>
        <pt x="128" y="448" on="0"/>
        <pt x="223" y="500" on="0"/>
        <pt x="279" y="500" on="1"/>
        <pt x="310" y="500" on="0"/>
        <pt x="373" y="476" on="0"/>
        <pt x="393" y="438" on="1"/>
        <pt x="412" y="490" on="1"/>
        <pt x="492" y="490" on="1"/>
      </contour>
      <contour>
        <pt x="269" y="420" on="1"/>
        <pt x="236" y="420" on="0"/>
        <pt x="180" y="385" on="0"/>
        <pt x="138" y="326" on="0"/>
        <pt x="115" y="248" on="0"/>
        <pt x="115" y="205" on="1"/>
        <pt x="115" y="177" on="0"/>
        <pt x="126" y="128" on="0"/>
        <pt x="150" y="91" on="0"/>
        <pt x="188" y="70" on="0"/>
        <pt x="214" y="70" on="1"/>
        <pt x="242" y="70" on="0"/>
        <pt x="299" y="97" on="0"/>
        <pt x="343" y="149" on="0"/>
        <pt x="371" y="226" on="0"/>
        <pt x="371" y="277" on="1"/>
        <pt x="371" y="352" on="0"/>
        <pt x="313" y="420" on="0"/>
      </contour>
    </TTGlyph>
    <TTGlyph name="aacute" xMin="21" yMin="-10" xMax="492" yMax="732">
      <component glyphName="a" x="0" y="0" flags="0x204"/>
      <component glyphName="acute" x="118" y="0" flags="0x4"/>
    </TTGlyph>
    <TTGlyph name="acircumflex" xMin="21" yMin="-10" xMax="499" yMax="745">
      <component glyphName="a" x="0" y="0" flags="0x204"/>
      <component glyphName="circumflex" x="53" y="0" flags="0x4"/>
    </TTGlyph>
    <TTGlyph name="acute" xMin="157" yMin="596" xMax="349" yMax="732">
      <contour>
        <pt x="157" y="596" on="1"/>
        <pt x="164" y="637" on="1"/>
        <pt x="349" y="732" on="1"/>
        <pt x="337" y="660" on="1"/>
      </contour>
    </TTGlyph>
    <TTGlyph name="adieresis" xMin="21" yMin="-10" xMax="492" yMax="700">
      <component glyphName="a" x="0" y="0" flags="0x204"/>
      <component glyphName="dieresis" x="64" y="0" flags="0x4"/>
    </TTGlyph>
    <TTGlyph name="ae" xMin="-8" yMin="-14" xMax="703" yMax="500">
      <contour>
        <pt x="387" y="245" on="1"/>
        <pt x="385" y="232" on="0"/>
        <pt x="383" y="209" on="0"/>
        <pt x="383" y="198" on="1"/>
        <pt x="383" y="129" on="0"/>
        <pt x="446" y="62" on="0"/>
        <pt x="497" y="62" on="1"/>
        <pt x="529" y="62" on="0"/>
        <pt x="593" y="82" on="0"/>
        <pt x="630" y="99" on="1"/>
        <pt x="630" y="30" on="1"/>
        <pt x="596" y="13" on="0"/>
        <pt x="521" y="-10" on="0"/>
        <pt x="475" y="-10" on="1"/>
        <pt x="409" y="-10" on="0"/>
        <pt x="328" y="42" on="0"/>
        <pt x="314" y="103" on="1"/>
        <pt x="279" y="44" on="0"/>
        <pt x="174" y="-14" on="0"/>
        <pt x="111" y="-14" on="1"/>
        <pt x="51" y="-14" on="0"/>
        <pt x="-8" y="44" on="0"/>
        <pt x="-8" y="93" on="1"/>
        <pt x="-8" y="136" on="0"/>
        <pt x="21" y="201" on="0"/>
        <pt x="69" y="247" on="0"/>
        <pt x="132" y="277" on="0"/>
        <pt x="199" y="296" on="0"/>
        <pt x="266" y="305" on="0"/>
        <pt x="294" y="307" on="1"/>
        <pt x="295" y="314" on="0"/>
        <pt x="295" y="326" on="0"/>
        <pt x="295" y="332" on="1"/>
        <pt x="295" y="379" on="0"/>
        <pt x="259" y="420" on="0"/>
        <pt x="215" y="420" on="1"/>
        <pt x="186" y="420" on="0"/>
        <pt x="130" y="405" on="0"/>
        <pt x="96" y="391" on="1"/>
        <pt x="100" y="461" on="1"/>
        <pt x="184" y="500" on="0"/>
        <pt x="255" y="500" on="1"/>
        <pt x="274" y="500" on="0"/>
        <pt x="316" y="491" on="0"/>
        <pt x="351" y="465" on="0"/>
        <pt x="374" y="418" on="0"/>
        <pt x="374" y="380" on="1"/>
        <pt x="388" y="413" on="0"/>
        <pt x="430" y="459" on="0"/>
        <pt x="479" y="488" on="0"/>
        <pt x="533" y="500" on="0"/>
        <pt x="560" y="500" on="1"/>
        <pt x="626" y="500" on="0"/>
        <pt x="703" y="419" on="0"/>
        <pt x="703" y="343" on="1"/>
        <pt x="703" y="314" on="0"/>
        <pt x="692" y="268" on="0"/>
        <pt x="684" y="245" on="1"/>
      </contour>
      <contour>
        <pt x="542" y="420" on="1"/>
        <pt x="497" y="420" on="0"/>
        <pt x="427" y="367" on="0"/>
        <pt x="404" y="307" on="1"/>
        <pt x="615" y="307" on="1"/>
        <pt x="619" y="326" on="0"/>
        <pt x="619" y="345" on="1"/>
        <pt x="619" y="384" on="0"/>
        <pt x="580" y="420" on="0"/>
      </contour>
      <contour>
        <pt x="290" y="245" on="1"/>
        <pt x="259" y="245" on="0"/>
        <pt x="188" y="231" on="0"/>
        <pt x="128" y="200" on="0"/>
        <pt x="88" y="149" on="0"/>
        <pt x="88" y="112" on="1"/>
        <pt x="88" y="85" on="0"/>
        <pt x="120" y="62" on="0"/>
        <pt x="144" y="62" on="1"/>
        <pt x="169" y="62" on="0"/>
        <pt x="216" y="81" on="0"/>
        <pt x="256" y="124" on="0"/>
        <pt x="284" y="194" on="0"/>
      </contour>
    </TTGlyph>
    <TTGlyph name="agrave" xMin="21" yMin="-10" xMax="492" yMax="732">
      <component glyphName="a" x="0" y="0" flags="0x204"/>
      <component glyphName="grave" x="117" y="0" flags="0x4"/>
    </TTGlyph>
    <TTGlyph name="ampersand" xMin="12" yMin="-23" xMax="531" yMax="703">
      <contour>
        <pt x="401" y="0" on="1"/>
        <pt x="373" y="46" on="1"/>
        <pt x="328" y="7" on="0"/>
        <pt x="246" y="-23" on="0"/>
        <pt x="193" y="-23" on="1"/>
        <pt x="145" y="-23" on="0"/>
        <pt x="76" y="1" on="0"/>
        <pt x="32" y="42" on="0"/>
        <pt x="12" y="97" on="0"/>
        <pt x="12" y="129" on="1"/>
        <pt x="12" y="198" on="0"/>
        <pt x="89" y="309" on="0"/>
        <pt x="164" y="366" on="1"/>
        <pt x="144" y="408" on="0"/>
        <pt x="124" y="483" on="0"/>
        <pt x="124" y="512" on="1"/>
        <pt x="124" y="556" on="0"/>
        <pt x="160" y="627" on="0"/>
        <pt x="218" y="676" on="0"/>
        <pt x="294" y="703" on="0"/>
        <pt x="334" y="703" on="1"/>
        <pt x="393" y="703" on="0"/>
        <pt x="447" y="644" on="0"/>
        <pt x="447" y="600" on="1"/>
        <pt x="447" y="560" on="0"/>
        <pt x="415" y="490" on="0"/>
        <pt x="362" y="429" on="0"/>
        <pt x="297" y="377" on="0"/>
        <pt x="264" y="356" on="1"/>
        <pt x="387" y="161" on="1"/>
        <pt x="397" y="174" on="0"/>
        <pt x="415" y="225" on="0"/>
        <pt x="431" y="282" on="0"/>
        <pt x="444" y="335" on="0"/>
        <pt x="447" y="351" on="1"/>
        <pt x="531" y="351" on="1"/>
        <pt x="526" y="329" on="0"/>
        <pt x="511" y="269" on="0"/>
        <pt x="488" y="201" on="0"/>
        <pt x="455" y="131" on="0"/>
        <pt x="433" y="100" on="1"/>
        <pt x="498" y="0" on="1"/>
      </contour>
      <contour>
        <pt x="312" y="634" on="1"/>
        <pt x="292" y="634" on="0"/>
        <pt x="255" y="618" on="0"/>
        <pt x="227" y="588" on="0"/>
        <pt x="209" y="543" on="0"/>
        <pt x="209" y="513" on="1"/>
        <pt x="209" y="493" on="0"/>
        <pt x="220" y="437" on="0"/>
        <pt x="235" y="406" on="1"/>
        <pt x="266" y="432" on="0"/>
        <pt x="314" y="472" on="0"/>
        <pt x="348" y="509" on="0"/>
        <pt x="366" y="549" on="0"/>
        <pt x="366" y="576" on="1"/>
        <pt x="366" y="604" on="0"/>
        <pt x="338" y="634" on="0"/>
      </contour>
      <contour>
        <pt x="197" y="313" on="1"/>
        <pt x="158" y="284" on="0"/>
        <pt x="104" y="195" on="0"/>
        <pt x="104" y="144" on="1"/>
        <pt x="104" y="103" on="0"/>
        <pt x="153" y="45" on="0"/>
        <pt x="211" y="45" on="1"/>
        <pt x="252" y="45" on="0"/>
        <pt x="313" y="78" on="0"/>
        <pt x="338" y="105" on="1"/>
      </contour>
    </TTGlyph>
    <TTGlyph name="aring" xMin="21" yMin="-10" xMax="492" yMax="755">
      <component glyphName="a" x="0" y="0" flags="0x204"/>
      <component glyphName="ring" x="123" y="0" flags="0x4"/>
    </TTGlyph>
    <TTGlyph name="asciicircum" xMin="121" yMin="437" xMax="510" yMax="759">
      <contour>
        <pt x="344" y="653" on="1"/>
        <pt x="121" y="437" on="1"/>
        <pt x="140" y="543" on="1"/>
        <pt x="363" y="759" on="1"/>
        <pt x="510" y="543" on="1"/>
        <pt x="492" y="437" on="1"/>
      </contour>
    </TTGlyph>
    <TTGlyph name="asciitilde" xMin="38" yMin="179" xMax="373" yMax="282">
      <contour>
        <pt x="257" y="179" on="1"/>
        <pt x="242" y="179" on="0"/>
        <pt x="213" y="195" on="0"/>
        <pt x="186" y="214" on="0"/>
        <pt x="160" y="230" on="0"/>
        <pt x="148" y="230" on="1"/>
        <pt x="124" y="230" on="0"/>
        <pt x="93" y="204" on="0"/>
        <pt x="82" y="181" on="1"/>
        <pt x="38" y="190" on="1"/>
        <pt x="47" y="215" on="0"/>
        <pt x="74" y="249" on="0"/>
        <pt x="106" y="270" on="0"/>
        <pt x="139" y="280" on="0"/>
        <pt x="153" y="280" on="1"/>
        <pt x="169" y="280" on="0"/>
        <pt x="198" y="265" on="0"/>
        <pt x="226" y="246" on="0"/>
        <pt x="252" y="231" on="0"/>
        <pt x="264" y="231" on="1"/>
        <pt x="285" y="231" on="0"/>
        <pt x="318" y="258" on="0"/>
        <pt x="332" y="282" on="1"/>
        <pt x="373" y="273" on="1"/>
        <pt x="356" y="229" on="0"/>
        <pt x="295" y="179" on="0"/>
      </contour>
    </TTGlyph>
    <TTGlyph name="asterisk" xMin="94" yMin="424" xMax="425" yMax="749">
      <contour>
        <pt x="246" y="560" on="1"/>
        <pt x="136" y="424" on="1"/>
        <pt x="103" y="456" on="1"/>
        <pt x="225" y="573" on="1"/>
        <pt x="94" y="638" on="1"/>
        <pt x="129" y="679" on="1"/>
        <pt x="243" y="593" on="1"/>
        <pt x="252" y="749" on="1"/>
        <pt x="307" y="749" on="1"/>
        <pt x="260" y="593" on="1"/>
        <pt x="405" y="679" on="1"/>
        <pt x="425" y="637" on="1"/>
        <pt x="271" y="574" on="1"/>
        <pt x="355" y="459" on="1"/>
        <pt x="309" y="427" on="1"/>
      </contour>
    </TTGlyph>
    <TTGlyph name="at" xMin="25" yMin="-87" xMax="624" yMax="553">
      <contour>
        <pt x="515" y="379" on="1"/>
        <pt x="501" y="399" on="0"/>
        <pt x="453" y="432" on="0"/>
        <pt x="415" y="432" on="1"/>
        <pt x="369" y="432" on="0"/>
        <pt x="269" y="376" on="0"/>
        <pt x="187" y="287" on="0"/>
        <pt x="133" y="178" on="0"/>
        <pt x="133" y="124" on="1"/>
        <pt x="133" y="91" on="0"/>
        <pt x="162" y="40" on="0"/>
        <pt x="198" y="40" on="1"/>
        <pt x="218" y="40" on="0"/>
        <pt x="265" y="55" on="0"/>
        <pt x="314" y="85" on="0"/>
        <pt x="361" y="128" on="0"/>
        <pt x="381" y="156" on="1"/>
        <pt x="379" y="148" on="0"/>
        <pt x="370" y="122" on="0"/>
        <pt x="370" y="102" on="1"/>
        <pt x="370" y="81" on="0"/>
        <pt x="387" y="42" on="0"/>
        <pt x="410" y="42" on="1"/>
        <pt x="422" y="42" on="0"/>
        <pt x="456" y="53" on="0"/>
        <pt x="491" y="71" on="0"/>
        <pt x="525" y="94" on="0"/>
        <pt x="538" y="106" on="1"/>
        <pt x="509" y="63" on="0"/>
        <pt x="435" y="-8" on="0"/>
        <pt x="349" y="-59" on="0"/>
        <pt x="256" y="-87" on="0"/>
        <pt x="209" y="-87" on="1"/>
        <pt x="121" y="-87" on="0"/>
        <pt x="25" y="19" on="0"/>
        <pt x="25" y="114" on="1"/>
        <pt x="25" y="174" on="0"/>
        <pt x="58" y="287" on="0"/>
        <pt x="116" y="384" on="0"/>
        <pt x="194" y="464" on="0"/>
        <pt x="286" y="522" on="0"/>
        <pt x="387" y="553" on="0"/>
        <pt x="438" y="553" on="1"/>
        <pt x="529" y="553" on="0"/>
        <pt x="624" y="445" on="0"/>
        <pt x="624" y="353" on="1"/>
        <pt x="624" y="312" on="0"/>
        <pt x="603" y="221" on="0"/>
        <pt x="561" y="144" on="0"/>
        <pt x="497" y="94" on="0"/>
        <pt x="454" y="94" on="1"/>
        <pt x="440" y="94" on="0"/>
        <pt x="422" y="105" on="0"/>
        <pt x="422" y="128" on="1"/>
        <pt x="422" y="150" on="0"/>
        <pt x="437" y="199" on="0"/>
        <pt x="463" y="259" on="0"/>
        <pt x="497" y="332" on="0"/>
      </contour>
      <contour>
        <pt x="412" y="371" on="1"/>
        <pt x="420" y="371" on="0"/>
        <pt x="446" y="365" on="0"/>
        <pt x="449" y="349" on="1"/>
        <pt x="435" y="309" on="0"/>
        <pt x="384" y="223" on="0"/>
        <pt x="323" y="152" on="0"/>
        <pt x="262" y="106" on="0"/>
        <pt x="240" y="106" on="1"/>
        <pt x="223" y="106" on="0"/>
        <pt x="209" y="132" on="0"/>
        <pt x="209" y="152" on="1"/>
        <pt x="209" y="196" on="0"/>
        <pt x="252" y="275" on="0"/>
        <pt x="315" y="335" on="0"/>
        <pt x="385" y="371" on="0"/>
      </contour>
    </TTGlyph>
    <TTGlyph name="atilde" xMin="21" yMin="-10" xMax="534" yMax="702">
      <component glyphName="a" x="0" y="0" flags="0x204"/>
      <component glyphName="tilde" x="13" y="0" flags="0x4"/>
    </TTGlyph>
    <TTGlyph name="b" xMin="10" yMin="-10" xMax="482" yMax="750">
      <contour>
        <pt x="225" y="-10" on="1"/>
        <pt x="193" y="-10" on="0"/>
        <pt x="128" y="26" on="0"/>
        <pt x="110" y="62" on="1"/>
        <pt x="92" y="0" on="1"/>
        <pt x="10" y="0" on="1"/>
        <pt x="142" y="750" on="1"/>
        <pt x="233" y="750" on="1"/>
        <pt x="178" y="437" on="1"/>
        <pt x="211" y="475" on="0"/>
        <pt x="284" y="500" on="0"/>
        <pt x="316" y="500" on="1"/>
        <pt x="357" y="500" on="0"/>
        <pt x="419" y="467" on="0"/>
        <pt x="461" y="410" on="0"/>
        <pt x="482" y="336" on="0"/>
        <pt x="482" y="294" on="1"/>
        <pt x="482" y="232" on="0"/>
        <pt x="441" y="122" on="0"/>
        <pt x="371" y="39" on="0"/>
        <pt x="278" y="-10" on="0"/>
      </contour>
      <contour>
        <pt x="293" y="420" on="1"/>
        <pt x="262" y="420" on="0"/>
        <pt x="205" y="391" on="0"/>
        <pt x="161" y="336" on="0"/>
        <pt x="134" y="253" on="0"/>
        <pt x="134" y="199" on="1"/>
        <pt x="134" y="132" on="0"/>
        <pt x="189" y="70" on="0"/>
        <pt x="231" y="70" on="1"/>
        <pt x="265" y="70" on="0"/>
        <pt x="322" y="106" on="0"/>
        <pt x="364" y="166" on="0"/>
        <pt x="388" y="244" on="0"/>
        <pt x="388" y="286" on="1"/>
        <pt x="388" y="344" on="0"/>
        <pt x="340" y="420" on="0"/>
      </contour>
    </TTGlyph>
    <TTGlyph name="backslash" xMin="106" yMin="-85" xMax="400" yMax="700">
      <contour>
        <pt x="304" y="-85" on="1"/>
        <pt x="106" y="700" on="1"/>
        <pt x="202" y="700" on="1"/>
        <pt x="400" y="-85" on="1"/>
      </contour>
    </TTGlyph>
    <TTGlyph name="bar" xMin="-18" yMin="-209" xMax="234" yMax="750">
      <contour>
        <pt x="-18" y="-209" on="1"/>
        <pt x="151" y="750" on="1"/>
        <pt x="234" y="750" on="1"/>
        <pt x="65" y="-209" on="1"/>
      </contour>
    </TTGlyph>
    <TTGlyph name="braceleft" xMin="23" yMin="-135" xMax="356" yMax="750">
      <contour>
        <pt x="29" y="-15" on="1"/>
        <pt x="29" y="6" on="0"/>
        <pt x="42" y="58" on="0"/>
        <pt x="57" y="115" on="0"/>
        <pt x="70" y="173" on="0"/>
        <pt x="70" y="200" on="1"/>
        <pt x="70" y="234" on="0"/>
        <pt x="48" y="287" on="0"/>
        <pt x="23" y="307" on="1"/>
        <pt x="64" y="333" on="0"/>
        <pt x="107" y="401" on="0"/>
        <pt x="117" y="456" on="1"/>
        <pt x="123" y="491" on="0"/>
        <pt x="130" y="570" on="0"/>
        <pt x="135" y="600" on="1"/>
        <pt x="141" y="634" on="0"/>
        <pt x="170" y="688" on="0"/>
        <pt x="222" y="726" on="0"/>
        <pt x="300" y="748" on="0"/>
        <pt x="356" y="750" on="1"/>
        <pt x="343" y="681" on="1"/>
        <pt x="299" y="679" on="0"/>
        <pt x="247" y="662" on="0"/>
        <pt x="217" y="623" on="0"/>
        <pt x="201" y="558" on="0"/>
        <pt x="192" y="510" on="1"/>
        <pt x="188" y="490" on="0"/>
        <pt x="184" y="445" on="0"/>
        <pt x="180" y="424" on="1"/>
        <pt x="177" y="408" on="0"/>
        <pt x="168" y="379" on="0"/>
        <pt x="150" y="351" on="0"/>
        <pt x="119" y="323" on="0"/>
        <pt x="94" y="307" on="1"/>
        <pt x="123" y="284" on="0"/>
        <pt x="143" y="243" on="0"/>
        <pt x="143" y="222" on="1"/>
        <pt x="143" y="200" on="0"/>
        <pt x="132" y="161" on="0"/>
        <pt x="120" y="116" on="0"/>
        <pt x="109" y="61" on="0"/>
        <pt x="109" y="25" on="1"/>
        <pt x="109" y="-24" on="0"/>
        <pt x="153" y="-64" on="0"/>
        <pt x="212" y="-66" on="1"/>
        <pt x="200" y="-135" on="1"/>
        <pt x="108" y="-132" on="0"/>
        <pt x="29" y="-71" on="0"/>
      </contour>
    </TTGlyph>
    <TTGlyph name="braceright" xMin="-73" yMin="-135" xMax="259" yMax="750">
      <contour>
        <pt x="147" y="14" on="1"/>
        <pt x="135" y="-56" on="0"/>
        <pt x="34" y="-131" on="0"/>
        <pt x="-73" y="-135" on="1"/>
        <pt x="-61" y="-66" on="1"/>
        <pt x="-17" y="-65" on="0"/>
        <pt x="35" y="-47" on="0"/>
        <pt x="65" y="-8" on="0"/>
        <pt x="81" y="57" on="0"/>
        <pt x="90" y="105" on="1"/>
        <pt x="95" y="131" on="0"/>
        <pt x="100" y="177" on="0"/>
        <pt x="104" y="199" on="1"/>
        <pt x="107" y="214" on="0"/>
        <pt x="115" y="240" on="0"/>
        <pt x="133" y="265" on="0"/>
        <pt x="164" y="292" on="0"/>
        <pt x="189" y="307" on="1"/>
        <pt x="160" y="330" on="0"/>
        <pt x="140" y="375" on="0"/>
        <pt x="140" y="398" on="1"/>
        <pt x="140" y="413" on="0"/>
        <pt x="151" y="449" on="0"/>
        <pt x="163" y="495" on="0"/>
        <pt x="174" y="553" on="0"/>
        <pt x="174" y="590" on="1"/>
        <pt x="174" y="639" on="0"/>
        <pt x="130" y="679" on="0"/>
        <pt x="71" y="681" on="1"/>
        <pt x="83" y="750" on="1"/>
        <pt x="177" y="747" on="0"/>
        <pt x="254" y="683" on="0"/>
        <pt x="254" y="629" on="1"/>
        <pt x="254" y="608" on="0"/>
        <pt x="241" y="556" on="0"/>
        <pt x="226" y="500" on="0"/>
        <pt x="213" y="442" on="0"/>
        <pt x="213" y="415" on="1"/>
        <pt x="213" y="344" on="0"/>
        <pt x="259" y="307" on="1"/>
        <pt x="215" y="281" on="0"/>
        <pt x="175" y="210" on="0"/>
        <pt x="166" y="159" on="1"/>
        <pt x="160" y="123" on="0"/>
        <pt x="152" y="44" on="0"/>
      </contour>
    </TTGlyph>
    <TTGlyph name="bracketleft" xMin="-4" yMin="-135" xMax="383" yMax="750">
      <contour>
        <pt x="79" y="-135" on="1"/>
        <pt x="-4" y="-135" on="1"/>
        <pt x="152" y="750" on="1"/>
        <pt x="383" y="750" on="1"/>
        <pt x="371" y="682" on="1"/>
        <pt x="223" y="682" on="1"/>
        <pt x="91" y="-67" on="1"/>
        <pt x="239" y="-67" on="1"/>
        <pt x="227" y="-135" on="1"/>
      </contour>
    </TTGlyph>
    <TTGlyph name="bracketright" xMin="-80" yMin="-135" xMax="307" yMax="750">
      <contour>
        <pt x="224" y="750" on="1"/>
        <pt x="307" y="750" on="1"/>
        <pt x="151" y="-135" on="1"/>
        <pt x="-80" y="-135" on="1"/>
        <pt x="-68" y="-67" on="1"/>
        <pt x="80" y="-67" on="1"/>
        <pt x="212" y="682" on="1"/>
        <pt x="64" y="682" on="1"/>
        <pt x="76" y="750" on="1"/>
      </contour>
    </TTGlyph>
    <TTGlyph name="brokenbar" xMin="-16" yMin="-210" xMax="232" yMax="750">
      <contour>
        <pt x="75" y="308" on="1"/>
        <pt x="153" y="750" on="1"/>
        <pt x="232" y="750" on="1"/>
        <pt x="155" y="308" on="1"/>
      </contour>
      <contour>
        <pt x="-16" y="-210" on="1"/>
        <pt x="50" y="163" on="1"/>
        <pt x="129" y="163" on="1"/>
        <pt x="63" y="-210" on="1"/>
      </contour>
    </TTGlyph>
    <TTGlyph name="bullet" xMin="40" yMin="169" xMax="240" yMax="387">
      <contour>
        <pt x="121" y="169" on="1"/>
        <pt x="85" y="169" on="0"/>
        <pt x="40" y="223" on="0"/>
        <pt x="40" y="261" on="1"/>
        <pt x="40" y="286" on="0"/>
        <pt x="60" y="332" on="0"/>
        <pt x="94" y="367" on="0"/>
        <pt x="136" y="387" on="0"/>
        <pt x="159" y="387" on="1"/>
        <pt x="195" y="387" on="0"/>
        <pt x="240" y="333" on="0"/>
        <pt x="240" y="295" on="1"/>
        <pt x="240" y="269" on="0"/>
        <pt x="220" y="224" on="0"/>
        <pt x="186" y="189" on="0"/>
        <pt x="143" y="169" on="0"/>
      </contour>
    </TTGlyph>
    <TTGlyph name="c" xMin="23" yMin="-10" xMax="423" yMax="500">
      <contour>
        <pt x="203" y="-10" on="1"/>
        <pt x="157" y="-10" on="0"/>
        <pt x="89" y="23" on="0"/>
        <pt x="45" y="78" on="0"/>
        <pt x="23" y="153" on="0"/>
        <pt x="23" y="195" on="1"/>
        <pt x="23" y="255" on="0"/>
        <pt x="58" y="365" on="0"/>
        <pt x="127" y="450" on="0"/>
        <pt x="227" y="500" on="0"/>
        <pt x="292" y="500" on="1"/>
        <pt x="343" y="500" on="0"/>
        <pt x="404" y="483" on="0"/>
        <pt x="423" y="471" on="1"/>
        <pt x="397" y="390" on="1"/>
        <pt x="372" y="404" on="0"/>
        <pt x="319" y="420" on="0"/>
        <pt x="287" y="420" on="1"/>
        <pt x="245" y="420" on="0"/>
        <pt x="181" y="387" on="0"/>
        <pt x="138" y="328" on="0"/>
        <pt x="116" y="248" on="0"/>
        <pt x="116" y="201" on="1"/>
        <pt x="116" y="141" on="0"/>
        <pt x="170" y="69" on="0"/>
        <pt x="225" y="69" on="1"/>
        <pt x="257" y="69" on="0"/>
        <pt x="318" y="85" on="0"/>
        <pt x="347" y="99" on="1"/>
        <pt x="344" y="27" on="1"/>
        <pt x="321" y="13" on="0"/>
        <pt x="256" y="-10" on="0"/>
      </contour>
    </TTGlyph>
    <TTGlyph name="caron" xMin="192" yMin="600" xMax="464" yMax="740">
      <contour>
        <pt x="307" y="600" on="1"/>
        <pt x="192" y="699" on="1"/>
        <pt x="199" y="740" on="1"/>
        <pt x="318" y="664" on="1"/>
        <pt x="464" y="740" on="1"/>
        <pt x="457" y="699" on="1"/>
      </contour>
    </TTGlyph>
    <TTGlyph name="ccaron" xMin="23" yMin="-10" xMax="449" yMax="740">
      <component glyphName="c" x="0" y="0" flags="0x204"/>
      <component glyphName="caron" x="-15" y="0" flags="0x4"/>
    </TTGlyph>
    <TTGlyph name="ccedilla" xMin="23" yMin="-192" xMax="423" yMax="500">
      <component glyphName="c" x="0" y="0" flags="0x204"/>
      <component glyphName="cedilla" x="-2" y="0" flags="0x4"/>
    </TTGlyph>
    <TTGlyph name="cedilla" xMin="91" yMin="-192" xMax="247" yMax="-54">
      <contour>
        <pt x="141" y="-187" on="1"/>
        <pt x="91" y="-192" on="1"/>
        <pt x="176" y="-60" on="1"/>
        <pt x="247" y="-54" on="1"/>
      </contour>
    </TTGlyph>
    <TTGlyph name="cent" xMin="41" yMin="-31" xMax="441" yMax="748">
      <contour>
        <pt x="238" y="-31" on="1"/>
        <pt x="153" y="-31" on="1"/>
        <pt x="189" y="89" on="1"/>
        <pt x="119" y="100" on="0"/>
        <pt x="41" y="208" on="0"/>
        <pt x="41" y="293" on="1"/>
        <pt x="41" y="350" on="0"/>
        <pt x="75" y="456" on="0"/>
        <pt x="137" y="541" on="0"/>
        <pt x="225" y="598" on="0"/>
        <pt x="280" y="606" on="1"/>
        <pt x="290" y="748" on="1"/>
        <pt x="376" y="748" on="1"/>
        <pt x="337" y="608" on="1"/>
        <pt x="375" y="605" on="0"/>
        <pt x="423" y="590" on="0"/>
        <pt x="441" y="576" on="1"/>
        <pt x="419" y="498" on="1"/>
        <pt x="394" y="514" on="0"/>
        <pt x="342" y="531" on="0"/>
        <pt x="313" y="531" on="1"/>
        <pt x="272" y="531" on="0"/>
        <pt x="207" y="493" on="0"/>
        <pt x="162" y="429" on="0"/>
        <pt x="138" y="347" on="0"/>
        <pt x="138" y="304" on="1"/>
        <pt x="138" y="241" on="0"/>
        <pt x="194" y="165" on="0"/>
        <pt x="250" y="165" on="1"/>
        <pt x="305" y="165" on="0"/>
        <pt x="366" y="197" on="1"/>
        <pt x="360" y="119" on="1"/>
        <pt x="342" y="108" on="0"/>
        <pt x="294" y="90" on="0"/>
        <pt x="252" y="87" on="1"/>
      </contour>
    </TTGlyph>
    <TTGlyph name="circumflex" xMin="175" yMin="603" xMax="446" yMax="745">
      <contour>
        <pt x="322" y="685" on="1"/>
        <pt x="175" y="603" on="1"/>
        <pt x="181" y="639" on="1"/>
        <pt x="332" y="745" on="1"/>
        <pt x="446" y="639" on="1"/>
        <pt x="440" y="603" on="1"/>
      </contour>
    </TTGlyph>
    <TTGlyph name="colon" xMin="7" yMin="0" xMax="175" yMax="440">
      <contour>
        <pt x="69" y="354" on="1"/>
        <pt x="85" y="440" on="1"/>
        <pt x="175" y="440" on="1"/>
        <pt x="160" y="354" on="1"/>
      </contour>
      <contour>
        <pt x="7" y="0" on="1"/>
        <pt x="22" y="86" on="1"/>
        <pt x="113" y="86" on="1"/>
        <pt x="98" y="0" on="1"/>
      </contour>
    </TTGlyph>
    <TTGlyph name="comma" xMin="-10" yMin="-109" xMax="120" yMax="86">
      <contour>
        <pt x="9" y="-109" on="1"/>
        <pt x="-10" y="-96" on="1"/>
        <pt x="36" y="-9" on="1"/>
        <pt x="8" y="0" on="1"/>
        <pt x="23" y="86" on="1"/>
        <pt x="120" y="86" on="1"/>
        <pt x="104" y="0" on="1"/>
      </contour>
    </TTGlyph>
    <TTGlyph name="copyright" xMin="60" yMin="37" xMax="633" yMax="693">
      <contour>
        <pt x="289" y="37" on="1"/>
        <pt x="237" y="37" on="0"/>
        <pt x="152" y="74" on="0"/>
        <pt x="92" y="143" on="0"/>
        <pt x="60" y="241" on="0"/>
        <pt x="60" y="301" on="1"/>
        <pt x="60" y="387" on="0"/>
        <pt x="115" y="531" on="0"/>
        <pt x="210" y="635" on="0"/>
        <pt x="335" y="693" on="0"/>
        <pt x="405" y="693" on="1"/>
        <pt x="457" y="693" on="0"/>
        <pt x="541" y="656" on="0"/>
        <pt x="601" y="587" on="0"/>
        <pt x="633" y="490" on="0"/>
        <pt x="633" y="430" on="1"/>
        <pt x="633" y="344" on="0"/>
        <pt x="578" y="199" on="0"/>
        <pt x="485" y="95" on="0"/>
        <pt x="359" y="37" on="0"/>
      </contour>
      <contour>
        <pt x="397" y="648" on="1"/>
        <pt x="328" y="648" on="0"/>
        <pt x="223" y="591" on="0"/>
        <pt x="151" y="495" on="0"/>
        <pt x="114" y="369" on="0"/>
        <pt x="114" y="300" on="1"/>
        <pt x="114" y="253" on="0"/>
        <pt x="136" y="173" on="0"/>
        <pt x="181" y="114" on="0"/>
        <pt x="250" y="81" on="0"/>
        <pt x="297" y="81" on="1"/>
        <pt x="365" y="81" on="0"/>
        <pt x="470" y="139" on="0"/>
        <pt x="542" y="235" on="0"/>
        <pt x="579" y="361" on="0"/>
        <pt x="579" y="429" on="1"/>
        <pt x="579" y="476" on="0"/>
        <pt x="557" y="556" on="0"/>
        <pt x="512" y="615" on="0"/>
        <pt x="444" y="648" on="0"/>
      </contour>
      <contour>
        <pt x="325" y="197" on="1"/>
        <pt x="271" y="197" on="0"/>
        <pt x="207" y="269" on="0"/>
        <pt x="207" y="330" on="1"/>
        <pt x="207" y="374" on="0"/>
        <pt x="235" y="448" on="0"/>
        <pt x="283" y="501" on="0"/>
        <pt x="348" y="530" on="0"/>
        <pt x="384" y="530" on="1"/>
        <pt x="406" y="530" on="0"/>
        <pt x="449" y="519" on="0"/>
        <pt x="465" y="511" on="1"/>
        <pt x="447" y="451" on="1"/>
        <pt x="430" y="459" on="0"/>
        <pt x="394" y="470" on="0"/>
        <pt x="373" y="470" on="1"/>
        <pt x="350" y="470" on="0"/>
        <pt x="313" y="448" on="0"/>
        <pt x="288" y="411" on="0"/>
        <pt x="275" y="363" on="0"/>
        <pt x="275" y="337" on="1"/>
        <pt x="275" y="302" on="0"/>
        <pt x="304" y="256" on="0"/>
        <pt x="336" y="256" on="1"/>
        <pt x="356" y="256" on="0"/>
        <pt x="396" y="267" on="0"/>
        <pt x="417" y="276" on="1"/>
        <pt x="413" y="217" on="1"/>
        <pt x="394" y="207" on="0"/>
        <pt x="347" y="197" on="0"/>
      </contour>
    </TTGlyph>
    <TTGlyph name="currency" xMin="21" yMin="29" xMax="581" yMax="667">
      <contour>
        <pt x="438" y="29" on="1"/>
        <pt x="386" y="132" on="1"/>
        <pt x="351" y="111" on="0"/>
        <pt x="289" y="94" on="0"/>
        <pt x="256" y="94" on="1"/>
        <pt x="223" y="94" on="0"/>
        <pt x="167" y="111" on="0"/>
        <pt x="139" y="132" on="1"/>
        <pt x="51" y="29" on="1"/>
        <pt x="21" y="53" on="1"/>
        <pt x="107" y="155" on="1"/>
        <pt x="87" y="187" on="0"/>
        <pt x="68" y="264" on="0"/>
        <pt x="68" y="302" on="1"/>
        <pt x="68" y="365" on="0"/>
        <pt x="118" y="481" on="0"/>
        <pt x="176" y="541" on="1"/>
        <pt x="125" y="643" on="1"/>
        <pt x="164" y="667" on="1"/>
        <pt x="215" y="564" on="1"/>
        <pt x="250" y="584" on="0"/>
        <pt x="313" y="602" on="0"/>
        <pt x="345" y="602" on="1"/>
        <pt x="378" y="602" on="0"/>
        <pt x="434" y="584" on="0"/>
        <pt x="462" y="563" on="1"/>
        <pt x="551" y="667" on="1"/>
        <pt x="581" y="643" on="1"/>
        <pt x="494" y="540" on="1"/>
        <pt x="514" y="508" on="0"/>
        <pt x="533" y="431" on="0"/>
        <pt x="533" y="393" on="1"/>
        <pt x="533" y="329" on="0"/>
        <pt x="482" y="214" on="0"/>
        <pt x="425" y="154" on="1"/>
        <pt x="477" y="53" on="1"/>
      </contour>
      <contour>
        <pt x="334" y="540" on="1"/>
        <pt x="294" y="540" on="0"/>
        <pt x="230" y="500" on="0"/>
        <pt x="185" y="434" on="0"/>
        <pt x="160" y="348" on="0"/>
        <pt x="160" y="302" on="1"/>
        <pt x="160" y="271" on="0"/>
        <pt x="173" y="218" on="0"/>
        <pt x="200" y="179" on="0"/>
        <pt x="240" y="156" on="0"/>
        <pt x="267" y="156" on="1"/>
        <pt x="307" y="156" on="0"/>
        <pt x="371" y="196" on="0"/>
        <pt x="416" y="262" on="0"/>
        <pt x="441" y="348" on="0"/>
        <pt x="441" y="394" on="1"/>
        <pt x="441" y="425" on="0"/>
        <pt x="428" y="478" on="0"/>
        <pt x="401" y="517" on="0"/>
        <pt x="361" y="540" on="0"/>
      </contour>
    </TTGlyph>
    <TTGlyph name="d" xMin="21" yMin="-10" xMax="539" yMax="750">
      <contour>
        <pt x="324" y="0" on="1"/>
        <pt x="328" y="62" on="1"/>
        <pt x="297" y="26" on="0"/>
        <pt x="220" y="-10" on="0"/>
        <pt x="188" y="-10" on="1"/>
        <pt x="149" y="-10" on="0"/>
        <pt x="87" y="21" on="0"/>
        <pt x="44" y="77" on="0"/>
        <pt x="21" y="152" on="0"/>
        <pt x="21" y="196" on="1"/>
        <pt x="21" y="253" on="0"/>
        <pt x="59" y="363" on="0"/>
        <pt x="128" y="448" on="0"/>
        <pt x="222" y="500" on="0"/>
        <pt x="278" y="500" on="1"/>
        <pt x="310" y="500" on="0"/>
        <pt x="373" y="476" on="0"/>
        <pt x="393" y="438" on="1"/>
        <pt x="448" y="750" on="1"/>
        <pt x="539" y="750" on="1"/>
        <pt x="407" y="0" on="1"/>
      </contour>
      <contour>
        <pt x="271" y="420" on="1"/>
        <pt x="237" y="420" on="0"/>
        <pt x="180" y="385" on="0"/>
        <pt x="138" y="326" on="0"/>
        <pt x="115" y="248" on="0"/>
        <pt x="115" y="205" on="1"/>
        <pt x="115" y="177" on="0"/>
        <pt x="127" y="128" on="0"/>
        <pt x="151" y="91" on="0"/>
        <pt x="186" y="70" on="0"/>
        <pt x="209" y="70" on="1"/>
        <pt x="239" y="70" on="0"/>
        <pt x="298" y="95" on="0"/>
        <pt x="343" y="148" on="0"/>
        <pt x="371" y="228" on="0"/>
        <pt x="371" y="284" on="1"/>
        <pt x="371" y="351" on="0"/>
        <pt x="313" y="420" on="0"/>
      </contour>
    </TTGlyph>
    <TTGlyph name="dagger" xMin="54" yMin="0" xMax="388" yMax="607">
      <contour>
        <pt x="250" y="403" on="1"/>
        <pt x="250" y="252" on="1"/>
        <pt x="178" y="0" on="1"/>
        <pt x="117" y="0" on="1"/>
        <pt x="134" y="252" on="1"/>
        <pt x="194" y="403" on="1"/>
        <pt x="54" y="373" on="1"/>
        <pt x="69" y="458" on="1"/>
        <pt x="199" y="427" on="1"/>
        <pt x="199" y="607" on="1"/>
        <pt x="310" y="607" on="1"/>
        <pt x="249" y="427" on="1"/>
        <pt x="388" y="458" on="1"/>
        <pt x="373" y="373" on="1"/>
      </contour>
    </TTGlyph>
    <TTGlyph name="daggerdbl" xMin="17" yMin="-59" xMax="401" yMax="607">
      <contour>
        <pt x="206" y="118" on="1"/>
        <pt x="206" y="-59" on="1"/>
        <pt x="95" y="-59" on="1"/>
        <pt x="155" y="118" on="1"/>
        <pt x="17" y="88" on="1"/>
        <pt x="32" y="172" on="1"/>
        <pt x="162" y="142" on="1"/>
        <pt x="151" y="274" on="1"/>
        <pt x="209" y="407" on="1"/>
        <pt x="68" y="377" on="1"/>
        <pt x="83" y="461" on="1"/>
        <pt x="213" y="431" on="1"/>
        <pt x="213" y="607" on="1"/>
        <pt x="323" y="607" on="1"/>
        <pt x="263" y="431" on="1"/>
        <pt x="401" y="461" on="1"/>
        <pt x="387" y="377" on="1"/>
        <pt x="256" y="407" on="1"/>
        <pt x="267" y="274" on="1"/>
        <pt x="209" y="142" on="1"/>
        <pt x="350" y="172" on="1"/>
        <pt x="336" y="88" on="1"/>
      </contour>
    </TTGlyph>
    <TTGlyph name="degree" xMin="89" yMin="482" xMax="333" yMax="755">
      <contour>
        <pt x="187" y="482" on="1"/>
        <pt x="139" y="482" on="0"/>
        <pt x="89" y="545" on="0"/>
        <pt x="89" y="592" on="1"/>
        <pt x="89" y="624" on="0"/>
        <pt x="110" y="683" on="0"/>
        <pt x="149" y="728" on="0"/>
        <pt x="203" y="755" on="0"/>
        <pt x="235" y="755" on="1"/>
        <pt x="284" y="755" on="0"/>
        <pt x="333" y="691" on="0"/>
        <pt x="333" y="644" on="1"/>
        <pt x="333" y="611" on="0"/>
        <pt x="312" y="553" on="0"/>
        <pt x="273" y="508" on="0"/>
        <pt x="220" y="482" on="0"/>
      </contour>
      <contour>
        <pt x="230" y="729" on="1"/>
        <pt x="209" y="729" on="0"/>
        <pt x="175" y="704" on="0"/>
        <pt x="150" y="665" on="0"/>
        <pt x="136" y="617" on="0"/>
        <pt x="136" y="593" on="1"/>
        <pt x="136" y="559" on="0"/>
        <pt x="163" y="508" on="0"/>
        <pt x="191" y="508" on="1"/>
        <pt x="213" y="508" on="0"/>
        <pt x="248" y="533" on="0"/>
        <pt x="273" y="572" on="0"/>
        <pt x="286" y="620" on="0"/>
        <pt x="286" y="644" on="1"/>
        <pt x="286" y="660" on="0"/>
        <pt x="279" y="691" on="0"/>
        <pt x="266" y="715" on="0"/>
        <pt x="245" y="729" on="0"/>
      </contour>
    </TTGlyph>
    <TTGlyph name="dieresis" xMin="184" yMin="600" xMax="425" yMax="700">
      <contour>
        <pt x="336" y="600" on="1"/>
        <pt x="354" y="700" on="1"/>
        <pt x="425" y="700" on="1"/>
        <pt x="407" y="600" on="1"/>
      </contour>
      <contour>
        <pt x="184" y="600" on="1"/>
        <pt x="202" y="700" on="1"/>
        <pt x="272" y="700" on="1"/>
        <pt x="255" y="600" on="1"/>
      </contour>
    </TTGlyph>
    <TTGlyph name="divide" xMin="58" yMin="20" xMax="485" yMax="534">
      <contour>
        <pt x="250" y="440" on="1"/>
        <pt x="267" y="534" on="1"/>
        <pt x="357" y="534" on="1"/>
        <pt x="341" y="440" on="1"/>
      </contour>
      <contour>
        <pt x="58" y="245" on="1"/>
        <pt x="71" y="319" on="1"/>
        <pt x="485" y="319" on="1"/>
        <pt x="472" y="245" on="1"/>
      </contour>
      <contour>
        <pt x="176" y="20" on="1"/>
        <pt x="193" y="114" on="1"/>
        <pt x="283" y="114" on="1"/>
        <pt x="267" y="20" on="1"/>
      </contour>
    </TTGlyph>
    <TTGlyph name="dollar" xMin="22" yMin="-32" xMax="465" yMax="748">
      <contour>
        <pt x="224" y="-32" on="1"/>
        <pt x="138" y="-32" on="1"/>
        <pt x="173" y="81" on="1"/>
        <pt x="119" y="84" on="0"/>
        <pt x="41" y="106" on="0"/>
        <pt x="22" y="119" on="1"/>
        <pt x="53" y="228" on="1"/>
        <pt x="74" y="205" on="0"/>
        <pt x="153" y="170" on="0"/>
        <pt x="211" y="170" on="1"/>
        <pt x="260" y="170" on="0"/>
        <pt x="320" y="201" on="0"/>
        <pt x="320" y="242" on="1"/>
        <pt x="320" y="267" on="0"/>
        <pt x="284" y="299" on="0"/>
        <pt x="229" y="324" on="0"/>
        <pt x="165" y="346" on="0"/>
        <pt x="110" y="377" on="0"/>
        <pt x="74" y="422" on="0"/>
        <pt x="74" y="457" on="1"/>
        <pt x="74" y="481" on="0"/>
        <pt x="94" y="538" on="0"/>
        <pt x="139" y="588" on="0"/>
        <pt x="214" y="625" on="0"/>
        <pt x="270" y="631" on="1"/>
        <pt x="276" y="748" on="1"/>
        <pt x="362" y="748" on="1"/>
        <pt x="327" y="631" on="1"/>
        <pt x="373" y="628" on="0"/>
        <pt x="448" y="606" on="0"/>
        <pt x="465" y="594" on="1"/>
        <pt x="439" y="498" on="1"/>
        <pt x="405" y="518" on="0"/>
        <pt x="329" y="546" on="0"/>
        <pt x="296" y="546" on="1"/>
        <pt x="275" y="546" on="0"/>
        <pt x="233" y="540" on="0"/>
        <pt x="199" y="525" on="0"/>
        <pt x="178" y="499" on="0"/>
        <pt x="178" y="480" on="1"/>
        <pt x="178" y="457" on="0"/>
        <pt x="216" y="429" on="0"/>
        <pt x="272" y="407" on="0"/>
        <pt x="339" y="385" on="0"/>
        <pt x="395" y="352" on="0"/>
        <pt x="433" y="300" on="0"/>
        <pt x="433" y="259" on="1"/>
        <pt x="433" y="242" on="0"/>
        <pt x="423" y="188" on="0"/>
        <pt x="382" y="133" on="0"/>
        <pt x="301" y="88" on="0"/>
        <pt x="230" y="82" on="1"/>
      </contour>
    </TTGlyph>
    <TTGlyph name="dotlessi" xMin="10" yMin="0" xMax="187" yMax="490">
      <contour>
        <pt x="10" y="0" on="1"/>
        <pt x="96" y="490" on="1"/>
        <pt x="187" y="490" on="1"/>
        <pt x="101" y="0" on="1"/>
      </contour>
    </TTGlyph>
    <TTGlyph name="dotlessj" xMin="-85" yMin="-242" xMax="187" yMax="490">
      <contour>
        <pt x="-85" y="-242" on="1"/>
        <pt x="-82" y="-173" on="1"/>
        <pt x="-63" y="-171" on="0"/>
        <pt x="-37" y="-161" on="0"/>
        <pt x="-20" y="-140" on="0"/>
        <pt x="-8" y="-103" on="0"/>
        <pt x="-3" y="-73" on="1"/>
        <pt x="96" y="490" on="1"/>
        <pt x="187" y="490" on="1"/>
        <pt x="82" y="-107" on="1"/>
        <pt x="76" y="-142" on="0"/>
        <pt x="48" y="-189" on="0"/>
        <pt x="12" y="-219" on="0"/>
        <pt x="-31" y="-234" on="0"/>
        <pt x="-53" y="-237" on="1"/>
      </contour>
    </TTGlyph>
    <TTGlyph name="e" xMin="21" yMin="-10" xMax="434" yMax="500">
      <contour>
        <pt x="434" y="375" on="1"/>
        <pt x="434" y="347" on="0"/>
        <pt x="412" y="289" on="0"/>
        <pt x="360" y="241" on="0"/>
        <pt x="272" y="210" on="0"/>
        <pt x="206" y="210" on="1"/>
        <pt x="175" y="210" on="0"/>
        <pt x="129" y="216" on="0"/>
        <pt x="118" y="218" on="1"/>
        <pt x="118" y="174" on="0"/>
        <pt x="138" y="116" on="0"/>
        <pt x="172" y="83" on="0"/>
        <pt x="218" y="70" on="0"/>
        <pt x="245" y="70" on="1"/>
        <pt x="274" y="70" on="0"/>
        <pt x="348" y="84" on="0"/>
        <pt x="380" y="99" on="1"/>
        <pt x="376" y="28" on="1"/>
        <pt x="348" y="15" on="0"/>
        <pt x="269" y="-10" on="0"/>
        <pt x="221" y="-10" on="1"/>
        <pt x="170" y="-10" on="0"/>
        <pt x="95" y="23" on="0"/>
        <pt x="45" y="80" on="0"/>
        <pt x="21" y="157" on="0"/>
        <pt x="21" y="202" on="1"/>
        <pt x="21" y="260" on="0"/>
        <pt x="59" y="368" on="0"/>
        <pt x="130" y="450" on="0"/>
        <pt x="228" y="500" on="0"/>
        <pt x="288" y="500" on="1"/>
        <pt x="360" y="500" on="0"/>
        <pt x="434" y="431" on="0"/>
      </contour>
      <contour>
        <pt x="279" y="420" on="1"/>
        <pt x="232" y="420" on="0"/>
        <pt x="154" y="354" on="0"/>
        <pt x="128" y="281" on="1"/>
        <pt x="136" y="280" on="0"/>
        <pt x="147" y="276" on="0"/>
        <pt x="161" y="273" on="0"/>
        <pt x="181" y="271" on="0"/>
        <pt x="198" y="271" on="1"/>
        <pt x="243" y="271" on="0"/>
        <pt x="302" y="289" on="0"/>
        <pt x="337" y="316" on="0"/>
        <pt x="351" y="349" on="0"/>
        <pt x="351" y="364" on="1"/>
        <pt x="351" y="394" on="0"/>
        <pt x="308" y="420" on="0"/>
      </contour>
    </TTGlyph>
    <TTGlyph name="eacute" xMin="21" yMin="-10" xMax="434" yMax="732">
      <component glyphName="e" x="0" y="0" flags="0x204"/>
      <component glyphName="acute" x="50" y="0" flags="0x4"/>
    </TTGlyph>
    <TTGlyph name="ecircumflex" xMin="21" yMin="-10" xMax="434" yMax="745">
      <component glyphName="e" x="0" y="0" flags="0x204"/>
      <component glyphName="circumflex" x="-15" y="0" flags="0x4"/>
    </TTGlyph>
    <TTGlyph name="edieresis" xMin="21" yMin="-10" xMax="434" yMax="700">
      <component glyphName="e" x="0" y="0" flags="0x204"/>
      <component glyphName="dieresis" x="-4" y="0" flags="0x4"/>
    </TTGlyph>
    <TTGlyph name="egrave" xMin="21" yMin="-10" xMax="434" yMax="732">
      <component glyphName="e" x="0" y="0" flags="0x204"/>
      <component glyphName="grave" x="48" y="0" flags="0x4"/>
    </TTGlyph>
    <TTGlyph name="eight" xMin="41" yMin="-14" xMax="518" yMax="713">
      <contour>
        <pt x="221" y="-14" on="1"/>
        <pt x="172" y="-14" on="0"/>
        <pt x="104" y="16" on="0"/>
        <pt x="61" y="64" on="0"/>
        <pt x="41" y="125" on="0"/>
        <pt x="41" y="157" on="1"/>
        <pt x="41" y="180" on="0"/>
        <pt x="52" y="234" on="0"/>
        <pt x="85" y="291" on="0"/>
        <pt x="143" y="349" on="0"/>
        <pt x="191" y="376" on="1"/>
        <pt x="162" y="408" on="0"/>
        <pt x="139" y="477" on="0"/>
        <pt x="139" y="509" on="1"/>
        <pt x="139" y="542" on="0"/>
        <pt x="160" y="614" on="0"/>
        <pt x="211" y="674" on="0"/>
        <pt x="297" y="713" on="0"/>
        <pt x="361" y="713" on="1"/>
        <pt x="406" y="713" on="0"/>
        <pt x="466" y="690" on="0"/>
        <pt x="502" y="653" on="0"/>
        <pt x="518" y="606" on="0"/>
        <pt x="518" y="581" on="1"/>
        <pt x="518" y="550" on="0"/>
        <pt x="509" y="505" on="0"/>
        <pt x="481" y="464" on="0"/>
        <pt x="430" y="418" on="0"/>
        <pt x="389" y="387" on="1"/>
        <pt x="440" y="364" on="0"/>
        <pt x="491" y="289" on="0"/>
        <pt x="491" y="234" on="1"/>
        <pt x="491" y="193" on="0"/>
        <pt x="457" y="105" on="0"/>
        <pt x="389" y="33" on="0"/>
        <pt x="288" y="-14" on="0"/>
      </contour>
      <contour>
        <pt x="341" y="628" on="1"/>
        <pt x="284" y="628" on="0"/>
        <pt x="226" y="568" on="0"/>
        <pt x="226" y="520" on="1"/>
        <pt x="226" y="490" on="0"/>
        <pt x="263" y="438" on="0"/>
        <pt x="300" y="421" on="1"/>
        <pt x="365" y="442" on="0"/>
        <pt x="423" y="521" on="0"/>
        <pt x="423" y="561" on="1"/>
        <pt x="423" y="593" on="0"/>
        <pt x="383" y="628" on="0"/>
      </contour>
      <contour>
        <pt x="293" y="338" on="1"/>
        <pt x="262" y="331" on="0"/>
        <pt x="207" y="303" on="0"/>
        <pt x="165" y="260" on="0"/>
        <pt x="140" y="201" on="0"/>
        <pt x="140" y="164" on="1"/>
        <pt x="140" y="118" on="0"/>
        <pt x="192" y="72" on="0"/>
        <pt x="240" y="72" on="1"/>
        <pt x="271" y="72" on="0"/>
        <pt x="327" y="94" on="0"/>
        <pt x="367" y="133" on="0"/>
        <pt x="391" y="187" on="0"/>
        <pt x="391" y="218" on="1"/>
        <pt x="391" y="264" on="0"/>
        <pt x="335" y="325" on="0"/>
      </contour>
    </TTGlyph>
    <TTGlyph name="eightinferior" xMin="11" yMin="-7" xMax="286" yMax="387">
      <component glyphName="eightsuperior" x="-42" y="-319" flags="0x4"/>
    </TTGlyph>
    <TTGlyph name="eightsuperior" xMin="53" yMin="312" xMax="328" yMax="706">
      <contour>
        <pt x="158" y="312" on="1"/>
        <pt x="103" y="312" on="0"/>
        <pt x="53" y="367" on="0"/>
        <pt x="53" y="403" on="1"/>
        <pt x="53" y="432" on="0"/>
        <pt x="86" y="495" on="0"/>
        <pt x="124" y="524" on="1"/>
        <pt x="114" y="535" on="0"/>
        <pt x="106" y="571" on="0"/>
        <pt x="106" y="588" on="1"/>
        <pt x="106" y="609" on="0"/>
        <pt x="119" y="652" on="0"/>
        <pt x="149" y="685" on="0"/>
        <pt x="199" y="706" on="0"/>
        <pt x="235" y="706" on="1"/>
        <pt x="287" y="706" on="0"/>
        <pt x="328" y="663" on="0"/>
        <pt x="328" y="634" on="1"/>
        <pt x="328" y="602" on="0"/>
        <pt x="295" y="548" on="0"/>
        <pt x="272" y="528" on="1"/>
        <pt x="289" y="517" on="0"/>
        <pt x="314" y="473" on="0"/>
        <pt x="314" y="446" on="1"/>
        <pt x="314" y="424" on="0"/>
        <pt x="295" y="377" on="0"/>
        <pt x="256" y="338" on="0"/>
        <pt x="197" y="312" on="0"/>
      </contour>
      <contour>
        <pt x="223" y="650" on="1"/>
        <pt x="170" y="650" on="0"/>
        <pt x="170" y="589" on="1"/>
        <pt x="170" y="577" on="0"/>
        <pt x="183" y="555" on="0"/>
        <pt x="203" y="550" on="1"/>
        <pt x="258" y="564" on="0"/>
        <pt x="258" y="616" on="1"/>
        <pt x="258" y="630" on="0"/>
        <pt x="243" y="650" on="0"/>
      </contour>
      <contour>
        <pt x="199" y="499" on="1"/>
        <pt x="187" y="497" on="0"/>
        <pt x="160" y="484" on="0"/>
        <pt x="138" y="463" on="0"/>
        <pt x="123" y="433" on="0"/>
        <pt x="123" y="415" on="1"/>
        <pt x="123" y="393" on="0"/>
        <pt x="148" y="369" on="0"/>
        <pt x="171" y="369" on="1"/>
        <pt x="207" y="369" on="0"/>
        <pt x="242" y="410" on="0"/>
        <pt x="242" y="440" on="1"/>
        <pt x="242" y="465" on="0"/>
        <pt x="216" y="494" on="0"/>
      </contour>
    </TTGlyph>
    <TTGlyph name="ellipsis" xMin="7" yMin="0" xMax="538" yMax="86">
      <contour>
        <pt x="7" y="0" on="1"/>
        <pt x="22" y="86" on="1"/>
        <pt x="113" y="86" on="1"/>
        <pt x="98" y="0" on="1"/>
      </contour>
      <contour>
        <pt x="219" y="0" on="1"/>
        <pt x="235" y="86" on="1"/>
        <pt x="325" y="86" on="1"/>
        <pt x="310" y="0" on="1"/>
      </contour>
      <contour>
        <pt x="432" y="0" on="1"/>
        <pt x="447" y="86" on="1"/>
        <pt x="538" y="86" on="1"/>
        <pt x="523" y="0" on="1"/>
      </contour>
    </TTGlyph>
    <TTGlyph name="emdash" xMin="48" yMin="238" xMax="495" yMax="324">
      <contour>
        <pt x="48" y="238" on="1"/>
        <pt x="63" y="324" on="1"/>
        <pt x="495" y="324" on="1"/>
        <pt x="480" y="238" on="1"/>
      </contour>
    </TTGlyph>
    <TTGlyph name="endash" xMin="48" yMin="238" xMax="412" yMax="324">
      <contour>
        <pt x="48" y="238" on="1"/>
        <pt x="63" y="324" on="1"/>
        <pt x="412" y="324" on="1"/>
        <pt x="397" y="238" on="1"/>
      </contour>
    </TTGlyph>
    <TTGlyph name="equal" xMin="44" yMin="160" xMax="418" yMax="394">
      <contour>
        <pt x="72" y="318" on="1"/>
        <pt x="85" y="394" on="1"/>
        <pt x="418" y="394" on="1"/>
        <pt x="405" y="318" on="1"/>
      </contour>
      <contour>
        <pt x="44" y="160" on="1"/>
        <pt x="57" y="236" on="1"/>
        <pt x="390" y="236" on="1"/>
        <pt x="377" y="160" on="1"/>
      </contour>
    </TTGlyph>
    <TTGlyph name="eth" xMin="10" yMin="-12" xMax="449" yMax="710">
      <contour>
        <pt x="177" y="-12" on="1"/>
        <pt x="139" y="-12" on="0"/>
        <pt x="78" y="14" on="0"/>
        <pt x="34" y="62" on="0"/>
        <pt x="10" y="127" on="0"/>
        <pt x="10" y="166" on="1"/>
        <pt x="10" y="206" on="0"/>
        <pt x="41" y="298" on="0"/>
        <pt x="101" y="375" on="0"/>
        <pt x="188" y="426" on="0"/>
        <pt x="244" y="426" on="1"/>
        <pt x="288" y="426" on="0"/>
        <pt x="337" y="389" on="0"/>
        <pt x="350" y="371" on="1"/>
        <pt x="351" y="377" on="0"/>
        <pt x="351" y="390" on="0"/>
        <pt x="351" y="397" on="1"/>
        <pt x="351" y="418" on="0"/>
        <pt x="346" y="466" on="0"/>
        <pt x="336" y="511" on="0"/>
        <pt x="321" y="548" on="0"/>
        <pt x="311" y="560" on="1"/>
        <pt x="239" y="507" on="0"/>
        <pt x="175" y="498" on="1"/>
        <pt x="155" y="553" on="1"/>
        <pt x="179" y="557" on="0"/>
        <pt x="239" y="579" on="0"/>
        <pt x="277" y="605" on="1"/>
        <pt x="256" y="631" on="0"/>
        <pt x="205" y="655" on="0"/>
        <pt x="178" y="659" on="1"/>
        <pt x="217" y="701" on="1"/>
        <pt x="246" y="701" on="0"/>
        <pt x="310" y="675" on="0"/>
        <pt x="341" y="646" on="1"/>
        <pt x="362" y="666" on="0"/>
        <pt x="391" y="694" on="0"/>
        <pt x="404" y="710" on="1"/>
        <pt x="449" y="698" on="1"/>
        <pt x="432" y="677" on="0"/>
        <pt x="397" y="640" on="0"/>
        <pt x="372" y="614" on="1"/>
        <pt x="389" y="592" on="0"/>
        <pt x="416" y="530" on="0"/>
        <pt x="434" y="459" on="0"/>
        <pt x="443" y="381" on="0"/>
        <pt x="443" y="342" on="1"/>
        <pt x="443" y="235" on="0"/>
        <pt x="390" y="98" on="0"/>
        <pt x="310" y="19" on="0"/>
        <pt x="217" y="-12" on="0"/>
      </contour>
      <contour>
        <pt x="242" y="343" on="1"/>
        <pt x="212" y="343" on="0"/>
        <pt x="162" y="315" on="0"/>
        <pt x="127" y="270" on="0"/>
        <pt x="107" y="212" on="0"/>
        <pt x="107" y="181" on="1"/>
        <pt x="107" y="135" on="0"/>
        <pt x="150" y="71" on="0"/>
        <pt x="194" y="71" on="1"/>
        <pt x="220" y="71" on="0"/>
        <pt x="268" y="97" on="0"/>
        <pt x="304" y="142" on="0"/>
        <pt x="326" y="203" on="0"/>
        <pt x="326" y="238" on="1"/>
        <pt x="326" y="285" on="0"/>
        <pt x="284" y="343" on="0"/>
      </contour>
    </TTGlyph>
    <TTGlyph name="exclam" xMin="24" yMin="0" xMax="256" yMax="750">
      <contour>
        <pt x="135" y="200" on="1"/>
        <pt x="71" y="200" on="1"/>
        <pt x="144" y="750" on="1"/>
        <pt x="256" y="750" on="1"/>
      </contour>
      <contour>
        <pt x="24" y="0" on="1"/>
        <pt x="39" y="86" on="1"/>
        <pt x="126" y="86" on="1"/>
        <pt x="111" y="0" on="1"/>
      </contour>
    </TTGlyph>
    <TTGlyph name="exclamdown" xMin="-34" yMin="-250" xMax="198" yMax="500">
      <contour>
        <pt x="87" y="300" on="1"/>
        <pt x="150" y="300" on="1"/>
        <pt x="78" y="-250" on="1"/>
        <pt x="-34" y="-250" on="1"/>
      </contour>
      <contour>
        <pt x="198" y="500" on="1"/>
        <pt x="182" y="414" on="1"/>
        <pt x="95" y="414" on="1"/>
        <pt x="110" y="500" on="1"/>
      </contour>
    </TTGlyph>
    <TTGlyph name="f" xMin="34" yMin="0" xMax="363" yMax="750">
      <contour>
        <pt x="199" y="420" on="1"/>
        <pt x="125" y="0" on="1"/>
        <pt x="34" y="0" on="1"/>
        <pt x="108" y="420" on="1"/>
        <pt x="36" y="420" on="1"/>
        <pt x="58" y="490" on="1"/>
        <pt x="120" y="490" on="1"/>
        <pt x="142" y="614" on="1"/>
        <pt x="153" y="674" on="0"/>
        <pt x="218" y="750" on="0"/>
        <pt x="271" y="750" on="1"/>
        <pt x="291" y="750" on="0"/>
        <pt x="318" y="748" on="0"/>
        <pt x="338" y="745" on="0"/>
        <pt x="354" y="740" on="0"/>
        <pt x="363" y="737" on="1"/>
        <pt x="338" y="661" on="1"/>
        <pt x="324" y="666" on="0"/>
        <pt x="299" y="670" on="0"/>
        <pt x="288" y="670" on="1"/>
        <pt x="273" y="670" on="0"/>
        <pt x="254" y="661" on="0"/>
        <pt x="240" y="634" on="0"/>
        <pt x="229" y="587" on="0"/>
        <pt x="222" y="550" on="1"/>
        <pt x="211" y="490" on="1"/>
        <pt x="324" y="490" on="1"/>
        <pt x="311" y="420" on="1"/>
      </contour>
    </TTGlyph>
    <TTGlyph name="five" xMin="9" yMin="-14" xMax="487" yMax="700">
      <contour>
        <pt x="158" y="-14" on="1"/>
        <pt x="133" y="-14" on="0"/>
        <pt x="83" y="-6" on="0"/>
        <pt x="41" y="5" on="0"/>
        <pt x="12" y="19" on="0"/>
        <pt x="9" y="25" on="1"/>
        <pt x="47" y="114" on="1"/>
        <pt x="71" y="95" on="0"/>
        <pt x="138" y="72" on="0"/>
        <pt x="172" y="72" on="1"/>
        <pt x="204" y="72" on="0"/>
        <pt x="265" y="100" on="0"/>
        <pt x="313" y="150" on="0"/>
        <pt x="343" y="218" on="0"/>
        <pt x="343" y="257" on="1"/>
        <pt x="343" y="306" on="0"/>
        <pt x="271" y="355" on="0"/>
        <pt x="184" y="355" on="1"/>
        <pt x="101" y="355" on="1"/>
        <pt x="200" y="700" on="1"/>
        <pt x="487" y="700" on="1"/>
        <pt x="463" y="614" on="1"/>
        <pt x="259" y="614" on="1"/>
        <pt x="211" y="440" on="1"/>
        <pt x="334" y="438" on="0"/>
        <pt x="445" y="359" on="0"/>
        <pt x="445" y="278" on="1"/>
        <pt x="445" y="212" on="0"/>
        <pt x="394" y="104" on="0"/>
        <pt x="312" y="28" on="0"/>
        <pt x="209" y="-14" on="0"/>
      </contour>
    </TTGlyph>
    <TTGlyph name="fiveinferior" xMin="-11" yMin="-6" xMax="262" yMax="379">
      <component glyphName="fivesuperior" x="-47" y="-319" flags="0x4"/>
    </TTGlyph>
    <TTGlyph name="fivesuperior" xMin="36" yMin="313" xMax="309" yMax="698">
      <contour>
        <pt x="129" y="313" on="1"/>
        <pt x="110" y="313" on="0"/>
        <pt x="77" y="320" on="0"/>
        <pt x="52" y="331" on="0"/>
        <pt x="37" y="342" on="0"/>
        <pt x="36" y="345" on="1"/>
        <pt x="65" y="410" on="1"/>
        <pt x="73" y="398" on="0"/>
        <pt x="112" y="381" on="0"/>
        <pt x="139" y="381" on="1"/>
        <pt x="152" y="381" on="0"/>
        <pt x="179" y="388" on="0"/>
        <pt x="200" y="405" on="0"/>
        <pt x="214" y="433" on="0"/>
        <pt x="214" y="455" on="1"/>
        <pt x="214" y="472" on="0"/>
        <pt x="187" y="497" on="0"/>
        <pt x="142" y="497" on="1"/>
        <pt x="82" y="497" on="1"/>
        <pt x="140" y="698" on="1"/>
        <pt x="309" y="698" on="1"/>
        <pt x="288" y="628" on="1"/>
        <pt x="182" y="628" on="1"/>
        <pt x="162" y="557" on="1"/>
        <pt x="285" y="556" on="0"/>
        <pt x="285" y="467" on="1"/>
        <pt x="285" y="428" on="0"/>
        <pt x="257" y="371" on="0"/>
        <pt x="212" y="332" on="0"/>
        <pt x="157" y="313" on="0"/>
      </contour>
    </TTGlyph>
    <TTGlyph name="florin" xMin="-109" yMin="-241" xMax="413" yMax="714">
      <contour>
        <pt x="396" y="648" on="1"/>
        <pt x="388" y="653" on="0"/>
        <pt x="372" y="656" on="0"/>
        <pt x="364" y="656" on="1"/>
        <pt x="338" y="656" on="0"/>
        <pt x="300" y="637" on="0"/>
        <pt x="268" y="597" on="0"/>
        <pt x="242" y="534" on="0"/>
        <pt x="228" y="490" on="1"/>
        <pt x="356" y="490" on="1"/>
        <pt x="340" y="434" on="1"/>
        <pt x="208" y="434" on="1"/>
        <pt x="40" y="-92" on="1"/>
        <pt x="25" y="-137" on="0"/>
        <pt x="-12" y="-195" on="0"/>
        <pt x="-48" y="-228" on="0"/>
        <pt x="-80" y="-241" on="0"/>
        <pt x="-90" y="-241" on="1"/>
        <pt x="-106" y="-241" on="1"/>
        <pt x="-109" y="-178" on="1"/>
        <pt x="-82" y="-172" on="0"/>
        <pt x="-43" y="-126" on="0"/>
        <pt x="-28" y="-77" on="1"/>
        <pt x="131" y="434" on="1"/>
        <pt x="51" y="434" on="1"/>
        <pt x="68" y="490" on="1"/>
        <pt x="150" y="490" on="1"/>
        <pt x="168" y="551" on="1"/>
        <pt x="180" y="591" on="0"/>
        <pt x="220" y="652" on="0"/>
        <pt x="272" y="693" on="0"/>
        <pt x="332" y="714" on="0"/>
        <pt x="363" y="714" on="1"/>
        <pt x="376" y="714" on="0"/>
        <pt x="400" y="708" on="0"/>
        <pt x="413" y="703" on="1"/>
      </contour>
    </TTGlyph>
    <TTGlyph name="four" xMin="0" yMin="0" xMax="461" yMax="700">
      <contour>
        <pt x="369" y="190" on="1"/>
        <pt x="335" y="0" on="1"/>
        <pt x="237" y="0" on="1"/>
        <pt x="271" y="190" on="1"/>
        <pt x="0" y="190" on="1"/>
        <pt x="380" y="700" on="1"/>
        <pt x="459" y="700" on="1"/>
        <pt x="384" y="276" on="1"/>
        <pt x="461" y="276" on="1"/>
        <pt x="445" y="190" on="1"/>
      </contour>
      <contour>
        <pt x="331" y="530" on="1"/>
        <pt x="156" y="276" on="1"/>
        <pt x="286" y="276" on="1"/>
      </contour>
    </TTGlyph>
    <TTGlyph name="fourinferior" xMin="-13" yMin="1" xMax="272" yMax="379">
      <component glyphName="foursuperior" x="-44" y="-319" flags="0x4"/>
    </TTGlyph>
    <TTGlyph name="foursuperior" xMin="31" yMin="320" xMax="316" yMax="698">
      <contour>
        <pt x="261" y="423" on="1"/>
        <pt x="243" y="320" on="1"/>
        <pt x="170" y="320" on="1"/>
        <pt x="189" y="423" on="1"/>
        <pt x="31" y="423" on="1"/>
        <pt x="248" y="698" on="1"/>
        <pt x="310" y="698" on="1"/>
        <pt x="271" y="480" on="1"/>
        <pt x="316" y="480" on="1"/>
        <pt x="306" y="423" on="1"/>
      </contour>
      <contour>
        <pt x="218" y="590" on="1"/>
        <pt x="138" y="480" on="1"/>
        <pt x="199" y="480" on="1"/>
      </contour>
    </TTGlyph>
    <TTGlyph name="g" xMin="-42" yMin="-250" xMax="481" yMax="500">
      <contour>
        <pt x="142" y="-250" on="1"/>
        <pt x="91" y="-250" on="0"/>
        <pt x="20" y="-226" on="0"/>
        <pt x="-23" y="-188" on="0"/>
        <pt x="-42" y="-142" on="0"/>
        <pt x="-42" y="-119" on="1"/>
        <pt x="-42" y="-107" on="0"/>
        <pt x="-33" y="-73" on="0"/>
        <pt x="-10" y="-37" on="0"/>
        <pt x="27" y="-4" on="0"/>
        <pt x="56" y="8" on="1"/>
        <pt x="36" y="21" on="0"/>
        <pt x="23" y="53" on="0"/>
        <pt x="23" y="64" on="1"/>
        <pt x="23" y="77" on="0"/>
        <pt x="51" y="125" on="0"/>
        <pt x="86" y="143" on="1"/>
        <pt x="58" y="172" on="0"/>
        <pt x="37" y="242" on="0"/>
        <pt x="37" y="273" on="1"/>
        <pt x="37" y="316" on="0"/>
        <pt x="67" y="398" on="0"/>
        <pt x="124" y="462" on="0"/>
        <pt x="205" y="500" on="0"/>
        <pt x="256" y="500" on="1"/>
        <pt x="317" y="500" on="0"/>
        <pt x="359" y="464" on="1"/>
        <pt x="379" y="476" on="0"/>
        <pt x="435" y="492" on="0"/>
        <pt x="467" y="492" on="1"/>
        <pt x="481" y="492" on="1"/>
        <pt x="462" y="432" on="1"/>
        <pt x="435" y="432" on="1"/>
        <pt x="430" y="432" on="0"/>
        <pt x="403" y="429" on="0"/>
        <pt x="390" y="425" on="1"/>
        <pt x="401" y="403" on="0"/>
        <pt x="409" y="357" on="0"/>
        <pt x="409" y="337" on="1"/>
        <pt x="409" y="297" on="0"/>
        <pt x="378" y="217" on="0"/>
        <pt x="322" y="153" on="0"/>
        <pt x="241" y="113" on="0"/>
        <pt x="192" y="113" on="1"/>
        <pt x="160" y="113" on="0"/>
        <pt x="135" y="122" on="1"/>
        <pt x="125" y="115" on="0"/>
        <pt x="112" y="99" on="0"/>
        <pt x="112" y="89" on="1"/>
        <pt x="112" y="72" on="0"/>
        <pt x="167" y="53" on="0"/>
        <pt x="232" y="40" on="1"/>
        <pt x="254" y="35" on="0"/>
        <pt x="309" y="20" on="0"/>
        <pt x="357" y="-7" on="0"/>
        <pt x="390" y="-49" on="0"/>
        <pt x="390" y="-80" on="1"/>
        <pt x="390" y="-112" on="0"/>
        <pt x="356" y="-173" on="0"/>
        <pt x="293" y="-221" on="0"/>
        <pt x="200" y="-250" on="0"/>
      </contour>
      <contour>
        <pt x="244" y="428" on="1"/>
        <pt x="215" y="428" on="0"/>
        <pt x="170" y="404" on="0"/>
        <pt x="139" y="363" on="0"/>
        <pt x="122" y="309" on="0"/>
        <pt x="122" y="278" on="1"/>
        <pt x="122" y="233" on="0"/>
        <pt x="164" y="182" on="0"/>
        <pt x="202" y="182" on="1"/>
        <pt x="230" y="182" on="0"/>
        <pt x="275" y="208" on="0"/>
        <pt x="307" y="250" on="0"/>
        <pt x="324" y="306" on="0"/>
        <pt x="324" y="336" on="1"/>
        <pt x="324" y="381" on="0"/>
        <pt x="282" y="428" on="0"/>
      </contour>
      <contour>
        <pt x="199" y="-32" on="1"/>
        <pt x="178" y="-27" on="0"/>
        <pt x="152" y="-21" on="0"/>
        <pt x="125" y="-14" on="1"/>
        <pt x="108" y="-20" on="0"/>
        <pt x="78" y="-40" on="0"/>
        <pt x="55" y="-66" on="0"/>
        <pt x="41" y="-95" on="0"/>
        <pt x="41" y="-109" on="1"/>
        <pt x="41" y="-139" on="0"/>
        <pt x="99" y="-180" on="0"/>
        <pt x="155" y="-180" on="1"/>
        <pt x="188" y="-180" on="0"/>
        <pt x="242" y="-165" on="0"/>
        <pt x="280" y="-141" on="0"/>
        <pt x="301" y="-111" on="0"/>
        <pt x="301" y="-96" on="1"/>
        <pt x="301" y="-73" on="0"/>
        <pt x="244" y="-41" on="0"/>
      </contour>
    </TTGlyph>
    <TTGlyph name="germandbls" xMin="6" yMin="-136" xMax="487" yMax="750">
      <contour>
        <pt x="235" y="-10" on="1"/>
        <pt x="220" y="-10" on="0"/>
        <pt x="199" y="-8" on="0"/>
        <pt x="187" y="-7" on="1"/>
        <pt x="201" y="70" on="1"/>
        <pt x="243" y="70" on="0"/>
        <pt x="307" y="73" on="0"/>
        <pt x="349" y="90" on="0"/>
        <pt x="371" y="127" on="0"/>
        <pt x="371" y="160" on="1"/>
        <pt x="371" y="196" on="0"/>
        <pt x="338" y="254" on="0"/>
        <pt x="298" y="303" on="0"/>
        <pt x="265" y="345" on="0"/>
        <pt x="265" y="365" on="1"/>
        <pt x="265" y="386" on="0"/>
        <pt x="306" y="432" on="0"/>
        <pt x="355" y="489" on="0"/>
        <pt x="396" y="559" on="0"/>
        <pt x="396" y="604" on="1"/>
        <pt x="396" y="643" on="0"/>
        <pt x="354" y="670" on="0"/>
        <pt x="325" y="670" on="1"/>
        <pt x="303" y="670" on="0"/>
        <pt x="269" y="659" on="0"/>
        <pt x="243" y="631" on="0"/>
        <pt x="224" y="584" on="0"/>
        <pt x="218" y="548" on="1"/>
        <pt x="97" y="-136" on="1"/>
        <pt x="6" y="-136" on="1"/>
        <pt x="104" y="420" on="1"/>
        <pt x="32" y="420" on="1"/>
        <pt x="54" y="490" on="1"/>
        <pt x="117" y="490" on="1"/>
        <pt x="132" y="577" on="1"/>
        <pt x="139" y="619" on="0"/>
        <pt x="178" y="683" on="0"/>
        <pt x="234" y="727" on="0"/>
        <pt x="301" y="750" on="0"/>
        <pt x="336" y="750" on="1"/>
        <pt x="363" y="750" on="0"/>
        <pt x="417" y="735" on="0"/>
        <pt x="460" y="703" on="0"/>
        <pt x="487" y="651" on="0"/>
        <pt x="487" y="615" on="1"/>
        <pt x="487" y="562" on="0"/>
        <pt x="449" y="483" on="0"/>
        <pt x="403" y="425" on="0"/>
        <pt x="365" y="387" on="0"/>
        <pt x="365" y="376" on="1"/>
        <pt x="365" y="364" on="0"/>
        <pt x="396" y="329" on="0"/>
        <pt x="434" y="279" on="0"/>
        <pt x="465" y="213" on="0"/>
        <pt x="465" y="170" on="1"/>
        <pt x="465" y="121" on="0"/>
        <pt x="425" y="52" on="0"/>
        <pt x="360" y="9" on="0"/>
        <pt x="278" y="-10" on="0"/>
      </contour>
    </TTGlyph>
    <TTGlyph name="grave" xMin="169" yMin="596" xMax="333" yMax="732">
      <contour>
        <pt x="169" y="660" on="1"/>
        <pt x="182" y="732" on="1"/>
        <pt x="333" y="637" on="1"/>
        <pt x="326" y="596" on="1"/>
      </contour>
    </TTGlyph>
    <TTGlyph name="greater" xMin="25" yMin="78" xMax="355" yMax="490">
      <contour>
        <pt x="125" y="78" on="1"/>
        <pt x="25" y="78" on="1"/>
        <pt x="255" y="284" on="1"/>
        <pt x="98" y="490" on="1"/>
        <pt x="198" y="490" on="1"/>
        <pt x="355" y="284" on="1"/>
      </contour>
    </TTGlyph>
    <TTGlyph name="guillemotleft" xMin="21" yMin="78" xMax="529" yMax="490">
      <contour>
        <pt x="352" y="78" on="1"/>
        <pt x="255" y="284" on="1"/>
        <pt x="425" y="490" on="1"/>
        <pt x="529" y="490" on="1"/>
        <pt x="359" y="284" on="1"/>
        <pt x="457" y="78" on="1"/>
      </contour>
      <contour>
        <pt x="118" y="78" on="1"/>
        <pt x="21" y="284" on="1"/>
        <pt x="191" y="490" on="1"/>
        <pt x="295" y="490" on="1"/>
        <pt x="125" y="284" on="1"/>
        <pt x="222" y="78" on="1"/>
      </contour>
    </TTGlyph>
    <TTGlyph name="guillemotright" xMin="3" yMin="78" xMax="511" yMax="490">
      <contour>
        <pt x="341" y="78" on="1"/>
        <pt x="237" y="78" on="1"/>
        <pt x="407" y="284" on="1"/>
        <pt x="310" y="490" on="1"/>
        <pt x="413" y="490" on="1"/>
        <pt x="511" y="284" on="1"/>
      </contour>
      <contour>
        <pt x="107" y="78" on="1"/>
        <pt x="3" y="78" on="1"/>
        <pt x="174" y="284" on="1"/>
        <pt x="76" y="490" on="1"/>
        <pt x="180" y="490" on="1"/>
        <pt x="277" y="284" on="1"/>
      </contour>
    </TTGlyph>
    <TTGlyph name="guilsinglleft" xMin="17" yMin="78" xMax="303" yMax="490">
      <contour>
        <pt x="122" y="78" on="1"/>
        <pt x="17" y="284" on="1"/>
        <pt x="194" y="490" on="1"/>
        <pt x="303" y="490" on="1"/>
        <pt x="126" y="284" on="1"/>
        <pt x="231" y="78" on="1"/>
      </contour>
    </TTGlyph>
    <TTGlyph name="guilsinglright" xMin="3" yMin="78" xMax="289" yMax="490">
      <contour>
        <pt x="112" y="78" on="1"/>
        <pt x="3" y="78" on="1"/>
        <pt x="180" y="284" on="1"/>
        <pt x="76" y="490" on="1"/>
        <pt x="185" y="490" on="1"/>
        <pt x="289" y="284" on="1"/>
      </contour>
    </TTGlyph>
    <TTGlyph name="h" xMin="10" yMin="0" xMax="452" yMax="750">
      <contour>
        <pt x="307" y="0" on="1"/>
        <pt x="353" y="262" on="1"/>
        <pt x="357" y="283" on="0"/>
        <pt x="360" y="319" on="0"/>
        <pt x="360" y="334" on="1"/>
        <pt x="360" y="381" on="0"/>
        <pt x="323" y="420" on="0"/>
        <pt x="281" y="420" on="1"/>
        <pt x="244" y="420" on="0"/>
        <pt x="188" y="389" on="0"/>
        <pt x="164" y="356" on="1"/>
        <pt x="101" y="0" on="1"/>
        <pt x="10" y="0" on="1"/>
        <pt x="142" y="750" on="1"/>
        <pt x="234" y="750" on="1"/>
        <pt x="178" y="437" on="1"/>
        <pt x="232" y="500" on="0"/>
        <pt x="306" y="500" on="1"/>
        <pt x="385" y="500" on="0"/>
        <pt x="452" y="415" on="0"/>
        <pt x="452" y="343" on="1"/>
        <pt x="452" y="308" on="0"/>
        <pt x="444" y="262" on="1"/>
        <pt x="398" y="0" on="1"/>
      </contour>
    </TTGlyph>
    <TTGlyph name="hyphen" xMin="48" yMin="238" xMax="342" yMax="324">
      <contour>
        <pt x="48" y="238" on="1"/>
        <pt x="63" y="324" on="1"/>
        <pt x="342" y="324" on="1"/>
        <pt x="327" y="238" on="1"/>
      </contour>
    </TTGlyph>
    <TTGlyph name="i" xMin="10" yMin="0" xMax="224" yMax="700">
      <contour>
        <pt x="116" y="600" on="1"/>
        <pt x="133" y="700" on="1"/>
        <pt x="224" y="700" on="1"/>
        <pt x="207" y="600" on="1"/>
      </contour>
      <contour>
        <pt x="10" y="0" on="1"/>
        <pt x="96" y="490" on="1"/>
        <pt x="187" y="490" on="1"/>
        <pt x="101" y="0" on="1"/>
      </contour>
    </TTGlyph>
    <TTGlyph name="iacute" xMin="10" yMin="0" xMax="269" yMax="732">
      <component glyphName="dotlessi" x="0" y="0" flags="0x204"/>
      <component glyphName="acute" x="-80" y="0" flags="0x4"/>
    </TTGlyph>
    <TTGlyph name="icircumflex" xMin="10" yMin="0" xMax="301" yMax="745">
      <component glyphName="dotlessi" x="0" y="0" flags="0x204"/>
      <component glyphName="circumflex" x="-145" y="0" flags="0x4"/>
    </TTGlyph>
    <TTGlyph name="idieresis" xMin="10" yMin="0" xMax="291" yMax="700">
      <component glyphName="dotlessi" x="0" y="0" flags="0x204"/>
      <component glyphName="dieresis" x="-134" y="0" flags="0x4"/>
    </TTGlyph>
    <TTGlyph name="igrave" xMin="10" yMin="0" xMax="253" yMax="732">
      <component glyphName="dotlessi" x="0" y="0" flags="0x204"/>
      <component glyphName="grave" x="-80" y="0" flags="0x4"/>
    </TTGlyph>
    <TTGlyph name="j" xMin="-85" yMin="-242" xMax="225" yMax="700">
      <contour>
        <pt x="-85" y="-242" on="1"/>
        <pt x="-82" y="-173" on="1"/>
        <pt x="-63" y="-171" on="0"/>
        <pt x="-37" y="-161" on="0"/>
        <pt x="-20" y="-140" on="0"/>
        <pt x="-8" y="-103" on="0"/>
        <pt x="-3" y="-73" on="1"/>
        <pt x="96" y="490" on="1"/>
        <pt x="187" y="490" on="1"/>
        <pt x="82" y="-107" on="1"/>
        <pt x="76" y="-142" on="0"/>
        <pt x="48" y="-189" on="0"/>
        <pt x="12" y="-219" on="0"/>
        <pt x="-31" y="-234" on="0"/>
        <pt x="-53" y="-237" on="1"/>
      </contour>
      <contour>
        <pt x="116" y="600" on="1"/>
        <pt x="134" y="700" on="1"/>
        <pt x="225" y="700" on="1"/>
        <pt x="207" y="600" on="1"/>
      </contour>
    </TTGlyph>
    <TTGlyph name="k" xMin="10" yMin="0" xMax="451" yMax="750">
      <contour>
        <pt x="10" y="0" on="1"/>
        <pt x="142" y="750" on="1"/>
        <pt x="233" y="750" on="1"/>
        <pt x="148" y="269" on="1"/>
        <pt x="343" y="490" on="1"/>
        <pt x="451" y="490" on="1"/>
        <pt x="235" y="264" on="1"/>
        <pt x="367" y="0" on="1"/>
        <pt x="260" y="0" on="1"/>
        <pt x="145" y="249" on="1"/>
        <pt x="101" y="0" on="1"/>
      </contour>
    </TTGlyph>
    <TTGlyph name="l" xMin="24" yMin="-10" xMax="230" yMax="750">
      <contour>
        <pt x="151" y="-10" on="1"/>
        <pt x="120" y="-10" on="1"/>
        <pt x="67" y="-10" on="0"/>
        <pt x="24" y="44" on="0"/>
        <pt x="24" y="81" on="1"/>
        <pt x="24" y="88" on="0"/>
        <pt x="24" y="101" on="0"/>
        <pt x="26" y="108" on="1"/>
        <pt x="139" y="750" on="1"/>
        <pt x="230" y="750" on="1"/>
        <pt x="126" y="160" on="1"/>
        <pt x="123" y="142" on="0"/>
        <pt x="119" y="114" on="0"/>
        <pt x="119" y="103" on="1"/>
        <pt x="119" y="77" on="0"/>
        <pt x="144" y="62" on="0"/>
        <pt x="175" y="62" on="1"/>
      </contour>
    </TTGlyph>
    <TTGlyph name="less" xMin="35" yMin="78" xMax="365" yMax="490">
      <contour>
        <pt x="192" y="78" on="1"/>
        <pt x="35" y="284" on="1"/>
        <pt x="265" y="490" on="1"/>
        <pt x="365" y="490" on="1"/>
        <pt x="135" y="284" on="1"/>
        <pt x="292" y="78" on="1"/>
      </contour>
    </TTGlyph>
    <TTGlyph name="logicalnot" xMin="73" yMin="151" xMax="498" yMax="406">
      <contour>
        <pt x="392" y="151" on="1"/>
        <pt x="426" y="346" on="1"/>
        <pt x="73" y="346" on="1"/>
        <pt x="84" y="406" on="1"/>
        <pt x="498" y="406" on="1"/>
        <pt x="453" y="151" on="1"/>
      </contour>
    </TTGlyph>
    <TTGlyph name="m" xMin="10" yMin="0" xMax="750" yMax="500">
      <contour>
        <pt x="602" y="0" on="1"/>
        <pt x="653" y="288" on="1"/>
        <pt x="655" y="302" on="0"/>
        <pt x="658" y="328" on="0"/>
        <pt x="658" y="339" on="1"/>
        <pt x="658" y="381" on="0"/>
        <pt x="620" y="420" on="0"/>
        <pt x="579" y="420" on="1"/>
        <pt x="544" y="420" on="0"/>
        <pt x="496" y="393" on="0"/>
        <pt x="466" y="352" on="0"/>
        <pt x="451" y="305" on="0"/>
        <pt x="447" y="284" on="1"/>
        <pt x="397" y="0" on="1"/>
        <pt x="306" y="0" on="1"/>
        <pt x="354" y="270" on="1"/>
        <pt x="360" y="307" on="0"/>
        <pt x="360" y="333" on="1"/>
        <pt x="360" y="384" on="0"/>
        <pt x="318" y="420" on="0"/>
        <pt x="281" y="420" on="1"/>
        <pt x="246" y="420" on="0"/>
        <pt x="186" y="389" on="0"/>
        <pt x="164" y="356" on="1"/>
        <pt x="101" y="0" on="1"/>
        <pt x="10" y="0" on="1"/>
        <pt x="96" y="490" on="1"/>
        <pt x="168" y="490" on="1"/>
        <pt x="168" y="438" on="1"/>
        <pt x="206" y="476" on="0"/>
        <pt x="270" y="500" on="0"/>
        <pt x="305" y="500" on="1"/>
        <pt x="324" y="500" on="0"/>
        <pt x="363" y="492" on="0"/>
        <pt x="398" y="471" on="0"/>
        <pt x="425" y="433" on="0"/>
        <pt x="434" y="402" on="1"/>
        <pt x="460" y="448" on="0"/>
        <pt x="547" y="500" on="0"/>
        <pt x="608" y="500" on="1"/>
        <pt x="750" y="500" on="0"/>
        <pt x="750" y="358" on="1"/>
        <pt x="750" y="326" on="0"/>
        <pt x="744" y="289" on="1"/>
        <pt x="693" y="0" on="1"/>
      </contour>
    </TTGlyph>
    <TTGlyph name="mu" xMin="-18" yMin="-242" xMax="491" yMax="490">
      <contour>
        <pt x="450" y="-10" on="1"/>
        <pt x="421" y="-10" on="1"/>
        <pt x="350" y="-10" on="0"/>
        <pt x="337" y="63" on="1"/>
        <pt x="308" y="30" on="0"/>
        <pt x="246" y="-11" on="0"/>
        <pt x="206" y="-11" on="1"/>
        <pt x="181" y="-11" on="0"/>
        <pt x="142" y="2" on="0"/>
        <pt x="119" y="27" on="1"/>
        <pt x="72" y="-242" on="1"/>
        <pt x="-18" y="-242" on="1"/>
        <pt x="111" y="490" on="1"/>
        <pt x="201" y="490" on="1"/>
        <pt x="156" y="232" on="1"/>
        <pt x="152" y="212" on="0"/>
        <pt x="149" y="177" on="0"/>
        <pt x="149" y="162" on="1"/>
        <pt x="149" y="117" on="0"/>
        <pt x="185" y="69" on="0"/>
        <pt x="230" y="69" on="1"/>
        <pt x="263" y="69" on="0"/>
        <pt x="312" y="96" on="0"/>
        <pt x="338" y="127" on="1"/>
        <pt x="402" y="490" on="1"/>
        <pt x="491" y="490" on="1"/>
        <pt x="435" y="170" on="1"/>
        <pt x="431" y="151" on="0"/>
        <pt x="428" y="119" on="0"/>
        <pt x="428" y="106" on="1"/>
        <pt x="428" y="62" on="0"/>
        <pt x="457" y="62" on="1"/>
        <pt x="475" y="62" on="1"/>
      </contour>
    </TTGlyph>
    <TTGlyph name="multiply" xMin="36" yMin="119" xMax="370" yMax="435">
      <contour>
        <pt x="281" y="119" on="1"/>
        <pt x="196" y="242" on="1"/>
        <pt x="69" y="119" on="1"/>
        <pt x="36" y="155" on="1"/>
        <pt x="164" y="277" on="1"/>
        <pt x="79" y="399" on="1"/>
        <pt x="125" y="435" on="1"/>
        <pt x="209" y="312" on="1"/>
        <pt x="337" y="435" on="1"/>
        <pt x="370" y="399" on="1"/>
        <pt x="242" y="277" on="1"/>
        <pt x="327" y="155" on="1"/>
      </contour>
    </TTGlyph>
    <TTGlyph name="n" xMin="10" yMin="0" xMax="462" yMax="500">
      <contour>
        <pt x="316" y="0" on="1"/>
        <pt x="364" y="270" on="1"/>
        <pt x="370" y="304" on="0"/>
        <pt x="370" y="330" on="1"/>
        <pt x="370" y="377" on="0"/>
        <pt x="329" y="420" on="0"/>
        <pt x="284" y="420" on="1"/>
        <pt x="249" y="420" on="0"/>
        <pt x="186" y="389" on="0"/>
        <pt x="164" y="356" on="1"/>
        <pt x="101" y="0" on="1"/>
        <pt x="10" y="0" on="1"/>
        <pt x="96" y="490" on="1"/>
        <pt x="173" y="490" on="1"/>
        <pt x="170" y="438" on="1"/>
        <pt x="209" y="476" on="0"/>
        <pt x="280" y="500" on="0"/>
        <pt x="312" y="500" on="1"/>
        <pt x="392" y="500" on="0"/>
        <pt x="462" y="418" on="0"/>
        <pt x="462" y="346" on="1"/>
        <pt x="462" y="329" on="0"/>
        <pt x="459" y="290" on="0"/>
        <pt x="455" y="270" on="1"/>
        <pt x="407" y="0" on="1"/>
      </contour>
    </TTGlyph>
    <TTGlyph name="nine" xMin="76" yMin="0" xMax="502" yMax="714">
      <contour>
        <pt x="341" y="714" on="1"/>
        <pt x="374" y="714" on="0"/>
        <pt x="433" y="696" on="0"/>
        <pt x="476" y="652" on="0"/>
        <pt x="502" y="581" on="0"/>
        <pt x="502" y="529" on="1"/>
        <pt x="502" y="449" on="0"/>
        <pt x="465" y="308" on="0"/>
        <pt x="406" y="190" on="0"/>
        <pt x="330" y="98" on="0"/>
        <pt x="251" y="34" on="0"/>
        <pt x="176" y="0" on="0"/>
        <pt x="148" y="0" on="1"/>
        <pt x="86" y="38" on="1"/>
        <pt x="118" y="54" on="0"/>
        <pt x="200" y="102" on="0"/>
        <pt x="279" y="172" on="0"/>
        <pt x="348" y="269" on="0"/>
        <pt x="366" y="336" on="1"/>
        <pt x="354" y="322" on="0"/>
        <pt x="322" y="301" on="0"/>
        <pt x="286" y="286" on="0"/>
        <pt x="251" y="279" on="0"/>
        <pt x="236" y="279" on="1"/>
        <pt x="162" y="279" on="0"/>
        <pt x="76" y="357" on="0"/>
        <pt x="76" y="437" on="1"/>
        <pt x="76" y="494" on="0"/>
        <pt x="116" y="595" on="0"/>
        <pt x="186" y="670" on="0"/>
        <pt x="284" y="714" on="0"/>
      </contour>
      <contour>
        <pt x="259" y="361" on="1"/>
        <pt x="287" y="361" on="0"/>
        <pt x="341" y="385" on="0"/>
        <pt x="383" y="429" on="0"/>
        <pt x="408" y="490" on="0"/>
        <pt x="408" y="527" on="1"/>
        <pt x="408" y="553" on="0"/>
        <pt x="393" y="592" on="0"/>
        <pt x="367" y="618" on="0"/>
        <pt x="335" y="631" on="0"/>
        <pt x="317" y="631" on="1"/>
        <pt x="284" y="631" on="0"/>
        <pt x="231" y="600" on="0"/>
        <pt x="194" y="550" on="0"/>
        <pt x="174" y="490" on="0"/>
        <pt x="174" y="460" on="1"/>
        <pt x="174" y="443" on="0"/>
        <pt x="182" y="407" on="0"/>
        <pt x="201" y="379" on="0"/>
        <pt x="234" y="361" on="0"/>
      </contour>
    </TTGlyph>
    <TTGlyph name="nineinferior" xMin="28" yMin="1" xMax="273" yMax="387">
      <component glyphName="ninesuperior" x="-44" y="-319" flags="0x4"/>
    </TTGlyph>
    <TTGlyph name="ninesuperior" xMin="72" yMin="320" xMax="317" yMax="706">
      <contour>
        <pt x="224" y="706" on="1"/>
        <pt x="266" y="706" on="0"/>
        <pt x="317" y="655" on="0"/>
        <pt x="317" y="598" on="1"/>
        <pt x="317" y="542" on="0"/>
        <pt x="275" y="441" on="0"/>
        <pt x="213" y="365" on="0"/>
        <pt x="141" y="320" on="0"/>
        <pt x="111" y="320" on="1"/>
        <pt x="72" y="348" on="1"/>
        <pt x="85" y="348" on="0"/>
        <pt x="133" y="371" on="0"/>
        <pt x="182" y="410" on="0"/>
        <pt x="223" y="461" on="0"/>
        <pt x="229" y="490" on="1"/>
        <pt x="216" y="478" on="0"/>
        <pt x="175" y="471" on="0"/>
        <pt x="165" y="471" on="1"/>
        <pt x="127" y="471" on="0"/>
        <pt x="72" y="515" on="0"/>
        <pt x="72" y="560" on="1"/>
        <pt x="72" y="588" on="0"/>
        <pt x="95" y="641" on="0"/>
        <pt x="135" y="681" on="0"/>
        <pt x="191" y="706" on="0"/>
      </contour>
      <contour>
        <pt x="182" y="529" on="1"/>
        <pt x="211" y="529" on="0"/>
        <pt x="251" y="563" on="0"/>
        <pt x="251" y="598" on="1"/>
        <pt x="251" y="624" on="0"/>
        <pt x="223" y="641" on="0"/>
        <pt x="210" y="641" on="1"/>
        <pt x="195" y="641" on="0"/>
        <pt x="171" y="628" on="0"/>
        <pt x="154" y="608" on="0"/>
        <pt x="145" y="583" on="0"/>
        <pt x="145" y="571" on="1"/>
        <pt x="145" y="554" on="0"/>
        <pt x="163" y="529" on="0"/>
      </contour>
    </TTGlyph>
    <TTGlyph name="ntilde" xMin="10" yMin="0" xMax="489" yMax="702">
      <component glyphName="n" x="0" y="0" flags="0x204"/>
      <component glyphName="tilde" x="-32" y="0" flags="0x4"/>
    </TTGlyph>
    <TTGlyph name="numbersign" xMin="11" yMin="-11" xMax="649" yMax="700">
      <contour>
        <pt x="607" y="423" on="1"/>
        <pt x="503" y="423" on="1"/>
        <pt x="440" y="300" on="1"/>
        <pt x="554" y="300" on="1"/>
        <pt x="504" y="216" on="1"/>
        <pt x="395" y="216" on="1"/>
        <pt x="278" y="-11" on="1"/>
        <pt x="202" y="-11" on="1"/>
        <pt x="318" y="216" on="1"/>
        <pt x="204" y="216" on="1"/>
        <pt x="87" y="-11" on="1"/>
        <pt x="11" y="-11" on="1"/>
        <pt x="128" y="216" on="1"/>
        <pt x="20" y="216" on="1"/>
        <pt x="70" y="300" on="1"/>
        <pt x="173" y="300" on="1"/>
        <pt x="235" y="423" on="1"/>
        <pt x="123" y="423" on="1"/>
        <pt x="165" y="507" on="1"/>
        <pt x="281" y="507" on="1"/>
        <pt x="381" y="700" on="1"/>
        <pt x="457" y="700" on="1"/>
        <pt x="357" y="507" on="1"/>
        <pt x="471" y="507" on="1"/>
        <pt x="571" y="700" on="1"/>
        <pt x="648" y="700" on="1"/>
        <pt x="548" y="507" on="1"/>
        <pt x="649" y="507" on="1"/>
      </contour>
      <contour>
        <pt x="312" y="423" on="1"/>
        <pt x="249" y="300" on="1"/>
        <pt x="363" y="300" on="1"/>
        <pt x="426" y="423" on="1"/>
      </contour>
    </TTGlyph>
    <TTGlyph name="o" xMin="21" yMin="-10" xMax="475" yMax="500">
      <contour>
        <pt x="203" y="-10" on="1"/>
        <pt x="158" y="-10" on="0"/>
        <pt x="90" y="22" on="0"/>
        <pt x="44" y="77" on="0"/>
        <pt x="21" y="152" on="0"/>
        <pt x="21" y="196" on="1"/>
        <pt x="21" y="257" on="0"/>
        <pt x="60" y="367" on="0"/>
        <pt x="132" y="451" on="0"/>
        <pt x="232" y="500" on="0"/>
        <pt x="293" y="500" on="1"/>
        <pt x="338" y="500" on="0"/>
        <pt x="406" y="468" on="0"/>
        <pt x="452" y="413" on="0"/>
        <pt x="475" y="337" on="0"/>
        <pt x="475" y="294" on="1"/>
        <pt x="475" y="233" on="0"/>
        <pt x="436" y="123" on="0"/>
        <pt x="364" y="39" on="0"/>
        <pt x="264" y="-10" on="0"/>
      </contour>
      <contour>
        <pt x="279" y="420" on="1"/>
        <pt x="241" y="420" on="0"/>
        <pt x="180" y="387" on="0"/>
        <pt x="137" y="329" on="0"/>
        <pt x="114" y="248" on="0"/>
        <pt x="114" y="200" on="1"/>
        <pt x="114" y="139" on="0"/>
        <pt x="166" y="70" on="0"/>
        <pt x="217" y="70" on="1"/>
        <pt x="255" y="70" on="0"/>
        <pt x="316" y="103" on="0"/>
        <pt x="359" y="161" on="0"/>
        <pt x="382" y="242" on="0"/>
        <pt x="382" y="290" on="1"/>
        <pt x="382" y="351" on="0"/>
        <pt x="330" y="420" on="0"/>
      </contour>
    </TTGlyph>
    <TTGlyph name="oacute" xMin="21" yMin="-10" xMax="475" yMax="732">
      <component glyphName="o" x="0" y="0" flags="0x204"/>
      <component glyphName="acute" x="68" y="0" flags="0x4"/>
    </TTGlyph>
    <TTGlyph name="ocircumflex" xMin="21" yMin="-10" xMax="475" yMax="745">
      <component glyphName="o" x="0" y="0" flags="0x204"/>
      <component glyphName="circumflex" x="4" y="0" flags="0x4"/>
    </TTGlyph>
    <TTGlyph name="odieresis" xMin="21" yMin="-10" xMax="475" yMax="700">
      <component glyphName="o" x="0" y="0" flags="0x204"/>
      <component glyphName="dieresis" x="15" y="0" flags="0x4"/>
    </TTGlyph>
    <TTGlyph name="oe" xMin="22" yMin="-10" xMax="796" yMax="500">
      <contour>
        <pt x="475" y="245" on="1"/>
        <pt x="473" y="230" on="0"/>
        <pt x="470" y="202" on="0"/>
        <pt x="470" y="190" on="1"/>
        <pt x="470" y="149" on="0"/>
        <pt x="492" y="99" on="0"/>
        <pt x="525" y="72" on="0"/>
        <pt x="564" y="62" on="0"/>
        <pt x="582" y="62" on="1"/>
        <pt x="618" y="62" on="0"/>
        <pt x="697" y="83" on="0"/>
        <pt x="728" y="99" on="1"/>
        <pt x="722" y="22" on="1"/>
        <pt x="695" y="9" on="0"/>
        <pt x="620" y="-10" on="0"/>
        <pt x="575" y="-10" on="1"/>
        <pt x="496" y="-10" on="0"/>
        <pt x="414" y="44" on="0"/>
        <pt x="400" y="97" on="1"/>
        <pt x="368" y="44" on="0"/>
        <pt x="262" y="-10" on="0"/>
        <pt x="205" y="-10" on="1"/>
        <pt x="160" y="-10" on="0"/>
        <pt x="92" y="22" on="0"/>
        <pt x="45" y="79" on="0"/>
        <pt x="22" y="156" on="0"/>
        <pt x="22" y="200" on="1"/>
        <pt x="22" y="261" on="0"/>
        <pt x="61" y="370" on="0"/>
        <pt x="133" y="452" on="0"/>
        <pt x="235" y="500" on="0"/>
        <pt x="297" y="500" on="1"/>
        <pt x="322" y="500" on="0"/>
        <pt x="372" y="488" on="0"/>
        <pt x="413" y="463" on="0"/>
        <pt x="444" y="424" on="0"/>
        <pt x="451" y="398" on="1"/>
        <pt x="486" y="450" on="0"/>
        <pt x="587" y="500" on="0"/>
        <pt x="634" y="500" on="1"/>
        <pt x="708" y="500" on="0"/>
        <pt x="796" y="413" on="0"/>
        <pt x="796" y="335" on="1"/>
        <pt x="796" y="313" on="0"/>
        <pt x="792" y="284" on="0"/>
        <pt x="786" y="265" on="0"/>
        <pt x="780" y="251" on="0"/>
        <pt x="778" y="245" on="1"/>
      </contour>
      <contour>
        <pt x="620" y="420" on="1"/>
        <pt x="574" y="420" on="0"/>
        <pt x="509" y="368" on="0"/>
        <pt x="488" y="307" on="1"/>
        <pt x="701" y="307" on="1"/>
        <pt x="702" y="314" on="0"/>
        <pt x="703" y="326" on="0"/>
        <pt x="703" y="332" on="1"/>
        <pt x="703" y="374" on="0"/>
        <pt x="661" y="420" on="0"/>
      </contour>
      <contour>
        <pt x="283" y="420" on="1"/>
        <pt x="242" y="420" on="0"/>
        <pt x="180" y="387" on="0"/>
        <pt x="136" y="329" on="0"/>
        <pt x="114" y="248" on="0"/>
        <pt x="114" y="200" on="1"/>
        <pt x="114" y="139" on="0"/>
        <pt x="167" y="70" on="0"/>
        <pt x="221" y="70" on="1"/>
        <pt x="261" y="70" on="0"/>
        <pt x="322" y="107" on="0"/>
        <pt x="364" y="168" on="0"/>
        <pt x="386" y="246" on="0"/>
        <pt x="386" y="288" on="1"/>
        <pt x="386" y="346" on="0"/>
        <pt x="335" y="420" on="0"/>
      </contour>
    </TTGlyph>
    <TTGlyph name="ograve" xMin="21" yMin="-10" xMax="475" yMax="732">
      <component glyphName="o" x="0" y="0" flags="0x204"/>
      <component glyphName="grave" x="68" y="0" flags="0x4"/>
    </TTGlyph>
    <TTGlyph name="one" xMin="92" yMin="0" xMax="314" yMax="700">
      <contour>
        <pt x="92" y="0" on="1"/>
        <pt x="192" y="563" on="1"/>
        <pt x="159" y="534" on="0"/>
        <pt x="113" y="509" on="0"/>
        <pt x="92" y="502" on="1"/>
        <pt x="95" y="591" on="1"/>
        <pt x="113" y="598" on="0"/>
        <pt x="154" y="620" on="0"/>
        <pt x="194" y="649" on="0"/>
        <pt x="229" y="682" on="0"/>
        <pt x="241" y="700" on="1"/>
        <pt x="314" y="700" on="1"/>
        <pt x="191" y="0" on="1"/>
      </contour>
    </TTGlyph>
    <TTGlyph name="onehalf" xMin="-8" yMin="-85" xMax="622" yMax="700">
      <component glyphName="onesuperior" x="14" y="0" flags="0x4"/>
      <component glyphName="slash" x="36" y="0" flags="0x4"/>
      <component glyphName="twosuperior" x="326" y="-319" flags="0x4"/>
    </TTGlyph>
    <TTGlyph name="oneinferior" xMin="37" yMin="1" xMax="177" yMax="379">
      <component glyphName="onesuperior" x="-41" y="-319" flags="0x4"/>
    </TTGlyph>
    <TTGlyph name="onequarter" xMin="-5" yMin="-85" xMax="603" yMax="700">
      <component glyphName="onesuperior" x="15" y="0" flags="0x4"/>
      <component glyphName="slash" x="39" y="0" flags="0x4"/>
      <component glyphName="foursuperior" x="287" y="-319" flags="0x4"/>
    </TTGlyph>
    <TTGlyph name="onesuperior" xMin="78" yMin="320" xMax="218" yMax="698">
      <contour>
        <pt x="78" y="320" on="1"/>
        <pt x="127" y="596" on="1"/>
        <pt x="119" y="591" on="0"/>
        <pt x="96" y="581" on="0"/>
        <pt x="81" y="579" on="1"/>
        <pt x="88" y="639" on="1"/>
        <pt x="95" y="640" on="0"/>
        <pt x="117" y="652" on="0"/>
        <pt x="138" y="668" on="0"/>
        <pt x="156" y="688" on="0"/>
        <pt x="161" y="698" on="1"/>
        <pt x="218" y="698" on="1"/>
        <pt x="152" y="320" on="1"/>
      </contour>
    </TTGlyph>
    <TTGlyph name="ordfeminine" xMin="72" yMin="434" xMax="326" yMax="725">
      <contour>
        <pt x="310" y="434" on="1"/>
        <pt x="276" y="434" on="1"/>
        <pt x="259" y="434" on="0"/>
        <pt x="229" y="451" on="0"/>
        <pt x="224" y="465" on="1"/>
        <pt x="209" y="450" on="0"/>
        <pt x="159" y="434" on="0"/>
        <pt x="136" y="434" on="1"/>
        <pt x="109" y="434" on="0"/>
        <pt x="72" y="471" on="0"/>
        <pt x="72" y="503" on="1"/>
        <pt x="72" y="538" on="0"/>
        <pt x="112" y="583" on="0"/>
        <pt x="166" y="609" on="0"/>
        <pt x="223" y="619" on="0"/>
        <pt x="240" y="620" on="1"/>
        <pt x="240" y="641" on="0"/>
        <pt x="229" y="662" on="0"/>
        <pt x="204" y="662" on="1"/>
        <pt x="184" y="662" on="0"/>
        <pt x="147" y="652" on="0"/>
        <pt x="124" y="642" on="1"/>
        <pt x="129" y="702" on="1"/>
        <pt x="159" y="714" on="0"/>
        <pt x="211" y="725" on="0"/>
        <pt x="235" y="725" on="1"/>
        <pt x="273" y="725" on="0"/>
        <pt x="319" y="688" on="0"/>
        <pt x="319" y="646" on="1"/>
        <pt x="319" y="612" on="0"/>
        <pt x="299" y="547" on="0"/>
        <pt x="299" y="512" on="1"/>
        <pt x="299" y="501" on="0"/>
        <pt x="307" y="495" on="0"/>
        <pt x="315" y="495" on="1"/>
        <pt x="326" y="495" on="1"/>
      </contour>
      <contour>
        <pt x="232" y="570" on="1"/>
        <pt x="224" y="570" on="0"/>
        <pt x="197" y="563" on="0"/>
        <pt x="172" y="549" on="0"/>
        <pt x="153" y="528" on="0"/>
        <pt x="153" y="513" on="1"/>
        <pt x="153" y="490" on="0"/>
        <pt x="182" y="490" on="1"/>
        <pt x="186" y="490" on="0"/>
        <pt x="209" y="498" on="0"/>
        <pt x="221" y="507" on="1"/>
      </contour>
    </TTGlyph>
    <TTGlyph name="ordmasculine" xMin="82" yMin="434" xMax="366" yMax="725">
      <contour>
        <pt x="198" y="434" on="1"/>
        <pt x="169" y="434" on="0"/>
        <pt x="126" y="453" on="0"/>
        <pt x="97" y="486" on="0"/>
        <pt x="82" y="531" on="0"/>
        <pt x="82" y="556" on="1"/>
        <pt x="82" y="589" on="0"/>
        <pt x="106" y="650" on="0"/>
        <pt x="150" y="697" on="0"/>
        <pt x="212" y="725" on="0"/>
        <pt x="249" y="725" on="1"/>
        <pt x="278" y="725" on="0"/>
        <pt x="322" y="706" on="0"/>
        <pt x="351" y="673" on="0"/>
        <pt x="366" y="629" on="0"/>
        <pt x="366" y="604" on="1"/>
        <pt x="366" y="571" on="0"/>
        <pt x="342" y="510" on="0"/>
        <pt x="297" y="463" on="0"/>
        <pt x="235" y="434" on="0"/>
      </contour>
      <contour>
        <pt x="239" y="666" on="1"/>
        <pt x="221" y="666" on="0"/>
        <pt x="192" y="649" on="0"/>
        <pt x="171" y="620" on="0"/>
        <pt x="160" y="581" on="0"/>
        <pt x="160" y="559" on="1"/>
        <pt x="160" y="530" on="0"/>
        <pt x="184" y="494" on="0"/>
        <pt x="209" y="494" on="1"/>
        <pt x="227" y="494" on="0"/>
        <pt x="256" y="511" on="0"/>
        <pt x="277" y="540" on="0"/>
        <pt x="288" y="579" on="0"/>
        <pt x="288" y="601" on="1"/>
        <pt x="288" y="630" on="0"/>
        <pt x="263" y="666" on="0"/>
      </contour>
    </TTGlyph>
    <TTGlyph name="oslash" xMin="23" yMin="-41" xMax="489" yMax="528">
      <contour>
        <pt x="211" y="-14" on="1"/>
        <pt x="194" y="-14" on="0"/>
        <pt x="160" y="-9" on="0"/>
        <pt x="140" y="-3" on="1"/>
        <pt x="117" y="-41" on="1"/>
        <pt x="43" y="-41" on="1"/>
        <pt x="84" y="25" on="1"/>
        <pt x="53" y="57" on="0"/>
        <pt x="23" y="147" on="0"/>
        <pt x="23" y="196" on="1"/>
        <pt x="23" y="255" on="0"/>
        <pt x="63" y="365" on="0"/>
        <pt x="137" y="449" on="0"/>
        <pt x="239" y="500" on="0"/>
        <pt x="301" y="500" on="1"/>
        <pt x="318" y="500" on="0"/>
        <pt x="349" y="495" on="0"/>
        <pt x="369" y="488" on="1"/>
        <pt x="393" y="528" on="1"/>
        <pt x="469" y="528" on="1"/>
        <pt x="426" y="462" on="1"/>
        <pt x="458" y="429" on="0"/>
        <pt x="489" y="338" on="0"/>
        <pt x="489" y="289" on="1"/>
        <pt x="489" y="229" on="0"/>
        <pt x="449" y="120" on="0"/>
        <pt x="376" y="36" on="0"/>
        <pt x="273" y="-14" on="0"/>
      </contour>
      <contour>
        <pt x="184" y="62" on="1"/>
        <pt x="201" y="58" on="0"/>
        <pt x="217" y="56" on="0"/>
        <pt x="224" y="56" on="1"/>
        <pt x="262" y="56" on="0"/>
        <pt x="324" y="95" on="0"/>
        <pt x="369" y="162" on="0"/>
        <pt x="394" y="253" on="0"/>
        <pt x="394" y="304" on="1"/>
        <pt x="394" y="327" on="0"/>
        <pt x="387" y="381" on="0"/>
        <pt x="378" y="392" on="1"/>
      </contour>
      <contour>
        <pt x="288" y="430" on="1"/>
        <pt x="250" y="430" on="0"/>
        <pt x="188" y="392" on="0"/>
        <pt x="143" y="328" on="0"/>
        <pt x="119" y="245" on="0"/>
        <pt x="119" y="200" on="1"/>
        <pt x="119" y="179" on="0"/>
        <pt x="125" y="123" on="0"/>
        <pt x="133" y="94" on="1"/>
        <pt x="325" y="423" on="1"/>
        <pt x="308" y="428" on="0"/>
        <pt x="295" y="430" on="0"/>
      </contour>
    </TTGlyph>
    <TTGlyph name="otilde" xMin="21" yMin="-10" xMax="487" yMax="702">
      <component glyphName="o" x="0" y="0" flags="0x204"/>
      <component glyphName="tilde" x="-34" y="0" flags="0x4"/>
    </TTGlyph>
    <TTGlyph name="p" xMin="-33" yMin="-242" xMax="482" yMax="500">
      <contour>
        <pt x="227" y="-10" on="1"/>
        <pt x="195" y="-10" on="0"/>
        <pt x="129" y="26" on="0"/>
        <pt x="111" y="62" on="1"/>
        <pt x="58" y="-242" on="1"/>
        <pt x="-33" y="-242" on="1"/>
        <pt x="96" y="490" on="1"/>
        <pt x="170" y="490" on="1"/>
        <pt x="167" y="420" on="1"/>
        <pt x="200" y="458" on="0"/>
        <pt x="268" y="500" on="0"/>
        <pt x="317" y="500" on="1"/>
        <pt x="358" y="500" on="0"/>
        <pt x="420" y="467" on="0"/>
        <pt x="461" y="411" on="0"/>
        <pt x="482" y="336" on="0"/>
        <pt x="482" y="295" on="1"/>
        <pt x="482" y="236" on="0"/>
        <pt x="447" y="126" on="0"/>
        <pt x="382" y="41" on="0"/>
        <pt x="287" y="-10" on="0"/>
      </contour>
      <contour>
        <pt x="294" y="420" on="1"/>
        <pt x="264" y="420" on="0"/>
        <pt x="206" y="392" on="0"/>
        <pt x="161" y="336" on="0"/>
        <pt x="134" y="254" on="0"/>
        <pt x="134" y="200" on="1"/>
        <pt x="134" y="132" on="0"/>
        <pt x="190" y="70" on="0"/>
        <pt x="232" y="70" on="1"/>
        <pt x="266" y="70" on="0"/>
        <pt x="323" y="106" on="0"/>
        <pt x="365" y="166" on="0"/>
        <pt x="388" y="245" on="0"/>
        <pt x="388" y="287" on="1"/>
        <pt x="388" y="345" on="0"/>
        <pt x="341" y="420" on="0"/>
      </contour>
    </TTGlyph>
    <TTGlyph name="paragraph" xMin="63" yMin="0" xMax="599" yMax="700">
      <contour>
        <pt x="521" y="633" on="1"/>
        <pt x="409" y="0" on="1"/>
        <pt x="355" y="0" on="1"/>
        <pt x="466" y="633" on="1"/>
        <pt x="387" y="633" on="1"/>
        <pt x="275" y="0" on="1"/>
        <pt x="230" y="0" on="1"/>
        <pt x="273" y="243" on="1"/>
        <pt x="217" y="247" on="0"/>
        <pt x="138" y="283" on="0"/>
        <pt x="87" y="338" on="0"/>
        <pt x="63" y="406" on="0"/>
        <pt x="63" y="442" on="1"/>
        <pt x="63" y="487" on="0"/>
        <pt x="102" y="579" on="0"/>
        <pt x="178" y="653" on="0"/>
        <pt x="291" y="700" on="0"/>
        <pt x="365" y="700" on="1"/>
        <pt x="599" y="700" on="1"/>
        <pt x="587" y="633" on="1"/>
      </contour>
    </TTGlyph>
    <TTGlyph name="parenleft" xMin="32" yMin="-136" xMax="312" yMax="750">
      <contour>
        <pt x="75" y="-136" on="1"/>
        <pt x="55" y="-85" on="0"/>
        <pt x="32" y="53" on="0"/>
        <pt x="32" y="136" on="1"/>
        <pt x="32" y="224" on="0"/>
        <pt x="55" y="384" on="0"/>
        <pt x="103" y="535" on="0"/>
        <pt x="178" y="679" on="0"/>
        <pt x="231" y="750" on="1"/>
        <pt x="312" y="750" on="1"/>
        <pt x="271" y="692" on="0"/>
        <pt x="197" y="565" on="0"/>
        <pt x="141" y="421" on="0"/>
        <pt x="109" y="257" on="0"/>
        <pt x="109" y="163" on="1"/>
        <pt x="109" y="75" on="0"/>
        <pt x="135" y="-80" on="0"/>
        <pt x="155" y="-136" on="1"/>
      </contour>
    </TTGlyph>
    <TTGlyph name="parenright" xMin="-49" yMin="-136" xMax="231" yMax="750">
      <contour>
        <pt x="-49" y="-136" on="1"/>
        <pt x="-8" y="-78" on="0"/>
        <pt x="66" y="49" on="0"/>
        <pt x="121" y="193" on="0"/>
        <pt x="153" y="356" on="0"/>
        <pt x="153" y="451" on="1"/>
        <pt x="153" y="539" on="0"/>
        <pt x="127" y="694" on="0"/>
        <pt x="107" y="750" on="1"/>
        <pt x="188" y="750" on="1"/>
        <pt x="208" y="699" on="0"/>
        <pt x="231" y="561" on="0"/>
        <pt x="231" y="478" on="1"/>
        <pt x="231" y="390" on="0"/>
        <pt x="208" y="230" on="0"/>
        <pt x="160" y="79" on="0"/>
        <pt x="84" y="-65" on="0"/>
        <pt x="32" y="-136" on="1"/>
      </contour>
    </TTGlyph>
    <TTGlyph name="percent" xMin="72" yMin="-14" xMax="717" yMax="705">
      <contour>
        <pt x="170" y="-12" on="1"/>
        <pt x="94" y="-12" on="1"/>
        <pt x="599" y="700" on="1"/>
        <pt x="674" y="700" on="1"/>
      </contour>
      <contour>
        <pt x="178" y="333" on="1"/>
        <pt x="129" y="333" on="0"/>
        <pt x="72" y="404" on="0"/>
        <pt x="72" y="470" on="1"/>
        <pt x="72" y="525" on="0"/>
        <pt x="102" y="612" on="0"/>
        <pt x="151" y="673" on="0"/>
        <pt x="215" y="705" on="0"/>
        <pt x="248" y="705" on="1"/>
        <pt x="296" y="705" on="0"/>
        <pt x="353" y="633" on="0"/>
        <pt x="353" y="567" on="1"/>
        <pt x="353" y="514" on="0"/>
        <pt x="326" y="427" on="0"/>
        <pt x="278" y="366" on="0"/>
        <pt x="214" y="333" on="0"/>
      </contour>
      <contour>
        <pt x="238" y="653" on="1"/>
        <pt x="219" y="653" on="0"/>
        <pt x="181" y="628" on="0"/>
        <pt x="150" y="581" on="0"/>
        <pt x="131" y="518" on="0"/>
        <pt x="131" y="481" on="1"/>
        <pt x="131" y="437" on="0"/>
        <pt x="162" y="385" on="0"/>
        <pt x="188" y="385" on="1"/>
        <pt x="209" y="385" on="0"/>
        <pt x="247" y="411" on="0"/>
        <pt x="277" y="458" on="0"/>
        <pt x="294" y="520" on="0"/>
        <pt x="294" y="556" on="1"/>
        <pt x="294" y="601" on="0"/>
        <pt x="263" y="653" on="0"/>
      </contour>
      <contour>
        <pt x="541" y="-14" on="1"/>
        <pt x="492" y="-14" on="0"/>
        <pt x="436" y="57" on="0"/>
        <pt x="436" y="123" on="1"/>
        <pt x="436" y="178" on="0"/>
        <pt x="466" y="265" on="0"/>
        <pt x="515" y="326" on="0"/>
        <pt x="578" y="358" on="0"/>
        <pt x="611" y="358" on="1"/>
        <pt x="659" y="358" on="0"/>
        <pt x="717" y="286" on="0"/>
        <pt x="717" y="220" on="1"/>
        <pt x="717" y="167" on="0"/>
        <pt x="689" y="80" on="0"/>
        <pt x="641" y="19" on="0"/>
        <pt x="577" y="-14" on="0"/>
      </contour>
      <contour>
        <pt x="601" y="306" on="1"/>
        <pt x="582" y="306" on="0"/>
        <pt x="544" y="281" on="0"/>
        <pt x="513" y="234" on="0"/>
        <pt x="494" y="171" on="0"/>
        <pt x="494" y="134" on="1"/>
        <pt x="494" y="90" on="0"/>
        <pt x="526" y="38" on="0"/>
        <pt x="551" y="38" on="1"/>
        <pt x="572" y="38" on="0"/>
        <pt x="611" y="64" on="0"/>
        <pt x="641" y="111" on="0"/>
        <pt x="658" y="173" on="0"/>
        <pt x="658" y="209" on="1"/>
        <pt x="658" y="254" on="0"/>
        <pt x="626" y="306" on="0"/>
      </contour>
    </TTGlyph>
    <TTGlyph name="period" xMin="7" yMin="0" xMax="113" yMax="86">
      <contour>
        <pt x="7" y="0" on="1"/>
        <pt x="22" y="86" on="1"/>
        <pt x="113" y="86" on="1"/>
        <pt x="98" y="0" on="1"/>
      </contour>
    </TTGlyph>
    <TTGlyph name="periodcentered" xMin="44" yMin="213" xMax="179" yMax="343">
      <contour>
        <pt x="44" y="213" on="1"/>
        <pt x="67" y="343" on="1"/>
        <pt x="179" y="343" on="1"/>
        <pt x="156" y="213" on="1"/>
      </contour>
    </TTGlyph>
    <TTGlyph name="perthousand" xMin="73" yMin="-14" xMax="1041" yMax="705">
      <contour>
        <pt x="171" y="-12" on="1"/>
        <pt x="95" y="-12" on="1"/>
        <pt x="600" y="700" on="1"/>
        <pt x="675" y="700" on="1"/>
      </contour>
      <contour>
        <pt x="179" y="333" on="1"/>
        <pt x="130" y="333" on="0"/>
        <pt x="73" y="404" on="0"/>
        <pt x="73" y="470" on="1"/>
        <pt x="73" y="525" on="0"/>
        <pt x="103" y="612" on="0"/>
        <pt x="152" y="673" on="0"/>
        <pt x="216" y="705" on="0"/>
        <pt x="249" y="705" on="1"/>
        <pt x="297" y="705" on="0"/>
        <pt x="354" y="633" on="0"/>
        <pt x="354" y="567" on="1"/>
        <pt x="354" y="514" on="0"/>
        <pt x="327" y="427" on="0"/>
        <pt x="279" y="366" on="0"/>
        <pt x="215" y="333" on="0"/>
      </contour>
      <contour>
        <pt x="239" y="653" on="1"/>
        <pt x="220" y="653" on="0"/>
        <pt x="182" y="628" on="0"/>
        <pt x="151" y="581" on="0"/>
        <pt x="132" y="518" on="0"/>
        <pt x="132" y="481" on="1"/>
        <pt x="132" y="437" on="0"/>
        <pt x="163" y="385" on="0"/>
        <pt x="189" y="385" on="1"/>
        <pt x="210" y="385" on="0"/>
        <pt x="248" y="411" on="0"/>
        <pt x="278" y="458" on="0"/>
        <pt x="295" y="520" on="0"/>
        <pt x="295" y="556" on="1"/>
        <pt x="295" y="601" on="0"/>
        <pt x="264" y="653" on="0"/>
      </contour>
      <contour>
        <pt x="542" y="-14" on="1"/>
        <pt x="493" y="-14" on="0"/>
        <pt x="437" y="57" on="0"/>
        <pt x="437" y="123" on="1"/>
        <pt x="437" y="178" on="0"/>
        <pt x="467" y="265" on="0"/>
        <pt x="516" y="326" on="0"/>
        <pt x="579" y="358" on="0"/>
        <pt x="612" y="358" on="1"/>
        <pt x="660" y="358" on="0"/>
        <pt x="718" y="286" on="0"/>
        <pt x="718" y="220" on="1"/>
        <pt x="718" y="167" on="0"/>
        <pt x="690" y="80" on="0"/>
        <pt x="642" y="19" on="0"/>
        <pt x="578" y="-14" on="0"/>
      </contour>
      <contour>
        <pt x="602" y="306" on="1"/>
        <pt x="583" y="306" on="0"/>
        <pt x="545" y="281" on="0"/>
        <pt x="514" y="234" on="0"/>
        <pt x="495" y="171" on="0"/>
        <pt x="495" y="134" on="1"/>
        <pt x="495" y="90" on="0"/>
        <pt x="527" y="38" on="0"/>
        <pt x="552" y="38" on="1"/>
        <pt x="573" y="38" on="0"/>
        <pt x="612" y="64" on="0"/>
        <pt x="642" y="111" on="0"/>
        <pt x="659" y="173" on="0"/>
        <pt x="659" y="209" on="1"/>
        <pt x="659" y="254" on="0"/>
        <pt x="627" y="306" on="0"/>
      </contour>
      <contour>
        <pt x="866" y="-14" on="1"/>
        <pt x="817" y="-14" on="0"/>
        <pt x="760" y="57" on="0"/>
        <pt x="760" y="123" on="1"/>
        <pt x="760" y="178" on="0"/>
        <pt x="790" y="265" on="0"/>
        <pt x="839" y="326" on="0"/>
        <pt x="903" y="358" on="0"/>
        <pt x="936" y="358" on="1"/>
        <pt x="984" y="358" on="0"/>
        <pt x="1041" y="286" on="0"/>
        <pt x="1041" y="220" on="1"/>
        <pt x="1041" y="167" on="0"/>
        <pt x="1014" y="80" on="0"/>
        <pt x="966" y="19" on="0"/>
        <pt x="902" y="-14" on="0"/>
      </contour>
      <contour>
        <pt x="926" y="306" on="1"/>
        <pt x="907" y="306" on="0"/>
        <pt x="869" y="281" on="0"/>
        <pt x="838" y="234" on="0"/>
        <pt x="819" y="171" on="0"/>
        <pt x="819" y="134" on="1"/>
        <pt x="819" y="90" on="0"/>
        <pt x="850" y="38" on="0"/>
        <pt x="876" y="38" on="1"/>
        <pt x="897" y="38" on="0"/>
        <pt x="936" y="64" on="0"/>
        <pt x="966" y="111" on="0"/>
        <pt x="983" y="173" on="0"/>
        <pt x="983" y="209" on="1"/>
        <pt x="983" y="254" on="0"/>
        <pt x="951" y="306" on="0"/>
      </contour>
    </TTGlyph>
    <TTGlyph name="plus" xMin="36" yMin="102" xMax="384" yMax="452">
      <contour>
        <pt x="241" y="238" on="1"/>
        <pt x="217" y="102" on="1"/>
        <pt x="141" y="102" on="1"/>
        <pt x="164" y="238" on="1"/>
        <pt x="36" y="238" on="1"/>
        <pt x="51" y="324" on="1"/>
        <pt x="180" y="324" on="1"/>
        <pt x="202" y="452" on="1"/>
        <pt x="278" y="452" on="1"/>
        <pt x="256" y="324" on="1"/>
        <pt x="384" y="324" on="1"/>
        <pt x="369" y="238" on="1"/>
      </contour>
    </TTGlyph>
    <TTGlyph name="plusminus" xMin="22" yMin="42" xMax="417" yMax="532">
      <contour>
        <pt x="272" y="327" on="1"/>
        <pt x="246" y="183" on="1"/>
        <pt x="180" y="183" on="1"/>
        <pt x="206" y="327" on="1"/>
        <pt x="72" y="327" on="1"/>
        <pt x="84" y="394" on="1"/>
        <pt x="217" y="394" on="1"/>
        <pt x="242" y="532" on="1"/>
        <pt x="308" y="532" on="1"/>
        <pt x="284" y="394" on="1"/>
        <pt x="417" y="394" on="1"/>
        <pt x="405" y="327" on="1"/>
      </contour>
      <contour>
        <pt x="22" y="42" on="1"/>
        <pt x="34" y="109" on="1"/>
        <pt x="367" y="109" on="1"/>
        <pt x="355" y="42" on="1"/>
      </contour>
    </TTGlyph>
    <TTGlyph name="q" xMin="21" yMin="-242" xMax="494" yMax="500">
      <contour>
        <pt x="187" y="-10" on="1"/>
        <pt x="145" y="-10" on="0"/>
        <pt x="82" y="20" on="0"/>
        <pt x="41" y="74" on="0"/>
        <pt x="21" y="147" on="0"/>
        <pt x="21" y="189" on="1"/>
        <pt x="21" y="249" on="0"/>
        <pt x="58" y="361" on="0"/>
        <pt x="126" y="448" on="0"/>
        <pt x="220" y="500" on="0"/>
        <pt x="276" y="500" on="1"/>
        <pt x="325" y="500" on="0"/>
        <pt x="379" y="458" on="0"/>
        <pt x="399" y="420" on="1"/>
        <pt x="420" y="490" on="1"/>
        <pt x="494" y="490" on="1"/>
        <pt x="365" y="-242" on="1"/>
        <pt x="274" y="-242" on="1"/>
        <pt x="328" y="62" on="1"/>
        <pt x="297" y="26" on="0"/>
        <pt x="219" y="-10" on="0"/>
      </contour>
      <contour>
        <pt x="271" y="420" on="1"/>
        <pt x="237" y="420" on="0"/>
        <pt x="180" y="385" on="0"/>
        <pt x="139" y="325" on="0"/>
        <pt x="116" y="247" on="0"/>
        <pt x="116" y="204" on="1"/>
        <pt x="116" y="176" on="0"/>
        <pt x="128" y="127" on="0"/>
        <pt x="151" y="91" on="0"/>
        <pt x="186" y="70" on="0"/>
        <pt x="209" y="70" on="1"/>
        <pt x="240" y="70" on="0"/>
        <pt x="298" y="97" on="0"/>
        <pt x="343" y="151" on="0"/>
        <pt x="370" y="233" on="0"/>
        <pt x="370" y="288" on="1"/>
        <pt x="370" y="354" on="0"/>
        <pt x="313" y="420" on="0"/>
      </contour>
    </TTGlyph>
    <TTGlyph name="question" xMin="90" yMin="0" xMax="416" yMax="750">
      <contour>
        <pt x="140" y="200" on="1"/>
        <pt x="143" y="239" on="0"/>
        <pt x="145" y="245" on="1"/>
        <pt x="151" y="279" on="0"/>
        <pt x="183" y="335" on="0"/>
        <pt x="225" y="387" on="0"/>
        <pt x="269" y="437" on="0"/>
        <pt x="307" y="490" on="0"/>
        <pt x="331" y="550" on="0"/>
        <pt x="331" y="586" on="1"/>
        <pt x="331" y="637" on="0"/>
        <pt x="278" y="684" on="0"/>
        <pt x="243" y="684" on="1"/>
        <pt x="222" y="684" on="0"/>
        <pt x="182" y="670" on="0"/>
        <pt x="148" y="649" on="0"/>
        <pt x="122" y="625" on="0"/>
        <pt x="115" y="616" on="1"/>
        <pt x="103" y="683" on="1"/>
        <pt x="126" y="711" on="0"/>
        <pt x="210" y="750" on="0"/>
        <pt x="258" y="750" on="1"/>
        <pt x="299" y="750" on="0"/>
        <pt x="359" y="720" on="0"/>
        <pt x="398" y="674" on="0"/>
        <pt x="416" y="616" on="0"/>
        <pt x="416" y="588" on="1"/>
        <pt x="416" y="553" on="0"/>
        <pt x="388" y="487" on="0"/>
        <pt x="344" y="426" on="0"/>
        <pt x="292" y="367" on="0"/>
        <pt x="246" y="311" on="0"/>
        <pt x="210" y="255" on="0"/>
        <pt x="205" y="227" on="1"/>
        <pt x="200" y="200" on="1"/>
      </contour>
      <contour>
        <pt x="90" y="0" on="1"/>
        <pt x="105" y="86" on="1"/>
        <pt x="197" y="86" on="1"/>
        <pt x="181" y="0" on="1"/>
      </contour>
    </TTGlyph>
    <TTGlyph name="questiondown" xMin="-4" yMin="-250" xMax="322" yMax="500">
      <contour>
        <pt x="272" y="300" on="1"/>
        <pt x="269" y="261" on="0"/>
        <pt x="267" y="255" on="1"/>
        <pt x="261" y="221" on="0"/>
        <pt x="229" y="165" on="0"/>
        <pt x="187" y="113" on="0"/>
        <pt x="143" y="63" on="0"/>
        <pt x="105" y="10" on="0"/>
        <pt x="81" y="-50" on="0"/>
        <pt x="81" y="-86" on="1"/>
        <pt x="81" y="-137" on="0"/>
        <pt x="134" y="-184" on="0"/>
        <pt x="169" y="-184" on="1"/>
        <pt x="190" y="-184" on="0"/>
        <pt x="230" y="-170" on="0"/>
        <pt x="264" y="-149" on="0"/>
        <pt x="290" y="-125" on="0"/>
        <pt x="297" y="-116" on="1"/>
        <pt x="309" y="-183" on="1"/>
        <pt x="286" y="-211" on="0"/>
        <pt x="201" y="-250" on="0"/>
        <pt x="153" y="-250" on="1"/>
        <pt x="112" y="-250" on="0"/>
        <pt x="53" y="-220" on="0"/>
        <pt x="14" y="-174" on="0"/>
        <pt x="-4" y="-116" on="0"/>
        <pt x="-4" y="-88" on="1"/>
        <pt x="-4" y="-53" on="0"/>
        <pt x="24" y="13" on="0"/>
        <pt x="68" y="74" on="0"/>
        <pt x="120" y="133" on="0"/>
        <pt x="166" y="189" on="0"/>
        <pt x="202" y="245" on="0"/>
        <pt x="207" y="273" on="1"/>
        <pt x="212" y="300" on="1"/>
      </contour>
      <contour>
        <pt x="322" y="500" on="1"/>
        <pt x="307" y="414" on="1"/>
        <pt x="215" y="414" on="1"/>
        <pt x="230" y="500" on="1"/>
      </contour>
    </TTGlyph>
    <TTGlyph name="quotedbl" xMin="86" yMin="450" xMax="411" yMax="750">
      <contour>
        <pt x="340" y="450" on="1"/>
        <pt x="284" y="450" on="1"/>
        <pt x="319" y="750" on="1"/>
        <pt x="411" y="750" on="1"/>
      </contour>
      <contour>
        <pt x="143" y="450" on="1"/>
        <pt x="86" y="450" on="1"/>
        <pt x="121" y="750" on="1"/>
        <pt x="214" y="750" on="1"/>
      </contour>
    </TTGlyph>
    <TTGlyph name="quotedblbase" xMin="-10" yMin="-109" xMax="327" yMax="86">
      <contour>
        <pt x="9" y="-109" on="1"/>
        <pt x="-10" y="-96" on="1"/>
        <pt x="36" y="-9" on="1"/>
        <pt x="8" y="0" on="1"/>
        <pt x="23" y="86" on="1"/>
        <pt x="120" y="86" on="1"/>
        <pt x="104" y="0" on="1"/>
      </contour>
      <contour>
        <pt x="216" y="-109" on="1"/>
        <pt x="197" y="-96" on="1"/>
        <pt x="243" y="-9" on="1"/>
        <pt x="215" y="0" on="1"/>
        <pt x="230" y="86" on="1"/>
        <pt x="327" y="86" on="1"/>
        <pt x="311" y="0" on="1"/>
      </contour>
    </TTGlyph>
    <TTGlyph name="quotedblleft" xMin="90" yMin="555" xMax="409" yMax="750">
      <contour>
        <pt x="200" y="750" on="1"/>
        <pt x="220" y="737" on="1"/>
        <pt x="173" y="650" on="1"/>
        <pt x="202" y="641" on="1"/>
        <pt x="187" y="555" on="1"/>
        <pt x="90" y="555" on="1"/>
        <pt x="105" y="641" on="1"/>
      </contour>
      <contour>
        <pt x="389" y="750" on="1"/>
        <pt x="409" y="737" on="1"/>
        <pt x="362" y="650" on="1"/>
        <pt x="391" y="641" on="1"/>
        <pt x="376" y="555" on="1"/>
        <pt x="279" y="555" on="1"/>
        <pt x="294" y="641" on="1"/>
      </contour>
    </TTGlyph>
    <TTGlyph name="quotedblright" xMin="90" yMin="555" xMax="409" yMax="750">
      <contour>
        <pt x="298" y="555" on="1"/>
        <pt x="279" y="568" on="1"/>
        <pt x="325" y="655" on="1"/>
        <pt x="297" y="664" on="1"/>
        <pt x="312" y="750" on="1"/>
        <pt x="409" y="750" on="1"/>
        <pt x="393" y="664" on="1"/>
      </contour>
      <contour>
        <pt x="109" y="555" on="1"/>
        <pt x="90" y="568" on="1"/>
        <pt x="136" y="655" on="1"/>
        <pt x="108" y="664" on="1"/>
        <pt x="123" y="750" on="1"/>
        <pt x="220" y="750" on="1"/>
        <pt x="204" y="664" on="1"/>
      </contour>
    </TTGlyph>
    <TTGlyph name="quoteleft" xMin="90" yMin="555" xMax="220" yMax="750">
      <contour>
        <pt x="200" y="750" on="1"/>
        <pt x="220" y="737" on="1"/>
        <pt x="173" y="650" on="1"/>
        <pt x="202" y="641" on="1"/>
        <pt x="187" y="555" on="1"/>
        <pt x="90" y="555" on="1"/>
        <pt x="105" y="641" on="1"/>
      </contour>
    </TTGlyph>
    <TTGlyph name="quoteright" xMin="90" yMin="555" xMax="220" yMax="750">
      <contour>
        <pt x="109" y="555" on="1"/>
        <pt x="90" y="568" on="1"/>
        <pt x="136" y="655" on="1"/>
        <pt x="108" y="664" on="1"/>
        <pt x="123" y="750" on="1"/>
        <pt x="220" y="750" on="1"/>
        <pt x="204" y="664" on="1"/>
      </contour>
    </TTGlyph>
    <TTGlyph name="quotesinglbase" xMin="-10" yMin="-109" xMax="120" yMax="86">
      <contour>
        <pt x="9" y="-109" on="1"/>
        <pt x="-10" y="-96" on="1"/>
        <pt x="36" y="-9" on="1"/>
        <pt x="8" y="0" on="1"/>
        <pt x="23" y="86" on="1"/>
        <pt x="120" y="86" on="1"/>
        <pt x="104" y="0" on="1"/>
      </contour>
    </TTGlyph>
    <TTGlyph name="quotesingle" xMin="86" yMin="450" xMax="219" yMax="750">
      <contour>
        <pt x="149" y="450" on="1"/>
        <pt x="86" y="450" on="1"/>
        <pt x="122" y="750" on="1"/>
        <pt x="219" y="750" on="1"/>
      </contour>
    </TTGlyph>
    <TTGlyph name="r" xMin="10" yMin="0" xMax="340" yMax="508">
      <contour>
        <pt x="304" y="409" on="1"/>
        <pt x="271" y="409" on="1"/>
        <pt x="257" y="409" on="0"/>
        <pt x="226" y="398" on="0"/>
        <pt x="197" y="380" on="0"/>
        <pt x="172" y="358" on="0"/>
        <pt x="165" y="346" on="1"/>
        <pt x="104" y="0" on="1"/>
        <pt x="10" y="0" on="1"/>
        <pt x="96" y="490" on="1"/>
        <pt x="175" y="490" on="1"/>
        <pt x="168" y="409" on="1"/>
        <pt x="210" y="460" on="0"/>
        <pt x="286" y="508" on="0"/>
        <pt x="326" y="508" on="1"/>
        <pt x="340" y="508" on="1"/>
      </contour>
    </TTGlyph>
    <TTGlyph name="registered" xMin="60" yMin="37" xMax="633" yMax="693">
      <contour>
        <pt x="289" y="37" on="1"/>
        <pt x="237" y="37" on="0"/>
        <pt x="152" y="74" on="0"/>
        <pt x="92" y="143" on="0"/>
        <pt x="60" y="241" on="0"/>
        <pt x="60" y="301" on="1"/>
        <pt x="60" y="387" on="0"/>
        <pt x="115" y="531" on="0"/>
        <pt x="210" y="635" on="0"/>
        <pt x="335" y="693" on="0"/>
        <pt x="405" y="693" on="1"/>
        <pt x="457" y="693" on="0"/>
        <pt x="541" y="656" on="0"/>
        <pt x="601" y="587" on="0"/>
        <pt x="633" y="490" on="0"/>
        <pt x="633" y="430" on="1"/>
        <pt x="633" y="344" on="0"/>
        <pt x="578" y="199" on="0"/>
        <pt x="485" y="95" on="0"/>
        <pt x="359" y="37" on="0"/>
      </contour>
      <contour>
        <pt x="397" y="649" on="1"/>
        <pt x="329" y="649" on="0"/>
        <pt x="223" y="591" on="0"/>
        <pt x="151" y="495" on="0"/>
        <pt x="114" y="369" on="0"/>
        <pt x="114" y="301" on="1"/>
        <pt x="114" y="254" on="0"/>
        <pt x="136" y="173" on="0"/>
        <pt x="181" y="114" on="0"/>
        <pt x="250" y="80" on="0"/>
        <pt x="297" y="80" on="1"/>
        <pt x="365" y="80" on="0"/>
        <pt x="470" y="138" on="0"/>
        <pt x="542" y="235" on="0"/>
        <pt x="580" y="361" on="0"/>
        <pt x="580" y="429" on="1"/>
        <pt x="580" y="476" on="0"/>
        <pt x="558" y="557" on="0"/>
        <pt x="513" y="616" on="0"/>
        <pt x="444" y="649" on="0"/>
      </contour>
      <contour>
        <pt x="376" y="210" on="1"/>
        <pt x="339" y="327" on="1"/>
        <pt x="296" y="327" on="1"/>
        <pt x="276" y="210" on="1"/>
        <pt x="212" y="210" on="1"/>
        <pt x="269" y="531" on="1"/>
        <pt x="378" y="531" on="1"/>
        <pt x="417" y="531" on="0"/>
        <pt x="465" y="499" on="0"/>
        <pt x="465" y="455" on="1"/>
        <pt x="465" y="416" on="0"/>
        <pt x="427" y="363" on="0"/>
        <pt x="400" y="344" on="1"/>
        <pt x="441" y="210" on="1"/>
      </contour>
      <contour>
        <pt x="324" y="482" on="1"/>
        <pt x="306" y="383" on="1"/>
        <pt x="338" y="383" on="1"/>
        <pt x="398" y="383" on="0"/>
        <pt x="398" y="446" on="1"/>
        <pt x="398" y="463" on="0"/>
        <pt x="380" y="482" on="0"/>
        <pt x="357" y="482" on="1"/>
      </contour>
    </TTGlyph>
    <TTGlyph name="ring" xMin="153" yMin="576" xMax="343" yMax="755">
      <contour>
        <pt x="233" y="576" on="1"/>
        <pt x="192" y="576" on="0"/>
        <pt x="153" y="622" on="0"/>
        <pt x="153" y="651" on="1"/>
        <pt x="153" y="670" on="0"/>
        <pt x="169" y="708" on="0"/>
        <pt x="198" y="737" on="0"/>
        <pt x="239" y="755" on="0"/>
        <pt x="264" y="755" on="1"/>
        <pt x="305" y="755" on="0"/>
        <pt x="343" y="709" on="0"/>
        <pt x="343" y="679" on="1"/>
        <pt x="343" y="660" on="0"/>
        <pt x="328" y="623" on="0"/>
        <pt x="300" y="594" on="0"/>
        <pt x="259" y="576" on="0"/>
      </contour>
      <contour>
        <pt x="259" y="724" on="1"/>
        <pt x="236" y="724" on="0"/>
        <pt x="198" y="685" on="0"/>
        <pt x="198" y="653" on="1"/>
        <pt x="198" y="631" on="0"/>
        <pt x="221" y="605" on="0"/>
        <pt x="238" y="605" on="1"/>
        <pt x="261" y="605" on="0"/>
        <pt x="299" y="644" on="0"/>
        <pt x="299" y="676" on="1"/>
        <pt x="299" y="697" on="0"/>
        <pt x="276" y="724" on="0"/>
      </contour>
    </TTGlyph>
    <TTGlyph name="s" xMin="-10" yMin="-10" xMax="366" yMax="500">
      <contour>
        <pt x="134" y="-10" on="1"/>
        <pt x="77" y="-10" on="0"/>
        <pt x="5" y="21" on="0"/>
        <pt x="-10" y="33" on="1"/>
        <pt x="15" y="120" on="1"/>
        <pt x="22" y="113" on="0"/>
        <pt x="47" y="95" on="0"/>
        <pt x="80" y="80" on="0"/>
        <pt x="121" y="70" on="0"/>
        <pt x="144" y="70" on="1"/>
        <pt x="193" y="70" on="0"/>
        <pt x="238" y="108" on="0"/>
        <pt x="238" y="142" on="1"/>
        <pt x="238" y="158" on="0"/>
        <pt x="224" y="181" on="0"/>
        <pt x="203" y="198" on="0"/>
        <pt x="177" y="208" on="0"/>
        <pt x="165" y="212" on="1"/>
        <pt x="145" y="218" on="0"/>
        <pt x="105" y="234" on="0"/>
        <pt x="72" y="260" on="0"/>
        <pt x="51" y="299" on="0"/>
        <pt x="51" y="329" on="1"/>
        <pt x="51" y="359" on="0"/>
        <pt x="71" y="419" on="0"/>
        <pt x="117" y="469" on="0"/>
        <pt x="191" y="500" on="0"/>
        <pt x="245" y="500" on="1"/>
        <pt x="289" y="500" on="0"/>
        <pt x="349" y="479" on="0"/>
        <pt x="366" y="468" on="1"/>
        <pt x="342" y="386" on="1"/>
        <pt x="326" y="404" on="0"/>
        <pt x="274" y="429" on="0"/>
        <pt x="237" y="429" on="1"/>
        <pt x="197" y="429" on="0"/>
        <pt x="142" y="392" on="0"/>
        <pt x="142" y="353" on="1"/>
        <pt x="142" y="339" on="0"/>
        <pt x="154" y="319" on="0"/>
        <pt x="177" y="303" on="0"/>
        <pt x="210" y="290" on="0"/>
        <pt x="231" y="283" on="1"/>
        <pt x="246" y="278" on="0"/>
        <pt x="282" y="261" on="0"/>
        <pt x="313" y="234" on="0"/>
        <pt x="333" y="192" on="0"/>
        <pt x="333" y="161" on="1"/>
        <pt x="333" y="139" on="0"/>
        <pt x="319" y="80" on="0"/>
        <pt x="277" y="27" on="0"/>
        <pt x="199" y="-10" on="0"/>
      </contour>
    </TTGlyph>
    <TTGlyph name="scaron" xMin="-10" yMin="-10" xMax="401" yMax="740">
      <component glyphName="s" x="0" y="0" flags="0x204"/>
      <component glyphName="caron" x="-63" y="0" flags="0x4"/>
    </TTGlyph>
    <TTGlyph name="section" xMin="5" yMin="-84" xMax="436" yMax="750">
      <contour>
        <pt x="278" y="188" on="1"/>
        <pt x="297" y="165" on="0"/>
        <pt x="310" y="123" on="0"/>
        <pt x="310" y="102" on="1"/>
        <pt x="310" y="72" on="0"/>
        <pt x="291" y="7" on="0"/>
        <pt x="248" y="-48" on="0"/>
        <pt x="178" y="-84" on="0"/>
        <pt x="127" y="-84" on="1"/>
        <pt x="88" y="-84" on="0"/>
        <pt x="19" y="-62" on="0"/>
        <pt x="5" y="-45" on="1"/>
        <pt x="27" y="18" on="1"/>
        <pt x="50" y="1" on="0"/>
        <pt x="107" y="-23" on="0"/>
        <pt x="137" y="-23" on="1"/>
        <pt x="179" y="-23" on="0"/>
        <pt x="242" y="25" on="0"/>
        <pt x="242" y="75" on="1"/>
        <pt x="242" y="103" on="0"/>
        <pt x="213" y="136" on="0"/>
        <pt x="169" y="158" on="0"/>
        <pt x="117" y="177" on="0"/>
        <pt x="73" y="208" on="0"/>
        <pt x="44" y="257" on="0"/>
        <pt x="44" y="298" on="1"/>
        <pt x="44" y="361" on="0"/>
        <pt x="103" y="458" on="0"/>
        <pt x="165" y="479" on="1"/>
        <pt x="145" y="502" on="0"/>
        <pt x="131" y="547" on="0"/>
        <pt x="131" y="566" on="1"/>
        <pt x="131" y="594" on="0"/>
        <pt x="148" y="658" on="0"/>
        <pt x="190" y="713" on="0"/>
        <pt x="260" y="750" on="0"/>
        <pt x="312" y="750" on="1"/>
        <pt x="353" y="750" on="0"/>
        <pt x="421" y="724" on="0"/>
        <pt x="436" y="710" on="1"/>
        <pt x="415" y="647" on="1"/>
        <pt x="392" y="664" on="0"/>
        <pt x="335" y="690" on="0"/>
        <pt x="306" y="690" on="1"/>
        <pt x="285" y="690" on="0"/>
        <pt x="248" y="674" on="0"/>
        <pt x="220" y="647" on="0"/>
        <pt x="204" y="611" on="0"/>
        <pt x="204" y="592" on="1"/>
        <pt x="204" y="567" on="0"/>
        <pt x="232" y="535" on="0"/>
        <pt x="275" y="511" on="0"/>
        <pt x="325" y="488" on="0"/>
        <pt x="368" y="454" on="0"/>
        <pt x="396" y="403" on="0"/>
        <pt x="396" y="363" on="1"/>
        <pt x="396" y="344" on="0"/>
        <pt x="387" y="297" on="0"/>
        <pt x="362" y="249" on="0"/>
        <pt x="315" y="204" on="0"/>
      </contour>
      <contour>
        <pt x="215" y="438" on="1"/>
        <pt x="206" y="438" on="0"/>
        <pt x="173" y="427" on="0"/>
        <pt x="142" y="403" on="0"/>
        <pt x="118" y="361" on="0"/>
        <pt x="118" y="329" on="1"/>
        <pt x="118" y="308" on="0"/>
        <pt x="137" y="274" on="0"/>
        <pt x="170" y="247" on="0"/>
        <pt x="211" y="227" on="0"/>
        <pt x="234" y="219" on="1"/>
        <pt x="250" y="225" on="0"/>
        <pt x="281" y="248" on="0"/>
        <pt x="305" y="280" on="0"/>
        <pt x="320" y="318" on="0"/>
        <pt x="320" y="338" on="1"/>
        <pt x="320" y="363" on="0"/>
        <pt x="297" y="398" on="0"/>
        <pt x="265" y="421" on="0"/>
        <pt x="228" y="435" on="0"/>
      </contour>
    </TTGlyph>
    <TTGlyph name="semicolon" xMin="-10" yMin="-109" xMax="186" yMax="440">
      <contour>
        <pt x="70" y="354" on="1"/>
        <pt x="85" y="440" on="1"/>
        <pt x="186" y="440" on="1"/>
        <pt x="171" y="354" on="1"/>
      </contour>
      <contour>
        <pt x="9" y="-109" on="1"/>
        <pt x="-10" y="-96" on="1"/>
        <pt x="36" y="-9" on="1"/>
        <pt x="8" y="0" on="1"/>
        <pt x="23" y="86" on="1"/>
        <pt x="120" y="86" on="1"/>
        <pt x="104" y="-1" on="1"/>
      </contour>
    </TTGlyph>
    <TTGlyph name="seven" xMin="29" yMin="0" xMax="522" yMax="700">
      <contour>
        <pt x="129" y="0" on="1"/>
        <pt x="29" y="0" on="1"/>
        <pt x="369" y="614" on="1"/>
        <pt x="97" y="614" on="1"/>
        <pt x="112" y="700" on="1"/>
        <pt x="522" y="700" on="1"/>
      </contour>
    </TTGlyph>
    <TTGlyph name="seveninferior" xMin="8" yMin="1" xMax="302" yMax="379">
      <component glyphName="sevensuperior" x="-36" y="-319" flags="0x4"/>
    </TTGlyph>
    <TTGlyph name="sevensuperior" xMin="44" yMin="320" xMax="338" yMax="698">
      <contour>
        <pt x="121" y="320" on="1"/>
        <pt x="44" y="320" on="1"/>
        <pt x="218" y="628" on="1"/>
        <pt x="84" y="628" on="1"/>
        <pt x="96" y="698" on="1"/>
        <pt x="338" y="698" on="1"/>
      </contour>
    </TTGlyph>
    <TTGlyph name="six" xMin="50" yMin="-14" xMax="474" yMax="700">
      <contour>
        <pt x="209" y="-14" on="1"/>
        <pt x="133" y="-14" on="0"/>
        <pt x="50" y="86" on="0"/>
        <pt x="50" y="176" on="1"/>
        <pt x="50" y="235" on="0"/>
        <pt x="85" y="359" on="0"/>
        <pt x="143" y="475" on="0"/>
        <pt x="218" y="577" on="0"/>
        <pt x="298" y="654" on="0"/>
        <pt x="376" y="699" on="0"/>
        <pt x="409" y="700" on="1"/>
        <pt x="466" y="662" on="1"/>
        <pt x="421" y="636" on="0"/>
        <pt x="336" y="576" on="0"/>
        <pt x="262" y="502" on="0"/>
        <pt x="203" y="412" on="0"/>
        <pt x="184" y="357" on="1"/>
        <pt x="210" y="389" on="0"/>
        <pt x="277" y="420" on="0"/>
        <pt x="315" y="420" on="1"/>
        <pt x="389" y="420" on="0"/>
        <pt x="474" y="331" on="0"/>
        <pt x="474" y="256" on="1"/>
        <pt x="474" y="199" on="0"/>
        <pt x="433" y="100" on="0"/>
        <pt x="362" y="28" on="0"/>
        <pt x="265" y="-14" on="0"/>
      </contour>
      <contour>
        <pt x="293" y="339" on="1"/>
        <pt x="263" y="339" on="0"/>
        <pt x="210" y="314" on="0"/>
        <pt x="169" y="270" on="0"/>
        <pt x="145" y="210" on="0"/>
        <pt x="145" y="175" on="1"/>
        <pt x="145" y="127" on="0"/>
        <pt x="195" y="69" on="0"/>
        <pt x="234" y="69" on="1"/>
        <pt x="264" y="69" on="0"/>
        <pt x="317" y="96" on="0"/>
        <pt x="356" y="142" on="0"/>
        <pt x="379" y="206" on="0"/>
        <pt x="379" y="242" on="1"/>
        <pt x="379" y="287" on="0"/>
        <pt x="335" y="339" on="0"/>
      </contour>
    </TTGlyph>
    <TTGlyph name="sixinferior" xMin="17" yMin="-7" xMax="264" yMax="379">
      <component glyphName="sixsuperior" x="-43" y="-319" flags="0x4"/>
    </TTGlyph>
    <TTGlyph name="sixsuperior" xMin="60" yMin="312" xMax="307" yMax="698">
      <contour>
        <pt x="152" y="312" on="1"/>
        <pt x="112" y="312" on="0"/>
        <pt x="60" y="362" on="0"/>
        <pt x="60" y="420" on="1"/>
        <pt x="60" y="480" on="0"/>
        <pt x="109" y="582" on="0"/>
        <pt x="175" y="656" on="0"/>
        <pt x="243" y="698" on="0"/>
        <pt x="263" y="698" on="1"/>
        <pt x="307" y="670" on="1"/>
        <pt x="293" y="670" on="0"/>
        <pt x="246" y="642" on="0"/>
        <pt x="198" y="600" on="0"/>
        <pt x="159" y="550" on="0"/>
        <pt x="153" y="528" on="1"/>
        <pt x="159" y="534" on="0"/>
        <pt x="175" y="542" on="0"/>
        <pt x="192" y="546" on="0"/>
        <pt x="208" y="547" on="0"/>
        <pt x="213" y="547" on="1"/>
        <pt x="253" y="547" on="0"/>
        <pt x="304" y="503" on="0"/>
        <pt x="304" y="459" on="1"/>
        <pt x="304" y="430" on="0"/>
        <pt x="281" y="377" on="0"/>
        <pt x="240" y="337" on="0"/>
        <pt x="185" y="312" on="0"/>
      </contour>
      <contour>
        <pt x="197" y="489" on="1"/>
        <pt x="168" y="489" on="0"/>
        <pt x="129" y="455" on="0"/>
        <pt x="129" y="422" on="1"/>
        <pt x="129" y="399" on="0"/>
        <pt x="157" y="377" on="0"/>
        <pt x="171" y="377" on="1"/>
        <pt x="184" y="377" on="0"/>
        <pt x="208" y="389" on="0"/>
        <pt x="226" y="409" on="0"/>
        <pt x="236" y="434" on="0"/>
        <pt x="236" y="447" on="1"/>
        <pt x="236" y="462" on="0"/>
        <pt x="217" y="489" on="0"/>
      </contour>
    </TTGlyph>
    <TTGlyph name="slash" xMin="-44" yMin="-85" xMax="531" yMax="700">
      <contour>
        <pt x="56" y="-85" on="1"/>
        <pt x="-44" y="-85" on="1"/>
        <pt x="431" y="700" on="1"/>
        <pt x="531" y="700" on="1"/>
      </contour>
    </TTGlyph>
    <TTGlyph name="sterling" xMin="-16" yMin="0" xMax="503" yMax="714">
      <contour>
        <pt x="431" y="569" on="1"/>
        <pt x="418" y="625" on="0"/>
        <pt x="367" y="625" on="1"/>
        <pt x="340" y="625" on="0"/>
        <pt x="308" y="609" on="0"/>
        <pt x="287" y="575" on="0"/>
        <pt x="274" y="524" on="0"/>
        <pt x="268" y="488" on="1"/>
        <pt x="252" y="395" on="1"/>
        <pt x="422" y="395" on="1"/>
        <pt x="391" y="309" on="1"/>
        <pt x="231" y="309" on="1"/>
        <pt x="222" y="271" on="0"/>
        <pt x="208" y="217" on="0"/>
        <pt x="191" y="168" on="0"/>
        <pt x="168" y="119" on="0"/>
        <pt x="151" y="86" on="1"/>
        <pt x="378" y="86" on="1"/>
        <pt x="363" y="0" on="1"/>
        <pt x="-16" y="0" on="1"/>
        <pt x="14" y="35" on="0"/>
        <pt x="60" y="103" on="0"/>
        <pt x="96" y="176" on="0"/>
        <pt x="124" y="259" on="0"/>
        <pt x="137" y="309" on="1"/>
        <pt x="53" y="309" on="1"/>
        <pt x="84" y="395" on="1"/>
        <pt x="158" y="395" on="1"/>
        <pt x="178" y="510" on="1"/>
        <pt x="185" y="550" on="0"/>
        <pt x="210" y="623" on="0"/>
        <pt x="255" y="680" on="0"/>
        <pt x="323" y="714" on="0"/>
        <pt x="373" y="714" on="1"/>
        <pt x="432" y="714" on="0"/>
        <pt x="497" y="665" on="0"/>
        <pt x="503" y="628" on="1"/>
      </contour>
    </TTGlyph>
    <TTGlyph name="t" xMin="35" yMin="-10" xMax="321" yMax="620">
      <contour>
        <pt x="223" y="-10" on="1"/>
        <pt x="148" y="-10" on="1"/>
        <pt x="94" y="-10" on="0"/>
        <pt x="50" y="44" on="0"/>
        <pt x="50" y="81" on="1"/>
        <pt x="50" y="88" on="0"/>
        <pt x="50" y="100" on="0"/>
        <pt x="52" y="107" on="1"/>
        <pt x="107" y="420" on="1"/>
        <pt x="35" y="420" on="1"/>
        <pt x="55" y="490" on="1"/>
        <pt x="119" y="490" on="1"/>
        <pt x="141" y="611" on="1"/>
        <pt x="233" y="620" on="1"/>
        <pt x="210" y="490" on="1"/>
        <pt x="321" y="490" on="1"/>
        <pt x="308" y="420" on="1"/>
        <pt x="197" y="420" on="1"/>
        <pt x="152" y="162" on="1"/>
        <pt x="148" y="142" on="0"/>
        <pt x="144" y="112" on="0"/>
        <pt x="144" y="101" on="1"/>
        <pt x="144" y="74" on="0"/>
        <pt x="177" y="62" on="0"/>
        <pt x="219" y="62" on="1"/>
        <pt x="243" y="62" on="1"/>
      </contour>
    </TTGlyph>
</ttFont>
